<mxfile host="Electron" agent="Mozilla/5.0 (Macintosh; Intel Mac OS X 10_15_7) AppleWebKit/537.36 (KHTML, like Gecko) draw.io/24.7.17 Chrome/128.0.6613.36 Electron/32.0.1 Safari/537.36" version="24.7.17">
  <diagram name="Page-1" id="0L86UucOzrPGEtBPijlb">
    <mxGraphModel dx="1415" dy="809" grid="1" gridSize="10" guides="1" tooltips="1" connect="1" arrows="1" fold="1" page="1" pageScale="1" pageWidth="850" pageHeight="1100" math="0" shadow="0">
      <root>
        <mxCell id="0" />
        <mxCell id="1" parent="0" />
        <mxCell id="gmeqmmIKyzfBdvNXJOLA-1" value="customers" style="rounded=0;whiteSpace=wrap;html=1;" parent="1" vertex="1">
          <mxGeometry x="280" y="340" width="120" height="60" as="geometry" />
        </mxCell>
        <mxCell id="gmeqmmIKyzfBdvNXJOLA-2" value="branches" style="rounded=0;whiteSpace=wrap;html=1;" parent="1" vertex="1">
          <mxGeometry x="570" y="340" width="120" height="60" as="geometry" />
        </mxCell>
        <mxCell id="gmeqmmIKyzfBdvNXJOLA-3" value="employees" style="rounded=0;whiteSpace=wrap;html=1;" parent="1" vertex="1">
          <mxGeometry x="570" y="190" width="120" height="60" as="geometry" />
        </mxCell>
        <mxCell id="gmeqmmIKyzfBdvNXJOLA-4" value="accounts" style="rounded=0;whiteSpace=wrap;html=1;" parent="1" vertex="1">
          <mxGeometry x="280" y="490" width="120" height="60" as="geometry" />
        </mxCell>
        <mxCell id="gmeqmmIKyzfBdvNXJOLA-6" value="accounts_transaction" style="rounded=0;whiteSpace=wrap;html=1;" parent="1" vertex="1">
          <mxGeometry x="280" y="630" width="120" height="60" as="geometry" />
        </mxCell>
        <mxCell id="gmeqmmIKyzfBdvNXJOLA-7" value="cards" style="rounded=0;whiteSpace=wrap;html=1;" parent="1" vertex="1">
          <mxGeometry x="590" y="490" width="120" height="60" as="geometry" />
        </mxCell>
        <mxCell id="gmeqmmIKyzfBdvNXJOLA-8" value="cards_transaction" style="rounded=0;whiteSpace=wrap;html=1;" parent="1" vertex="1">
          <mxGeometry x="590" y="630" width="120" height="60" as="geometry" />
        </mxCell>
        <mxCell id="gmeqmmIKyzfBdvNXJOLA-9" value="loans" style="rounded=0;whiteSpace=wrap;html=1;" parent="1" vertex="1">
          <mxGeometry x="30" y="340" width="120" height="60" as="geometry" />
        </mxCell>
        <mxCell id="gmeqmmIKyzfBdvNXJOLA-10" value="" style="endArrow=none;html=1;rounded=0;entryX=0.5;entryY=1;entryDx=0;entryDy=0;exitX=0.5;exitY=0;exitDx=0;exitDy=0;" parent="1" source="gmeqmmIKyzfBdvNXJOLA-4" target="gmeqmmIKyzfBdvNXJOLA-1" edge="1">
          <mxGeometry width="50" height="50" relative="1" as="geometry">
            <mxPoint x="400" y="630" as="sourcePoint" />
            <mxPoint x="450" y="580" as="targetPoint" />
          </mxGeometry>
        </mxCell>
        <mxCell id="gmeqmmIKyzfBdvNXJOLA-11" value="1..*" style="edgeLabel;html=1;align=center;verticalAlign=middle;resizable=0;points=[];" parent="gmeqmmIKyzfBdvNXJOLA-10" vertex="1" connectable="0">
          <mxGeometry x="-0.7303" y="-3" relative="1" as="geometry">
            <mxPoint as="offset" />
          </mxGeometry>
        </mxCell>
        <mxCell id="gmeqmmIKyzfBdvNXJOLA-12" value="1..1" style="edgeLabel;html=1;align=center;verticalAlign=middle;resizable=0;points=[];" parent="gmeqmmIKyzfBdvNXJOLA-10" vertex="1" connectable="0">
          <mxGeometry x="0.695" relative="1" as="geometry">
            <mxPoint as="offset" />
          </mxGeometry>
        </mxCell>
        <mxCell id="gmeqmmIKyzfBdvNXJOLA-13" value="" style="endArrow=none;html=1;rounded=0;entryX=0.5;entryY=1;entryDx=0;entryDy=0;" parent="1" source="gmeqmmIKyzfBdvNXJOLA-6" target="gmeqmmIKyzfBdvNXJOLA-4" edge="1">
          <mxGeometry width="50" height="50" relative="1" as="geometry">
            <mxPoint x="400" y="630" as="sourcePoint" />
            <mxPoint x="450" y="580" as="targetPoint" />
          </mxGeometry>
        </mxCell>
        <mxCell id="gmeqmmIKyzfBdvNXJOLA-14" value="1..*" style="edgeLabel;html=1;align=center;verticalAlign=middle;resizable=0;points=[];" parent="gmeqmmIKyzfBdvNXJOLA-13" vertex="1" connectable="0">
          <mxGeometry x="-0.6276" relative="1" as="geometry">
            <mxPoint as="offset" />
          </mxGeometry>
        </mxCell>
        <mxCell id="gmeqmmIKyzfBdvNXJOLA-15" value="1..1" style="edgeLabel;html=1;align=center;verticalAlign=middle;resizable=0;points=[];" parent="gmeqmmIKyzfBdvNXJOLA-13" vertex="1" connectable="0">
          <mxGeometry x="0.7172" y="-2" relative="1" as="geometry">
            <mxPoint as="offset" />
          </mxGeometry>
        </mxCell>
        <mxCell id="gmeqmmIKyzfBdvNXJOLA-28" style="edgeStyle=orthogonalEdgeStyle;rounded=0;orthogonalLoop=1;jettySize=auto;html=1;exitX=0.5;exitY=1;exitDx=0;exitDy=0;" parent="1" source="gmeqmmIKyzfBdvNXJOLA-3" target="gmeqmmIKyzfBdvNXJOLA-3" edge="1">
          <mxGeometry relative="1" as="geometry" />
        </mxCell>
        <mxCell id="gmeqmmIKyzfBdvNXJOLA-29" value="" style="endArrow=none;html=1;rounded=0;entryX=0.5;entryY=1;entryDx=0;entryDy=0;exitX=0.5;exitY=0;exitDx=0;exitDy=0;" parent="1" source="gmeqmmIKyzfBdvNXJOLA-2" target="gmeqmmIKyzfBdvNXJOLA-3" edge="1">
          <mxGeometry width="50" height="50" relative="1" as="geometry">
            <mxPoint x="400" y="440" as="sourcePoint" />
            <mxPoint x="450" y="390" as="targetPoint" />
          </mxGeometry>
        </mxCell>
        <mxCell id="gmeqmmIKyzfBdvNXJOLA-31" value="1..1" style="edgeLabel;html=1;align=center;verticalAlign=middle;resizable=0;points=[];" parent="gmeqmmIKyzfBdvNXJOLA-29" vertex="1" connectable="0">
          <mxGeometry x="-0.7379" relative="1" as="geometry">
            <mxPoint as="offset" />
          </mxGeometry>
        </mxCell>
        <mxCell id="gmeqmmIKyzfBdvNXJOLA-32" value="1..*" style="edgeLabel;html=1;align=center;verticalAlign=middle;resizable=0;points=[];" parent="gmeqmmIKyzfBdvNXJOLA-29" vertex="1" connectable="0">
          <mxGeometry x="0.8069" relative="1" as="geometry">
            <mxPoint as="offset" />
          </mxGeometry>
        </mxCell>
        <mxCell id="gmeqmmIKyzfBdvNXJOLA-33" value="" style="endArrow=none;html=1;rounded=0;entryX=1;entryY=0.5;entryDx=0;entryDy=0;exitX=0;exitY=0.5;exitDx=0;exitDy=0;" parent="1" source="gmeqmmIKyzfBdvNXJOLA-1" target="gmeqmmIKyzfBdvNXJOLA-9" edge="1">
          <mxGeometry width="50" height="50" relative="1" as="geometry">
            <mxPoint x="400" y="440" as="sourcePoint" />
            <mxPoint x="450" y="390" as="targetPoint" />
          </mxGeometry>
        </mxCell>
        <mxCell id="gmeqmmIKyzfBdvNXJOLA-34" value="1..*" style="edgeLabel;html=1;align=center;verticalAlign=middle;resizable=0;points=[];" parent="gmeqmmIKyzfBdvNXJOLA-33" vertex="1" connectable="0">
          <mxGeometry x="0.8281" y="-1" relative="1" as="geometry">
            <mxPoint as="offset" />
          </mxGeometry>
        </mxCell>
        <mxCell id="gmeqmmIKyzfBdvNXJOLA-35" value="1..1" style="edgeLabel;html=1;align=center;verticalAlign=middle;resizable=0;points=[];" parent="gmeqmmIKyzfBdvNXJOLA-33" vertex="1" connectable="0">
          <mxGeometry x="-0.6997" y="2" relative="1" as="geometry">
            <mxPoint as="offset" />
          </mxGeometry>
        </mxCell>
        <mxCell id="gmeqmmIKyzfBdvNXJOLA-36" value="" style="endArrow=none;html=1;rounded=0;exitX=0.5;exitY=0;exitDx=0;exitDy=0;entryX=0.5;entryY=1;entryDx=0;entryDy=0;" parent="1" source="gmeqmmIKyzfBdvNXJOLA-8" target="gmeqmmIKyzfBdvNXJOLA-7" edge="1">
          <mxGeometry width="50" height="50" relative="1" as="geometry">
            <mxPoint x="400" y="520" as="sourcePoint" />
            <mxPoint x="450" y="470" as="targetPoint" />
          </mxGeometry>
        </mxCell>
        <mxCell id="gmeqmmIKyzfBdvNXJOLA-37" value="1..*" style="edgeLabel;html=1;align=center;verticalAlign=middle;resizable=0;points=[];" parent="gmeqmmIKyzfBdvNXJOLA-36" vertex="1" connectable="0">
          <mxGeometry x="-0.6621" y="-1" relative="1" as="geometry">
            <mxPoint as="offset" />
          </mxGeometry>
        </mxCell>
        <mxCell id="gmeqmmIKyzfBdvNXJOLA-38" value="1..1" style="edgeLabel;html=1;align=center;verticalAlign=middle;resizable=0;points=[];" parent="gmeqmmIKyzfBdvNXJOLA-36" vertex="1" connectable="0">
          <mxGeometry x="0.7" y="1" relative="1" as="geometry">
            <mxPoint as="offset" />
          </mxGeometry>
        </mxCell>
        <mxCell id="gmeqmmIKyzfBdvNXJOLA-39" value="" style="endArrow=none;html=1;rounded=0;entryX=1;entryY=0.5;entryDx=0;entryDy=0;exitX=0;exitY=0.5;exitDx=0;exitDy=0;" parent="1" source="gmeqmmIKyzfBdvNXJOLA-7" target="gmeqmmIKyzfBdvNXJOLA-4" edge="1">
          <mxGeometry width="50" height="50" relative="1" as="geometry">
            <mxPoint x="400" y="520" as="sourcePoint" />
            <mxPoint x="450" y="470" as="targetPoint" />
          </mxGeometry>
        </mxCell>
        <mxCell id="gmeqmmIKyzfBdvNXJOLA-41" value="1..1" style="edgeLabel;html=1;align=center;verticalAlign=middle;resizable=0;points=[];" parent="gmeqmmIKyzfBdvNXJOLA-39" vertex="1" connectable="0">
          <mxGeometry x="0.8207" y="1" relative="1" as="geometry">
            <mxPoint as="offset" />
          </mxGeometry>
        </mxCell>
        <mxCell id="gmeqmmIKyzfBdvNXJOLA-42" value="1..1" style="edgeLabel;html=1;align=center;verticalAlign=middle;resizable=0;points=[];" parent="gmeqmmIKyzfBdvNXJOLA-39" vertex="1" connectable="0">
          <mxGeometry x="-0.7401" y="-1" relative="1" as="geometry">
            <mxPoint as="offset" />
          </mxGeometry>
        </mxCell>
        <mxCell id="gmeqmmIKyzfBdvNXJOLA-43" value="" style="endArrow=none;html=1;rounded=0;entryX=0;entryY=1;entryDx=0;entryDy=0;exitX=0.964;exitY=0.016;exitDx=0;exitDy=0;exitPerimeter=0;" parent="1" source="gmeqmmIKyzfBdvNXJOLA-4" target="gmeqmmIKyzfBdvNXJOLA-2" edge="1">
          <mxGeometry width="50" height="50" relative="1" as="geometry">
            <mxPoint x="400" y="480" as="sourcePoint" />
            <mxPoint x="450" y="430" as="targetPoint" />
          </mxGeometry>
        </mxCell>
        <mxCell id="gmeqmmIKyzfBdvNXJOLA-44" value="1..*" style="edgeLabel;html=1;align=center;verticalAlign=middle;resizable=0;points=[];" parent="gmeqmmIKyzfBdvNXJOLA-43" vertex="1" connectable="0">
          <mxGeometry x="-0.8718" y="-1" relative="1" as="geometry">
            <mxPoint as="offset" />
          </mxGeometry>
        </mxCell>
        <mxCell id="gmeqmmIKyzfBdvNXJOLA-45" value="1..1" style="edgeLabel;html=1;align=center;verticalAlign=middle;resizable=0;points=[];" parent="gmeqmmIKyzfBdvNXJOLA-43" vertex="1" connectable="0">
          <mxGeometry x="0.7788" relative="1" as="geometry">
            <mxPoint as="offset" />
          </mxGeometry>
        </mxCell>
        <mxCell id="gmeqmmIKyzfBdvNXJOLA-46" value="Customers" style="swimlane;fontStyle=0;childLayout=stackLayout;horizontal=1;startSize=26;fillColor=none;horizontalStack=0;resizeParent=1;resizeParentMax=0;resizeLast=0;collapsible=1;marginBottom=0;whiteSpace=wrap;html=1;" parent="1" vertex="1">
          <mxGeometry x="50" y="762" width="140" height="364" as="geometry" />
        </mxCell>
        <mxCell id="gmeqmmIKyzfBdvNXJOLA-47" value="- id : PK" style="text;strokeColor=#006EAF;fillColor=#1ba1e2;align=left;verticalAlign=top;spacingLeft=4;spacingRight=4;overflow=hidden;rotatable=0;points=[[0,0.5],[1,0.5]];portConstraint=eastwest;whiteSpace=wrap;html=1;fontColor=#ffffff;" parent="gmeqmmIKyzfBdvNXJOLA-46" vertex="1">
          <mxGeometry y="26" width="140" height="26" as="geometry" />
        </mxCell>
        <mxCell id="gmeqmmIKyzfBdvNXJOLA-48" value="- first_name" style="text;strokeColor=none;fillColor=none;align=left;verticalAlign=top;spacingLeft=4;spacingRight=4;overflow=hidden;rotatable=0;points=[[0,0.5],[1,0.5]];portConstraint=eastwest;whiteSpace=wrap;html=1;" parent="gmeqmmIKyzfBdvNXJOLA-46" vertex="1">
          <mxGeometry y="52" width="140" height="26" as="geometry" />
        </mxCell>
        <mxCell id="gmeqmmIKyzfBdvNXJOLA-49" value="- last_name" style="text;strokeColor=none;fillColor=none;align=left;verticalAlign=top;spacingLeft=4;spacingRight=4;overflow=hidden;rotatable=0;points=[[0,0.5],[1,0.5]];portConstraint=eastwest;whiteSpace=wrap;html=1;" parent="gmeqmmIKyzfBdvNXJOLA-46" vertex="1">
          <mxGeometry y="78" width="140" height="26" as="geometry" />
        </mxCell>
        <mxCell id="gmeqmmIKyzfBdvNXJOLA-50" value="- nrc" style="text;strokeColor=none;fillColor=none;align=left;verticalAlign=top;spacingLeft=4;spacingRight=4;overflow=hidden;rotatable=0;points=[[0,0.5],[1,0.5]];portConstraint=eastwest;whiteSpace=wrap;html=1;" parent="gmeqmmIKyzfBdvNXJOLA-46" vertex="1">
          <mxGeometry y="104" width="140" height="26" as="geometry" />
        </mxCell>
        <mxCell id="gmeqmmIKyzfBdvNXJOLA-51" value="- email" style="text;strokeColor=none;fillColor=none;align=left;verticalAlign=top;spacingLeft=4;spacingRight=4;overflow=hidden;rotatable=0;points=[[0,0.5],[1,0.5]];portConstraint=eastwest;whiteSpace=wrap;html=1;" parent="gmeqmmIKyzfBdvNXJOLA-46" vertex="1">
          <mxGeometry y="130" width="140" height="26" as="geometry" />
        </mxCell>
        <mxCell id="gmeqmmIKyzfBdvNXJOLA-52" value="- phone_number" style="text;strokeColor=none;fillColor=none;align=left;verticalAlign=top;spacingLeft=4;spacingRight=4;overflow=hidden;rotatable=0;points=[[0,0.5],[1,0.5]];portConstraint=eastwest;whiteSpace=wrap;html=1;" parent="gmeqmmIKyzfBdvNXJOLA-46" vertex="1">
          <mxGeometry y="156" width="140" height="26" as="geometry" />
        </mxCell>
        <mxCell id="gmeqmmIKyzfBdvNXJOLA-53" value="- address" style="text;strokeColor=none;fillColor=none;align=left;verticalAlign=top;spacingLeft=4;spacingRight=4;overflow=hidden;rotatable=0;points=[[0,0.5],[1,0.5]];portConstraint=eastwest;whiteSpace=wrap;html=1;" parent="gmeqmmIKyzfBdvNXJOLA-46" vertex="1">
          <mxGeometry y="182" width="140" height="26" as="geometry" />
        </mxCell>
        <mxCell id="gmeqmmIKyzfBdvNXJOLA-54" value="- date_of_birth" style="text;strokeColor=none;fillColor=none;align=left;verticalAlign=top;spacingLeft=4;spacingRight=4;overflow=hidden;rotatable=0;points=[[0,0.5],[1,0.5]];portConstraint=eastwest;whiteSpace=wrap;html=1;" parent="gmeqmmIKyzfBdvNXJOLA-46" vertex="1">
          <mxGeometry y="208" width="140" height="26" as="geometry" />
        </mxCell>
        <mxCell id="gmeqmmIKyzfBdvNXJOLA-82" value="- confirmed_at" style="text;strokeColor=none;fillColor=none;align=left;verticalAlign=top;spacingLeft=4;spacingRight=4;overflow=hidden;rotatable=0;points=[[0,0.5],[1,0.5]];portConstraint=eastwest;whiteSpace=wrap;html=1;" parent="gmeqmmIKyzfBdvNXJOLA-46" vertex="1">
          <mxGeometry y="234" width="140" height="26" as="geometry" />
        </mxCell>
        <mxCell id="gmeqmmIKyzfBdvNXJOLA-55" value="- created_at" style="text;strokeColor=none;fillColor=none;align=left;verticalAlign=top;spacingLeft=4;spacingRight=4;overflow=hidden;rotatable=0;points=[[0,0.5],[1,0.5]];portConstraint=eastwest;whiteSpace=wrap;html=1;" parent="gmeqmmIKyzfBdvNXJOLA-46" vertex="1">
          <mxGeometry y="260" width="140" height="26" as="geometry" />
        </mxCell>
        <mxCell id="gmeqmmIKyzfBdvNXJOLA-56" value="- last_updated_at" style="text;strokeColor=none;fillColor=none;align=left;verticalAlign=top;spacingLeft=4;spacingRight=4;overflow=hidden;rotatable=0;points=[[0,0.5],[1,0.5]];portConstraint=eastwest;whiteSpace=wrap;html=1;" parent="gmeqmmIKyzfBdvNXJOLA-46" vertex="1">
          <mxGeometry y="286" width="140" height="26" as="geometry" />
        </mxCell>
        <mxCell id="gmeqmmIKyzfBdvNXJOLA-57" value="- created_by FK" style="text;strokeColor=#A50040;fillColor=#d80073;align=left;verticalAlign=top;spacingLeft=4;spacingRight=4;overflow=hidden;rotatable=0;points=[[0,0.5],[1,0.5]];portConstraint=eastwest;whiteSpace=wrap;html=1;fontColor=#ffffff;" parent="gmeqmmIKyzfBdvNXJOLA-46" vertex="1">
          <mxGeometry y="312" width="140" height="26" as="geometry" />
        </mxCell>
        <mxCell id="gmeqmmIKyzfBdvNXJOLA-58" value="- last_updated_by FK" style="text;strokeColor=#A50040;fillColor=#d80073;align=left;verticalAlign=top;spacingLeft=4;spacingRight=4;overflow=hidden;rotatable=0;points=[[0,0.5],[1,0.5]];portConstraint=eastwest;whiteSpace=wrap;html=1;fontColor=#ffffff;" parent="gmeqmmIKyzfBdvNXJOLA-46" vertex="1">
          <mxGeometry y="338" width="140" height="26" as="geometry" />
        </mxCell>
        <mxCell id="gmeqmmIKyzfBdvNXJOLA-59" value="" style="endArrow=none;html=1;rounded=0;entryX=0;entryY=0.5;entryDx=0;entryDy=0;exitX=0.5;exitY=0;exitDx=0;exitDy=0;" parent="1" source="gmeqmmIKyzfBdvNXJOLA-1" target="gmeqmmIKyzfBdvNXJOLA-3" edge="1">
          <mxGeometry width="50" height="50" relative="1" as="geometry">
            <mxPoint x="400" y="390" as="sourcePoint" />
            <mxPoint x="450" y="340" as="targetPoint" />
          </mxGeometry>
        </mxCell>
        <mxCell id="gmeqmmIKyzfBdvNXJOLA-60" value="1..*" style="edgeLabel;html=1;align=center;verticalAlign=middle;resizable=0;points=[];" parent="gmeqmmIKyzfBdvNXJOLA-59" vertex="1" connectable="0">
          <mxGeometry x="-0.8525" y="-1" relative="1" as="geometry">
            <mxPoint y="-1" as="offset" />
          </mxGeometry>
        </mxCell>
        <mxCell id="gmeqmmIKyzfBdvNXJOLA-61" value="1..2" style="edgeLabel;html=1;align=center;verticalAlign=middle;resizable=0;points=[];" parent="gmeqmmIKyzfBdvNXJOLA-59" vertex="1" connectable="0">
          <mxGeometry x="0.8175" y="1" relative="1" as="geometry">
            <mxPoint as="offset" />
          </mxGeometry>
        </mxCell>
        <mxCell id="gmeqmmIKyzfBdvNXJOLA-62" value="employee" style="swimlane;fontStyle=0;childLayout=stackLayout;horizontal=1;startSize=26;fillColor=none;horizontalStack=0;resizeParent=1;resizeParentMax=0;resizeLast=0;collapsible=1;marginBottom=0;whiteSpace=wrap;html=1;" parent="1" vertex="1">
          <mxGeometry x="355" y="770" width="140" height="286" as="geometry" />
        </mxCell>
        <mxCell id="gmeqmmIKyzfBdvNXJOLA-63" value="- id PK" style="text;strokeColor=#006EAF;fillColor=#1ba1e2;align=left;verticalAlign=top;spacingLeft=4;spacingRight=4;overflow=hidden;rotatable=0;points=[[0,0.5],[1,0.5]];portConstraint=eastwest;whiteSpace=wrap;html=1;fontColor=#ffffff;" parent="gmeqmmIKyzfBdvNXJOLA-62" vertex="1">
          <mxGeometry y="26" width="140" height="26" as="geometry" />
        </mxCell>
        <mxCell id="gmeqmmIKyzfBdvNXJOLA-64" value="- username" style="text;strokeColor=none;fillColor=none;align=left;verticalAlign=top;spacingLeft=4;spacingRight=4;overflow=hidden;rotatable=0;points=[[0,0.5],[1,0.5]];portConstraint=eastwest;whiteSpace=wrap;html=1;" parent="gmeqmmIKyzfBdvNXJOLA-62" vertex="1">
          <mxGeometry y="52" width="140" height="26" as="geometry" />
        </mxCell>
        <mxCell id="gmeqmmIKyzfBdvNXJOLA-65" value="- email" style="text;strokeColor=none;fillColor=none;align=left;verticalAlign=top;spacingLeft=4;spacingRight=4;overflow=hidden;rotatable=0;points=[[0,0.5],[1,0.5]];portConstraint=eastwest;whiteSpace=wrap;html=1;" parent="gmeqmmIKyzfBdvNXJOLA-62" vertex="1">
          <mxGeometry y="78" width="140" height="26" as="geometry" />
        </mxCell>
        <mxCell id="gmeqmmIKyzfBdvNXJOLA-81" value="- password" style="text;strokeColor=none;fillColor=none;align=left;verticalAlign=top;spacingLeft=4;spacingRight=4;overflow=hidden;rotatable=0;points=[[0,0.5],[1,0.5]];portConstraint=eastwest;whiteSpace=wrap;html=1;" parent="gmeqmmIKyzfBdvNXJOLA-62" vertex="1">
          <mxGeometry y="104" width="140" height="26" as="geometry" />
        </mxCell>
        <mxCell id="gmeqmmIKyzfBdvNXJOLA-66" value="- phone_number" style="text;strokeColor=none;fillColor=none;align=left;verticalAlign=top;spacingLeft=4;spacingRight=4;overflow=hidden;rotatable=0;points=[[0,0.5],[1,0.5]];portConstraint=eastwest;whiteSpace=wrap;html=1;" parent="gmeqmmIKyzfBdvNXJOLA-62" vertex="1">
          <mxGeometry y="130" width="140" height="26" as="geometry" />
        </mxCell>
        <mxCell id="gmeqmmIKyzfBdvNXJOLA-83" value="- confrimed_at" style="text;strokeColor=none;fillColor=none;align=left;verticalAlign=top;spacingLeft=4;spacingRight=4;overflow=hidden;rotatable=0;points=[[0,0.5],[1,0.5]];portConstraint=eastwest;whiteSpace=wrap;html=1;" parent="gmeqmmIKyzfBdvNXJOLA-62" vertex="1">
          <mxGeometry y="156" width="140" height="26" as="geometry" />
        </mxCell>
        <mxCell id="gmeqmmIKyzfBdvNXJOLA-67" value="- department" style="text;strokeColor=none;fillColor=none;align=left;verticalAlign=top;spacingLeft=4;spacingRight=4;overflow=hidden;rotatable=0;points=[[0,0.5],[1,0.5]];portConstraint=eastwest;whiteSpace=wrap;html=1;" parent="gmeqmmIKyzfBdvNXJOLA-62" vertex="1">
          <mxGeometry y="182" width="140" height="26" as="geometry" />
        </mxCell>
        <mxCell id="gmeqmmIKyzfBdvNXJOLA-68" value="- position" style="text;strokeColor=none;fillColor=none;align=left;verticalAlign=top;spacingLeft=4;spacingRight=4;overflow=hidden;rotatable=0;points=[[0,0.5],[1,0.5]];portConstraint=eastwest;whiteSpace=wrap;html=1;" parent="gmeqmmIKyzfBdvNXJOLA-62" vertex="1">
          <mxGeometry y="208" width="140" height="26" as="geometry" />
        </mxCell>
        <mxCell id="gmeqmmIKyzfBdvNXJOLA-89" value="- branch_id FK" style="text;strokeColor=#A50040;fillColor=#d80073;align=left;verticalAlign=top;spacingLeft=4;spacingRight=4;overflow=hidden;rotatable=0;points=[[0,0.5],[1,0.5]];portConstraint=eastwest;whiteSpace=wrap;html=1;fontColor=#ffffff;" parent="gmeqmmIKyzfBdvNXJOLA-62" vertex="1">
          <mxGeometry y="234" width="140" height="26" as="geometry" />
        </mxCell>
        <mxCell id="gmeqmmIKyzfBdvNXJOLA-69" value="- users_role_id FK" style="text;strokeColor=#A50040;fillColor=#d80073;align=left;verticalAlign=top;spacingLeft=4;spacingRight=4;overflow=hidden;rotatable=0;points=[[0,0.5],[1,0.5]];portConstraint=eastwest;whiteSpace=wrap;html=1;fontColor=#ffffff;" parent="gmeqmmIKyzfBdvNXJOLA-62" vertex="1">
          <mxGeometry y="260" width="140" height="26" as="geometry" />
        </mxCell>
        <mxCell id="gmeqmmIKyzfBdvNXJOLA-70" value="users_role" style="swimlane;fontStyle=0;childLayout=stackLayout;horizontal=1;startSize=26;fillColor=none;horizontalStack=0;resizeParent=1;resizeParentMax=0;resizeLast=0;collapsible=1;marginBottom=0;whiteSpace=wrap;html=1;" parent="1" vertex="1">
          <mxGeometry x="620" y="900" width="140" height="104" as="geometry" />
        </mxCell>
        <mxCell id="gmeqmmIKyzfBdvNXJOLA-71" value="&amp;nbsp;- id PK" style="text;strokeColor=#006EAF;fillColor=#1ba1e2;align=left;verticalAlign=top;spacingLeft=4;spacingRight=4;overflow=hidden;rotatable=0;points=[[0,0.5],[1,0.5]];portConstraint=eastwest;whiteSpace=wrap;html=1;fontColor=#ffffff;" parent="gmeqmmIKyzfBdvNXJOLA-70" vertex="1">
          <mxGeometry y="26" width="140" height="26" as="geometry" />
        </mxCell>
        <mxCell id="gmeqmmIKyzfBdvNXJOLA-72" value="- name" style="text;strokeColor=none;fillColor=none;align=left;verticalAlign=top;spacingLeft=4;spacingRight=4;overflow=hidden;rotatable=0;points=[[0,0.5],[1,0.5]];portConstraint=eastwest;whiteSpace=wrap;html=1;" parent="gmeqmmIKyzfBdvNXJOLA-70" vertex="1">
          <mxGeometry y="52" width="140" height="26" as="geometry" />
        </mxCell>
        <mxCell id="gmeqmmIKyzfBdvNXJOLA-73" value="- description" style="text;strokeColor=none;fillColor=none;align=left;verticalAlign=top;spacingLeft=4;spacingRight=4;overflow=hidden;rotatable=0;points=[[0,0.5],[1,0.5]];portConstraint=eastwest;whiteSpace=wrap;html=1;" parent="gmeqmmIKyzfBdvNXJOLA-70" vertex="1">
          <mxGeometry y="78" width="140" height="26" as="geometry" />
        </mxCell>
        <mxCell id="gmeqmmIKyzfBdvNXJOLA-74" value="users_role" style="rounded=0;whiteSpace=wrap;html=1;" parent="1" vertex="1">
          <mxGeometry x="280" y="160" width="120" height="60" as="geometry" />
        </mxCell>
        <mxCell id="gmeqmmIKyzfBdvNXJOLA-75" value="" style="endArrow=none;html=1;rounded=0;entryX=1;entryY=0.5;entryDx=0;entryDy=0;" parent="1" target="gmeqmmIKyzfBdvNXJOLA-74" edge="1">
          <mxGeometry width="50" height="50" relative="1" as="geometry">
            <mxPoint x="570" y="220" as="sourcePoint" />
            <mxPoint x="450" y="350" as="targetPoint" />
          </mxGeometry>
        </mxCell>
        <mxCell id="gmeqmmIKyzfBdvNXJOLA-76" value="1..1" style="edgeLabel;html=1;align=center;verticalAlign=middle;resizable=0;points=[];" parent="gmeqmmIKyzfBdvNXJOLA-75" vertex="1" connectable="0">
          <mxGeometry x="0.8251" y="1" relative="1" as="geometry">
            <mxPoint as="offset" />
          </mxGeometry>
        </mxCell>
        <mxCell id="gmeqmmIKyzfBdvNXJOLA-77" value="1..*" style="edgeLabel;html=1;align=center;verticalAlign=middle;resizable=0;points=[];" parent="gmeqmmIKyzfBdvNXJOLA-75" vertex="1" connectable="0">
          <mxGeometry x="-0.5768" y="-2" relative="1" as="geometry">
            <mxPoint as="offset" />
          </mxGeometry>
        </mxCell>
        <mxCell id="gmeqmmIKyzfBdvNXJOLA-78" value="" style="edgeStyle=entityRelationEdgeStyle;fontSize=12;html=1;endArrow=ERoneToMany;startArrow=ERmandOne;rounded=0;" parent="1" source="gmeqmmIKyzfBdvNXJOLA-71" target="gmeqmmIKyzfBdvNXJOLA-69" edge="1">
          <mxGeometry width="100" height="100" relative="1" as="geometry">
            <mxPoint x="370" y="980" as="sourcePoint" />
            <mxPoint x="470" y="880" as="targetPoint" />
          </mxGeometry>
        </mxCell>
        <mxCell id="gmeqmmIKyzfBdvNXJOLA-79" value="" style="edgeStyle=entityRelationEdgeStyle;fontSize=12;html=1;endArrow=ERoneToMany;startArrow=ERmandOne;rounded=0;exitX=0;exitY=0.5;exitDx=0;exitDy=0;entryX=1;entryY=0.5;entryDx=0;entryDy=0;" parent="1" source="gmeqmmIKyzfBdvNXJOLA-63" target="gmeqmmIKyzfBdvNXJOLA-57" edge="1">
          <mxGeometry width="100" height="100" relative="1" as="geometry">
            <mxPoint x="620" y="849" as="sourcePoint" />
            <mxPoint x="505" y="975" as="targetPoint" />
          </mxGeometry>
        </mxCell>
        <mxCell id="gmeqmmIKyzfBdvNXJOLA-80" value="" style="edgeStyle=entityRelationEdgeStyle;fontSize=12;html=1;endArrow=ERoneToMany;startArrow=ERmandOne;rounded=0;exitX=0;exitY=0.5;exitDx=0;exitDy=0;entryX=1;entryY=0.5;entryDx=0;entryDy=0;" parent="1" source="gmeqmmIKyzfBdvNXJOLA-63" target="gmeqmmIKyzfBdvNXJOLA-58" edge="1">
          <mxGeometry width="100" height="100" relative="1" as="geometry">
            <mxPoint x="365" y="819" as="sourcePoint" />
            <mxPoint x="230" y="1071" as="targetPoint" />
          </mxGeometry>
        </mxCell>
        <mxCell id="gmeqmmIKyzfBdvNXJOLA-84" value="branches" style="swimlane;fontStyle=0;childLayout=stackLayout;horizontal=1;startSize=26;fillColor=none;horizontalStack=0;resizeParent=1;resizeParentMax=0;resizeLast=0;collapsible=1;marginBottom=0;whiteSpace=wrap;html=1;" parent="1" vertex="1">
          <mxGeometry x="620" y="750" width="140" height="130" as="geometry" />
        </mxCell>
        <mxCell id="gmeqmmIKyzfBdvNXJOLA-85" value="- id PK" style="text;strokeColor=#006EAF;fillColor=#1ba1e2;align=left;verticalAlign=top;spacingLeft=4;spacingRight=4;overflow=hidden;rotatable=0;points=[[0,0.5],[1,0.5]];portConstraint=eastwest;whiteSpace=wrap;html=1;fontColor=#ffffff;" parent="gmeqmmIKyzfBdvNXJOLA-84" vertex="1">
          <mxGeometry y="26" width="140" height="26" as="geometry" />
        </mxCell>
        <mxCell id="gmeqmmIKyzfBdvNXJOLA-86" value="- name" style="text;strokeColor=none;fillColor=none;align=left;verticalAlign=top;spacingLeft=4;spacingRight=4;overflow=hidden;rotatable=0;points=[[0,0.5],[1,0.5]];portConstraint=eastwest;whiteSpace=wrap;html=1;" parent="gmeqmmIKyzfBdvNXJOLA-84" vertex="1">
          <mxGeometry y="52" width="140" height="26" as="geometry" />
        </mxCell>
        <mxCell id="gmeqmmIKyzfBdvNXJOLA-87" value="- address" style="text;strokeColor=none;fillColor=none;align=left;verticalAlign=top;spacingLeft=4;spacingRight=4;overflow=hidden;rotatable=0;points=[[0,0.5],[1,0.5]];portConstraint=eastwest;whiteSpace=wrap;html=1;" parent="gmeqmmIKyzfBdvNXJOLA-84" vertex="1">
          <mxGeometry y="78" width="140" height="26" as="geometry" />
        </mxCell>
        <mxCell id="gmeqmmIKyzfBdvNXJOLA-88" value="- phone_number" style="text;strokeColor=none;fillColor=none;align=left;verticalAlign=top;spacingLeft=4;spacingRight=4;overflow=hidden;rotatable=0;points=[[0,0.5],[1,0.5]];portConstraint=eastwest;whiteSpace=wrap;html=1;" parent="gmeqmmIKyzfBdvNXJOLA-84" vertex="1">
          <mxGeometry y="104" width="140" height="26" as="geometry" />
        </mxCell>
        <mxCell id="gmeqmmIKyzfBdvNXJOLA-90" value="" style="edgeStyle=entityRelationEdgeStyle;fontSize=12;html=1;endArrow=ERoneToMany;startArrow=ERmandOne;rounded=0;exitX=0;exitY=0.5;exitDx=0;exitDy=0;entryX=1;entryY=0.5;entryDx=0;entryDy=0;" parent="1" source="gmeqmmIKyzfBdvNXJOLA-85" target="gmeqmmIKyzfBdvNXJOLA-89" edge="1">
          <mxGeometry width="100" height="100" relative="1" as="geometry">
            <mxPoint x="630" y="969" as="sourcePoint" />
            <mxPoint x="505" y="1053" as="targetPoint" />
          </mxGeometry>
        </mxCell>
        <mxCell id="gmeqmmIKyzfBdvNXJOLA-91" value="loans" style="swimlane;fontStyle=0;childLayout=stackLayout;horizontal=1;startSize=26;fillColor=none;horizontalStack=0;resizeParent=1;resizeParentMax=0;resizeLast=0;collapsible=1;marginBottom=0;whiteSpace=wrap;html=1;" parent="1" vertex="1">
          <mxGeometry x="-220" y="762" width="140" height="208" as="geometry" />
        </mxCell>
        <mxCell id="gmeqmmIKyzfBdvNXJOLA-92" value="- id PK" style="text;strokeColor=#A50040;fillColor=#d80073;align=left;verticalAlign=top;spacingLeft=4;spacingRight=4;overflow=hidden;rotatable=0;points=[[0,0.5],[1,0.5]];portConstraint=eastwest;whiteSpace=wrap;html=1;fontColor=#ffffff;" parent="gmeqmmIKyzfBdvNXJOLA-91" vertex="1">
          <mxGeometry y="26" width="140" height="26" as="geometry" />
        </mxCell>
        <mxCell id="gmeqmmIKyzfBdvNXJOLA-93" value="- loan_type" style="text;strokeColor=none;fillColor=none;align=left;verticalAlign=top;spacingLeft=4;spacingRight=4;overflow=hidden;rotatable=0;points=[[0,0.5],[1,0.5]];portConstraint=eastwest;whiteSpace=wrap;html=1;" parent="gmeqmmIKyzfBdvNXJOLA-91" vertex="1">
          <mxGeometry y="52" width="140" height="26" as="geometry" />
        </mxCell>
        <mxCell id="gmeqmmIKyzfBdvNXJOLA-94" value="- loan_amount" style="text;strokeColor=none;fillColor=none;align=left;verticalAlign=top;spacingLeft=4;spacingRight=4;overflow=hidden;rotatable=0;points=[[0,0.5],[1,0.5]];portConstraint=eastwest;whiteSpace=wrap;html=1;" parent="gmeqmmIKyzfBdvNXJOLA-91" vertex="1">
          <mxGeometry y="78" width="140" height="26" as="geometry" />
        </mxCell>
        <mxCell id="gmeqmmIKyzfBdvNXJOLA-95" value="- interest_rate" style="text;strokeColor=none;fillColor=none;align=left;verticalAlign=top;spacingLeft=4;spacingRight=4;overflow=hidden;rotatable=0;points=[[0,0.5],[1,0.5]];portConstraint=eastwest;whiteSpace=wrap;html=1;" parent="gmeqmmIKyzfBdvNXJOLA-91" vertex="1">
          <mxGeometry y="104" width="140" height="26" as="geometry" />
        </mxCell>
        <mxCell id="gmeqmmIKyzfBdvNXJOLA-96" value="- loan_start_date" style="text;strokeColor=none;fillColor=none;align=left;verticalAlign=top;spacingLeft=4;spacingRight=4;overflow=hidden;rotatable=0;points=[[0,0.5],[1,0.5]];portConstraint=eastwest;whiteSpace=wrap;html=1;" parent="gmeqmmIKyzfBdvNXJOLA-91" vertex="1">
          <mxGeometry y="130" width="140" height="26" as="geometry" />
        </mxCell>
        <mxCell id="gmeqmmIKyzfBdvNXJOLA-97" value="- loan_end_date" style="text;strokeColor=none;fillColor=none;align=left;verticalAlign=top;spacingLeft=4;spacingRight=4;overflow=hidden;rotatable=0;points=[[0,0.5],[1,0.5]];portConstraint=eastwest;whiteSpace=wrap;html=1;" parent="gmeqmmIKyzfBdvNXJOLA-91" vertex="1">
          <mxGeometry y="156" width="140" height="26" as="geometry" />
        </mxCell>
        <mxCell id="gmeqmmIKyzfBdvNXJOLA-98" value="- customer_id FK" style="text;strokeColor=#006EAF;fillColor=#1ba1e2;align=left;verticalAlign=top;spacingLeft=4;spacingRight=4;overflow=hidden;rotatable=0;points=[[0,0.5],[1,0.5]];portConstraint=eastwest;whiteSpace=wrap;html=1;fontColor=#ffffff;" parent="gmeqmmIKyzfBdvNXJOLA-91" vertex="1">
          <mxGeometry y="182" width="140" height="26" as="geometry" />
        </mxCell>
        <mxCell id="gmeqmmIKyzfBdvNXJOLA-99" value="" style="edgeStyle=entityRelationEdgeStyle;fontSize=12;html=1;endArrow=ERoneToMany;startArrow=ERmandOne;rounded=0;entryX=1;entryY=0.5;entryDx=0;entryDy=0;" parent="1" source="gmeqmmIKyzfBdvNXJOLA-47" target="gmeqmmIKyzfBdvNXJOLA-98" edge="1">
          <mxGeometry width="100" height="100" relative="1" as="geometry">
            <mxPoint x="60" y="770" as="sourcePoint" />
            <mxPoint x="160" y="670" as="targetPoint" />
          </mxGeometry>
        </mxCell>
        <mxCell id="gmeqmmIKyzfBdvNXJOLA-100" value="Account" style="swimlane;fontStyle=0;childLayout=stackLayout;horizontal=1;startSize=26;fillColor=none;horizontalStack=0;resizeParent=1;resizeParentMax=0;resizeLast=0;collapsible=1;marginBottom=0;whiteSpace=wrap;html=1;" parent="1" vertex="1">
          <mxGeometry x="50" y="1160" width="140" height="286" as="geometry" />
        </mxCell>
        <mxCell id="gmeqmmIKyzfBdvNXJOLA-101" value="- id PK" style="text;strokeColor=#006EAF;fillColor=#1ba1e2;align=left;verticalAlign=top;spacingLeft=4;spacingRight=4;overflow=hidden;rotatable=0;points=[[0,0.5],[1,0.5]];portConstraint=eastwest;whiteSpace=wrap;html=1;fontColor=#ffffff;" parent="gmeqmmIKyzfBdvNXJOLA-100" vertex="1">
          <mxGeometry y="26" width="140" height="26" as="geometry" />
        </mxCell>
        <mxCell id="gmeqmmIKyzfBdvNXJOLA-102" value="- account_number" style="text;strokeColor=none;fillColor=none;align=left;verticalAlign=top;spacingLeft=4;spacingRight=4;overflow=hidden;rotatable=0;points=[[0,0.5],[1,0.5]];portConstraint=eastwest;whiteSpace=wrap;html=1;" parent="gmeqmmIKyzfBdvNXJOLA-100" vertex="1">
          <mxGeometry y="52" width="140" height="26" as="geometry" />
        </mxCell>
        <mxCell id="gmeqmmIKyzfBdvNXJOLA-103" value="- account_type" style="text;strokeColor=none;fillColor=none;align=left;verticalAlign=top;spacingLeft=4;spacingRight=4;overflow=hidden;rotatable=0;points=[[0,0.5],[1,0.5]];portConstraint=eastwest;whiteSpace=wrap;html=1;" parent="gmeqmmIKyzfBdvNXJOLA-100" vertex="1">
          <mxGeometry y="78" width="140" height="26" as="geometry" />
        </mxCell>
        <mxCell id="gmeqmmIKyzfBdvNXJOLA-104" value="- balance" style="text;strokeColor=none;fillColor=none;align=left;verticalAlign=top;spacingLeft=4;spacingRight=4;overflow=hidden;rotatable=0;points=[[0,0.5],[1,0.5]];portConstraint=eastwest;whiteSpace=wrap;html=1;" parent="gmeqmmIKyzfBdvNXJOLA-100" vertex="1">
          <mxGeometry y="104" width="140" height="26" as="geometry" />
        </mxCell>
        <mxCell id="gmeqmmIKyzfBdvNXJOLA-109" value="- currency_type" style="text;strokeColor=none;fillColor=none;align=left;verticalAlign=top;spacingLeft=4;spacingRight=4;overflow=hidden;rotatable=0;points=[[0,0.5],[1,0.5]];portConstraint=eastwest;whiteSpace=wrap;html=1;" parent="gmeqmmIKyzfBdvNXJOLA-100" vertex="1">
          <mxGeometry y="130" width="140" height="26" as="geometry" />
        </mxCell>
        <mxCell id="gmeqmmIKyzfBdvNXJOLA-119" value="- status" style="text;strokeColor=none;fillColor=none;align=left;verticalAlign=top;spacingLeft=4;spacingRight=4;overflow=hidden;rotatable=0;points=[[0,0.5],[1,0.5]];portConstraint=eastwest;whiteSpace=wrap;html=1;" parent="gmeqmmIKyzfBdvNXJOLA-100" vertex="1">
          <mxGeometry y="156" width="140" height="26" as="geometry" />
        </mxCell>
        <mxCell id="gmeqmmIKyzfBdvNXJOLA-105" value="- created_at" style="text;strokeColor=none;fillColor=none;align=left;verticalAlign=top;spacingLeft=4;spacingRight=4;overflow=hidden;rotatable=0;points=[[0,0.5],[1,0.5]];portConstraint=eastwest;whiteSpace=wrap;html=1;" parent="gmeqmmIKyzfBdvNXJOLA-100" vertex="1">
          <mxGeometry y="182" width="140" height="26" as="geometry" />
        </mxCell>
        <mxCell id="gmeqmmIKyzfBdvNXJOLA-106" value="- updated_at" style="text;strokeColor=none;fillColor=none;align=left;verticalAlign=top;spacingLeft=4;spacingRight=4;overflow=hidden;rotatable=0;points=[[0,0.5],[1,0.5]];portConstraint=eastwest;whiteSpace=wrap;html=1;" parent="gmeqmmIKyzfBdvNXJOLA-100" vertex="1">
          <mxGeometry y="208" width="140" height="26" as="geometry" />
        </mxCell>
        <mxCell id="gmeqmmIKyzfBdvNXJOLA-107" value="- created_by FK" style="text;strokeColor=#A50040;fillColor=#d80073;align=left;verticalAlign=top;spacingLeft=4;spacingRight=4;overflow=hidden;rotatable=0;points=[[0,0.5],[1,0.5]];portConstraint=eastwest;whiteSpace=wrap;html=1;fontColor=#ffffff;" parent="gmeqmmIKyzfBdvNXJOLA-100" vertex="1">
          <mxGeometry y="234" width="140" height="26" as="geometry" />
        </mxCell>
        <mxCell id="gmeqmmIKyzfBdvNXJOLA-108" value="- updated_by FK" style="text;strokeColor=#A50040;fillColor=#d80073;align=left;verticalAlign=top;spacingLeft=4;spacingRight=4;overflow=hidden;rotatable=0;points=[[0,0.5],[1,0.5]];portConstraint=eastwest;whiteSpace=wrap;html=1;fontColor=#ffffff;" parent="gmeqmmIKyzfBdvNXJOLA-100" vertex="1">
          <mxGeometry y="260" width="140" height="26" as="geometry" />
        </mxCell>
        <mxCell id="gmeqmmIKyzfBdvNXJOLA-111" value="" style="edgeStyle=entityRelationEdgeStyle;fontSize=12;html=1;endArrow=ERoneToMany;startArrow=ERmandOne;rounded=0;exitX=0;exitY=0.5;exitDx=0;exitDy=0;entryX=1;entryY=0.5;entryDx=0;entryDy=0;" parent="1" source="gmeqmmIKyzfBdvNXJOLA-63" target="gmeqmmIKyzfBdvNXJOLA-107" edge="1">
          <mxGeometry width="100" height="100" relative="1" as="geometry">
            <mxPoint x="365" y="819" as="sourcePoint" />
            <mxPoint x="200" y="1097" as="targetPoint" />
          </mxGeometry>
        </mxCell>
        <mxCell id="gmeqmmIKyzfBdvNXJOLA-112" value="" style="edgeStyle=entityRelationEdgeStyle;fontSize=12;html=1;endArrow=ERoneToMany;startArrow=ERmandOne;rounded=0;exitX=0;exitY=0.5;exitDx=0;exitDy=0;entryX=1;entryY=0.5;entryDx=0;entryDy=0;" parent="1" source="gmeqmmIKyzfBdvNXJOLA-63" target="gmeqmmIKyzfBdvNXJOLA-108" edge="1">
          <mxGeometry width="100" height="100" relative="1" as="geometry">
            <mxPoint x="365" y="819" as="sourcePoint" />
            <mxPoint x="200" y="1391" as="targetPoint" />
          </mxGeometry>
        </mxCell>
        <mxCell id="gmeqmmIKyzfBdvNXJOLA-113" value="Card" style="swimlane;fontStyle=0;childLayout=stackLayout;horizontal=1;startSize=26;fillColor=none;horizontalStack=0;resizeParent=1;resizeParentMax=0;resizeLast=0;collapsible=1;marginBottom=0;whiteSpace=wrap;html=1;" parent="1" vertex="1">
          <mxGeometry x="-210" y="1231" width="140" height="182" as="geometry" />
        </mxCell>
        <mxCell id="gmeqmmIKyzfBdvNXJOLA-114" value="- id PK" style="text;strokeColor=#006EAF;fillColor=#1ba1e2;align=left;verticalAlign=top;spacingLeft=4;spacingRight=4;overflow=hidden;rotatable=0;points=[[0,0.5],[1,0.5]];portConstraint=eastwest;whiteSpace=wrap;html=1;fontColor=#ffffff;" parent="gmeqmmIKyzfBdvNXJOLA-113" vertex="1">
          <mxGeometry y="26" width="140" height="26" as="geometry" />
        </mxCell>
        <mxCell id="gmeqmmIKyzfBdvNXJOLA-115" value="- number" style="text;strokeColor=none;fillColor=none;align=left;verticalAlign=top;spacingLeft=4;spacingRight=4;overflow=hidden;rotatable=0;points=[[0,0.5],[1,0.5]];portConstraint=eastwest;whiteSpace=wrap;html=1;" parent="gmeqmmIKyzfBdvNXJOLA-113" vertex="1">
          <mxGeometry y="52" width="140" height="26" as="geometry" />
        </mxCell>
        <mxCell id="gmeqmmIKyzfBdvNXJOLA-116" value="- card_type" style="text;strokeColor=none;fillColor=none;align=left;verticalAlign=top;spacingLeft=4;spacingRight=4;overflow=hidden;rotatable=0;points=[[0,0.5],[1,0.5]];portConstraint=eastwest;whiteSpace=wrap;html=1;" parent="gmeqmmIKyzfBdvNXJOLA-113" vertex="1">
          <mxGeometry y="78" width="140" height="26" as="geometry" />
        </mxCell>
        <mxCell id="gmeqmmIKyzfBdvNXJOLA-117" value="- expire_date" style="text;strokeColor=none;fillColor=none;align=left;verticalAlign=top;spacingLeft=4;spacingRight=4;overflow=hidden;rotatable=0;points=[[0,0.5],[1,0.5]];portConstraint=eastwest;whiteSpace=wrap;html=1;" parent="gmeqmmIKyzfBdvNXJOLA-113" vertex="1">
          <mxGeometry y="104" width="140" height="26" as="geometry" />
        </mxCell>
        <mxCell id="gmeqmmIKyzfBdvNXJOLA-118" value="- security_code" style="text;strokeColor=none;fillColor=none;align=left;verticalAlign=top;spacingLeft=4;spacingRight=4;overflow=hidden;rotatable=0;points=[[0,0.5],[1,0.5]];portConstraint=eastwest;whiteSpace=wrap;html=1;" parent="gmeqmmIKyzfBdvNXJOLA-113" vertex="1">
          <mxGeometry y="130" width="140" height="26" as="geometry" />
        </mxCell>
        <mxCell id="gmeqmmIKyzfBdvNXJOLA-120" value="- account_id FK" style="text;strokeColor=#A50040;fillColor=#d80073;align=left;verticalAlign=top;spacingLeft=4;spacingRight=4;overflow=hidden;rotatable=0;points=[[0,0.5],[1,0.5]];portConstraint=eastwest;whiteSpace=wrap;html=1;fontColor=#ffffff;" parent="gmeqmmIKyzfBdvNXJOLA-113" vertex="1">
          <mxGeometry y="156" width="140" height="26" as="geometry" />
        </mxCell>
        <mxCell id="gmeqmmIKyzfBdvNXJOLA-122" value="" style="edgeStyle=entityRelationEdgeStyle;fontSize=12;html=1;endArrow=ERoneToMany;startArrow=ERmandOne;rounded=0;exitX=0;exitY=0.5;exitDx=0;exitDy=0;entryX=1.003;entryY=0.721;entryDx=0;entryDy=0;entryPerimeter=0;" parent="1" source="gmeqmmIKyzfBdvNXJOLA-101" target="gmeqmmIKyzfBdvNXJOLA-120" edge="1">
          <mxGeometry width="100" height="100" relative="1" as="geometry">
            <mxPoint x="-25" y="1206" as="sourcePoint" />
            <mxPoint x="-190" y="1510" as="targetPoint" />
          </mxGeometry>
        </mxCell>
        <mxCell id="gmeqmmIKyzfBdvNXJOLA-123" value="CardTransaction" style="swimlane;fontStyle=0;childLayout=stackLayout;horizontal=1;startSize=26;fillColor=none;horizontalStack=0;resizeParent=1;resizeParentMax=0;resizeLast=0;collapsible=1;marginBottom=0;whiteSpace=wrap;html=1;" parent="1" vertex="1">
          <mxGeometry x="-540" y="1030" width="140" height="208" as="geometry" />
        </mxCell>
        <mxCell id="gmeqmmIKyzfBdvNXJOLA-124" value="- id PK" style="text;strokeColor=#006EAF;fillColor=#1ba1e2;align=left;verticalAlign=top;spacingLeft=4;spacingRight=4;overflow=hidden;rotatable=0;points=[[0,0.5],[1,0.5]];portConstraint=eastwest;whiteSpace=wrap;html=1;fontColor=#ffffff;" parent="gmeqmmIKyzfBdvNXJOLA-123" vertex="1">
          <mxGeometry y="26" width="140" height="26" as="geometry" />
        </mxCell>
        <mxCell id="gmeqmmIKyzfBdvNXJOLA-125" value="- transcation_type" style="text;strokeColor=none;fillColor=none;align=left;verticalAlign=top;spacingLeft=4;spacingRight=4;overflow=hidden;rotatable=0;points=[[0,0.5],[1,0.5]];portConstraint=eastwest;whiteSpace=wrap;html=1;" parent="gmeqmmIKyzfBdvNXJOLA-123" vertex="1">
          <mxGeometry y="52" width="140" height="26" as="geometry" />
        </mxCell>
        <mxCell id="gmeqmmIKyzfBdvNXJOLA-151" value="- amount&amp;nbsp;" style="text;strokeColor=none;fillColor=none;align=left;verticalAlign=top;spacingLeft=4;spacingRight=4;overflow=hidden;rotatable=0;points=[[0,0.5],[1,0.5]];portConstraint=eastwest;whiteSpace=wrap;html=1;" parent="gmeqmmIKyzfBdvNXJOLA-123" vertex="1">
          <mxGeometry y="78" width="140" height="26" as="geometry" />
        </mxCell>
        <mxCell id="gmeqmmIKyzfBdvNXJOLA-149" value="- transaction_date" style="text;strokeColor=none;fillColor=none;align=left;verticalAlign=top;spacingLeft=4;spacingRight=4;overflow=hidden;rotatable=0;points=[[0,0.5],[1,0.5]];portConstraint=eastwest;whiteSpace=wrap;html=1;" parent="gmeqmmIKyzfBdvNXJOLA-123" vertex="1">
          <mxGeometry y="104" width="140" height="26" as="geometry" />
        </mxCell>
        <mxCell id="gmeqmmIKyzfBdvNXJOLA-126" value="- description" style="text;strokeColor=none;fillColor=none;align=left;verticalAlign=top;spacingLeft=4;spacingRight=4;overflow=hidden;rotatable=0;points=[[0,0.5],[1,0.5]];portConstraint=eastwest;whiteSpace=wrap;html=1;" parent="gmeqmmIKyzfBdvNXJOLA-123" vertex="1">
          <mxGeometry y="130" width="140" height="26" as="geometry" />
        </mxCell>
        <mxCell id="gmeqmmIKyzfBdvNXJOLA-144" value="- account_id FK" style="text;strokeColor=#A50040;fillColor=#d80073;align=left;verticalAlign=top;spacingLeft=4;spacingRight=4;overflow=hidden;rotatable=0;points=[[0,0.5],[1,0.5]];portConstraint=eastwest;whiteSpace=wrap;html=1;fontColor=#ffffff;" parent="gmeqmmIKyzfBdvNXJOLA-123" vertex="1">
          <mxGeometry y="156" width="140" height="26" as="geometry" />
        </mxCell>
        <mxCell id="gmeqmmIKyzfBdvNXJOLA-145" value="- card_id FK" style="text;strokeColor=#A50040;fillColor=#d80073;align=left;verticalAlign=top;spacingLeft=4;spacingRight=4;overflow=hidden;rotatable=0;points=[[0,0.5],[1,0.5]];portConstraint=eastwest;whiteSpace=wrap;html=1;fontColor=#ffffff;" parent="gmeqmmIKyzfBdvNXJOLA-123" vertex="1">
          <mxGeometry y="182" width="140" height="26" as="geometry" />
        </mxCell>
        <mxCell id="gmeqmmIKyzfBdvNXJOLA-139" value="DailyExchageRate" style="swimlane;fontStyle=0;childLayout=stackLayout;horizontal=1;startSize=26;fillColor=none;horizontalStack=0;resizeParent=1;resizeParentMax=0;resizeLast=0;collapsible=1;marginBottom=0;whiteSpace=wrap;html=1;" parent="1" vertex="1">
          <mxGeometry x="-550" y="790" width="140" height="130" as="geometry" />
        </mxCell>
        <mxCell id="gmeqmmIKyzfBdvNXJOLA-140" value="- id" style="text;strokeColor=none;fillColor=none;align=left;verticalAlign=top;spacingLeft=4;spacingRight=4;overflow=hidden;rotatable=0;points=[[0,0.5],[1,0.5]];portConstraint=eastwest;whiteSpace=wrap;html=1;" parent="gmeqmmIKyzfBdvNXJOLA-139" vertex="1">
          <mxGeometry y="26" width="140" height="26" as="geometry" />
        </mxCell>
        <mxCell id="gmeqmmIKyzfBdvNXJOLA-141" value="- exchange_rate" style="text;strokeColor=none;fillColor=none;align=left;verticalAlign=top;spacingLeft=4;spacingRight=4;overflow=hidden;rotatable=0;points=[[0,0.5],[1,0.5]];portConstraint=eastwest;whiteSpace=wrap;html=1;" parent="gmeqmmIKyzfBdvNXJOLA-139" vertex="1">
          <mxGeometry y="52" width="140" height="26" as="geometry" />
        </mxCell>
        <mxCell id="gmeqmmIKyzfBdvNXJOLA-142" value="- currency" style="text;strokeColor=none;fillColor=none;align=left;verticalAlign=top;spacingLeft=4;spacingRight=4;overflow=hidden;rotatable=0;points=[[0,0.5],[1,0.5]];portConstraint=eastwest;whiteSpace=wrap;html=1;" parent="gmeqmmIKyzfBdvNXJOLA-139" vertex="1">
          <mxGeometry y="78" width="140" height="26" as="geometry" />
        </mxCell>
        <mxCell id="gmeqmmIKyzfBdvNXJOLA-143" value="- created_at" style="text;strokeColor=none;fillColor=none;align=left;verticalAlign=top;spacingLeft=4;spacingRight=4;overflow=hidden;rotatable=0;points=[[0,0.5],[1,0.5]];portConstraint=eastwest;whiteSpace=wrap;html=1;" parent="gmeqmmIKyzfBdvNXJOLA-139" vertex="1">
          <mxGeometry y="104" width="140" height="26" as="geometry" />
        </mxCell>
        <mxCell id="gmeqmmIKyzfBdvNXJOLA-146" value="" style="edgeStyle=entityRelationEdgeStyle;fontSize=12;html=1;endArrow=ERoneToMany;startArrow=ERmandOne;rounded=0;exitX=0;exitY=0.5;exitDx=0;exitDy=0;entryX=1;entryY=0.5;entryDx=0;entryDy=0;" parent="1" source="gmeqmmIKyzfBdvNXJOLA-114" target="gmeqmmIKyzfBdvNXJOLA-145" edge="1">
          <mxGeometry width="100" height="100" relative="1" as="geometry">
            <mxPoint x="60" y="1209" as="sourcePoint" />
            <mxPoint x="-60" y="1365" as="targetPoint" />
          </mxGeometry>
        </mxCell>
        <mxCell id="gmeqmmIKyzfBdvNXJOLA-147" value="" style="edgeStyle=entityRelationEdgeStyle;fontSize=12;html=1;endArrow=ERoneToMany;startArrow=ERmandOne;rounded=0;exitX=0;exitY=0.5;exitDx=0;exitDy=0;entryX=1;entryY=0.5;entryDx=0;entryDy=0;" parent="1" source="gmeqmmIKyzfBdvNXJOLA-101" target="gmeqmmIKyzfBdvNXJOLA-144" edge="1">
          <mxGeometry width="100" height="100" relative="1" as="geometry">
            <mxPoint x="60" y="1209" as="sourcePoint" />
            <mxPoint x="-60" y="1365" as="targetPoint" />
            <Array as="points">
              <mxPoint x="-180" y="1120" />
              <mxPoint x="-170" y="1120" />
            </Array>
          </mxGeometry>
        </mxCell>
        <mxCell id="gmeqmmIKyzfBdvNXJOLA-152" value="AccountTransaction" style="swimlane;fontStyle=0;childLayout=stackLayout;horizontal=1;startSize=26;fillColor=none;horizontalStack=0;resizeParent=1;resizeParentMax=0;resizeLast=0;collapsible=1;marginBottom=0;whiteSpace=wrap;html=1;" parent="1" vertex="1">
          <mxGeometry x="-200" y="1468" width="140" height="182" as="geometry" />
        </mxCell>
        <mxCell id="gmeqmmIKyzfBdvNXJOLA-153" value="- id PK" style="text;strokeColor=#006EAF;fillColor=#1ba1e2;align=left;verticalAlign=top;spacingLeft=4;spacingRight=4;overflow=hidden;rotatable=0;points=[[0,0.5],[1,0.5]];portConstraint=eastwest;whiteSpace=wrap;html=1;fontColor=#ffffff;" parent="gmeqmmIKyzfBdvNXJOLA-152" vertex="1">
          <mxGeometry y="26" width="140" height="26" as="geometry" />
        </mxCell>
        <mxCell id="gmeqmmIKyzfBdvNXJOLA-154" value="- transcation_type" style="text;strokeColor=none;fillColor=none;align=left;verticalAlign=top;spacingLeft=4;spacingRight=4;overflow=hidden;rotatable=0;points=[[0,0.5],[1,0.5]];portConstraint=eastwest;whiteSpace=wrap;html=1;" parent="gmeqmmIKyzfBdvNXJOLA-152" vertex="1">
          <mxGeometry y="52" width="140" height="26" as="geometry" />
        </mxCell>
        <mxCell id="gmeqmmIKyzfBdvNXJOLA-155" value="- amount&amp;nbsp;" style="text;strokeColor=none;fillColor=none;align=left;verticalAlign=top;spacingLeft=4;spacingRight=4;overflow=hidden;rotatable=0;points=[[0,0.5],[1,0.5]];portConstraint=eastwest;whiteSpace=wrap;html=1;" parent="gmeqmmIKyzfBdvNXJOLA-152" vertex="1">
          <mxGeometry y="78" width="140" height="26" as="geometry" />
        </mxCell>
        <mxCell id="gmeqmmIKyzfBdvNXJOLA-156" value="- transaction_date" style="text;strokeColor=none;fillColor=none;align=left;verticalAlign=top;spacingLeft=4;spacingRight=4;overflow=hidden;rotatable=0;points=[[0,0.5],[1,0.5]];portConstraint=eastwest;whiteSpace=wrap;html=1;" parent="gmeqmmIKyzfBdvNXJOLA-152" vertex="1">
          <mxGeometry y="104" width="140" height="26" as="geometry" />
        </mxCell>
        <mxCell id="gmeqmmIKyzfBdvNXJOLA-157" value="- description" style="text;strokeColor=none;fillColor=none;align=left;verticalAlign=top;spacingLeft=4;spacingRight=4;overflow=hidden;rotatable=0;points=[[0,0.5],[1,0.5]];portConstraint=eastwest;whiteSpace=wrap;html=1;" parent="gmeqmmIKyzfBdvNXJOLA-152" vertex="1">
          <mxGeometry y="130" width="140" height="26" as="geometry" />
        </mxCell>
        <mxCell id="gmeqmmIKyzfBdvNXJOLA-158" value="- account_id FK" style="text;strokeColor=#A50040;fillColor=#d80073;align=left;verticalAlign=top;spacingLeft=4;spacingRight=4;overflow=hidden;rotatable=0;points=[[0,0.5],[1,0.5]];portConstraint=eastwest;whiteSpace=wrap;html=1;fontColor=#ffffff;" parent="gmeqmmIKyzfBdvNXJOLA-152" vertex="1">
          <mxGeometry y="156" width="140" height="26" as="geometry" />
        </mxCell>
        <mxCell id="gmeqmmIKyzfBdvNXJOLA-160" value="" style="edgeStyle=entityRelationEdgeStyle;fontSize=12;html=1;endArrow=ERoneToMany;startArrow=ERmandOne;rounded=0;exitX=0;exitY=0.5;exitDx=0;exitDy=0;entryX=1;entryY=0.5;entryDx=0;entryDy=0;" parent="1" source="gmeqmmIKyzfBdvNXJOLA-101" target="gmeqmmIKyzfBdvNXJOLA-158" edge="1">
          <mxGeometry width="100" height="100" relative="1" as="geometry">
            <mxPoint x="60" y="1209" as="sourcePoint" />
            <mxPoint x="-60" y="1416" as="targetPoint" />
          </mxGeometry>
        </mxCell>
        <mxCell id="BsEajPikyEnA2SoNJ8G7-1" value="Swan Htet Aung" style="text;strokeColor=none;fillColor=none;align=left;verticalAlign=middle;spacingLeft=4;spacingRight=4;overflow=hidden;points=[[0,0.5],[1,0.5]];portConstraint=eastwest;rotatable=0;whiteSpace=wrap;html=1;" vertex="1" parent="1">
          <mxGeometry x="-160" y="1750" width="150" height="30" as="geometry" />
        </mxCell>
        <mxCell id="BsEajPikyEnA2SoNJ8G7-2" value="Employee create update&amp;nbsp;&lt;br&gt;listing" style="text;strokeColor=none;fillColor=none;align=left;verticalAlign=middle;spacingLeft=4;spacingRight=4;overflow=hidden;points=[[0,0.5],[1,0.5]];portConstraint=eastwest;rotatable=0;whiteSpace=wrap;html=1;" vertex="1" parent="1">
          <mxGeometry x="-20" y="1750" width="80" height="70" as="geometry" />
        </mxCell>
        <mxCell id="BsEajPikyEnA2SoNJ8G7-3" value="feature/bs-1001-sha" style="text;html=1;align=center;verticalAlign=middle;whiteSpace=wrap;rounded=0;" vertex="1" parent="1">
          <mxGeometry x="100" y="1750" width="140" height="30" as="geometry" />
        </mxCell>
        <mxCell id="BsEajPikyEnA2SoNJ8G7-7" value="Phyo Ei Thaw" style="text;strokeColor=none;fillColor=none;align=left;verticalAlign=middle;spacingLeft=4;spacingRight=4;overflow=hidden;points=[[0,0.5],[1,0.5]];portConstraint=eastwest;rotatable=0;whiteSpace=wrap;html=1;" vertex="1" parent="1">
          <mxGeometry x="-160" y="1850" width="150" height="30" as="geometry" />
        </mxCell>
        <mxCell id="BsEajPikyEnA2SoNJ8G7-8" value="Customer / login&lt;div&gt;create update&amp;nbsp;&lt;br&gt;listing&lt;/div&gt;" style="text;strokeColor=none;fillColor=none;align=left;verticalAlign=middle;spacingLeft=4;spacingRight=4;overflow=hidden;points=[[0,0.5],[1,0.5]];portConstraint=eastwest;rotatable=0;whiteSpace=wrap;html=1;" vertex="1" parent="1">
          <mxGeometry x="-20" y="1840" width="80" height="100" as="geometry" />
        </mxCell>
        <mxCell id="BsEajPikyEnA2SoNJ8G7-9" value="feature/bs-1002-pet" style="text;html=1;align=center;verticalAlign=middle;whiteSpace=wrap;rounded=0;" vertex="1" parent="1">
          <mxGeometry x="100" y="1850" width="140" height="30" as="geometry" />
        </mxCell>
        <mxCell id="BsEajPikyEnA2SoNJ8G7-10" value="Si Thu Win" style="text;strokeColor=none;fillColor=none;align=left;verticalAlign=middle;spacingLeft=4;spacingRight=4;overflow=hidden;points=[[0,0.5],[1,0.5]];portConstraint=eastwest;rotatable=0;whiteSpace=wrap;html=1;" vertex="1" parent="1">
          <mxGeometry x="-160" y="1960" width="150" height="30" as="geometry" />
        </mxCell>
        <mxCell id="BsEajPikyEnA2SoNJ8G7-11" value="Home Window" style="text;strokeColor=none;fillColor=none;align=left;verticalAlign=middle;spacingLeft=4;spacingRight=4;overflow=hidden;points=[[0,0.5],[1,0.5]];portConstraint=eastwest;rotatable=0;whiteSpace=wrap;html=1;" vertex="1" parent="1">
          <mxGeometry x="-20" y="1950" width="80" height="50" as="geometry" />
        </mxCell>
        <mxCell id="BsEajPikyEnA2SoNJ8G7-12" value="feature/bs-1003-stw" style="text;html=1;align=center;verticalAlign=middle;whiteSpace=wrap;rounded=0;" vertex="1" parent="1">
          <mxGeometry x="100" y="1960" width="140" height="30" as="geometry" />
        </mxCell>
        <mxCell id="BsEajPikyEnA2SoNJ8G7-13" value="Lwin Hein Khant" style="text;strokeColor=none;fillColor=none;align=left;verticalAlign=middle;spacingLeft=4;spacingRight=4;overflow=hidden;points=[[0,0.5],[1,0.5]];portConstraint=eastwest;rotatable=0;whiteSpace=wrap;html=1;" vertex="1" parent="1">
          <mxGeometry x="-160" y="2040" width="150" height="30" as="geometry" />
        </mxCell>
        <mxCell id="BsEajPikyEnA2SoNJ8G7-14" value="Employee Profile" style="text;strokeColor=none;fillColor=none;align=left;verticalAlign=middle;spacingLeft=4;spacingRight=4;overflow=hidden;points=[[0,0.5],[1,0.5]];portConstraint=eastwest;rotatable=0;whiteSpace=wrap;html=1;" vertex="1" parent="1">
          <mxGeometry x="-20" y="2030" width="80" height="50" as="geometry" />
        </mxCell>
        <mxCell id="BsEajPikyEnA2SoNJ8G7-15" value="feature/bs-1004-lhk" style="text;html=1;align=center;verticalAlign=middle;whiteSpace=wrap;rounded=0;" vertex="1" parent="1">
          <mxGeometry x="100" y="2040" width="140" height="30" as="geometry" />
        </mxCell>
        <mxCell id="BsEajPikyEnA2SoNJ8G7-16" value="Min Thet Ko" style="text;strokeColor=none;fillColor=none;align=left;verticalAlign=middle;spacingLeft=4;spacingRight=4;overflow=hidden;points=[[0,0.5],[1,0.5]];portConstraint=eastwest;rotatable=0;whiteSpace=wrap;html=1;" vertex="1" parent="1">
          <mxGeometry x="-160" y="2110" width="150" height="30" as="geometry" />
        </mxCell>
        <mxCell id="BsEajPikyEnA2SoNJ8G7-18" value="feature/bs-1005-mtk" style="text;html=1;align=center;verticalAlign=middle;whiteSpace=wrap;rounded=0;" vertex="1" parent="1">
          <mxGeometry x="100" y="2110" width="140" height="30" as="geometry" />
        </mxCell>
        <mxCell id="BsEajPikyEnA2SoNJ8G7-19" value="Account&amp;nbsp;&lt;div&gt;create update&amp;nbsp;&lt;br&gt;listing&lt;/div&gt;" style="text;strokeColor=none;fillColor=none;align=left;verticalAlign=middle;spacingLeft=4;spacingRight=4;overflow=hidden;points=[[0,0.5],[1,0.5]];portConstraint=eastwest;rotatable=0;whiteSpace=wrap;html=1;" vertex="1" parent="1">
          <mxGeometry x="-20" y="2100" width="80" height="80" as="geometry" />
        </mxCell>
        <mxCell id="BsEajPikyEnA2SoNJ8G7-20" value="Kaung Hset Lwin" style="text;strokeColor=none;fillColor=none;align=left;verticalAlign=middle;spacingLeft=4;spacingRight=4;overflow=hidden;points=[[0,0.5],[1,0.5]];portConstraint=eastwest;rotatable=0;whiteSpace=wrap;html=1;" vertex="1" parent="1">
          <mxGeometry x="-160" y="2190" width="120" height="30" as="geometry" />
        </mxCell>
        <mxCell id="BsEajPikyEnA2SoNJ8G7-21" value="feature/bs-1006-khl" style="text;html=1;align=center;verticalAlign=middle;whiteSpace=wrap;rounded=0;" vertex="1" parent="1">
          <mxGeometry x="100" y="2190" width="140" height="30" as="geometry" />
        </mxCell>
        <mxCell id="BsEajPikyEnA2SoNJ8G7-22" value="&lt;div&gt;Branches&lt;/div&gt;&lt;div&gt;create update&amp;nbsp;&lt;br&gt;listing&lt;/div&gt;" style="text;strokeColor=none;fillColor=none;align=left;verticalAlign=middle;spacingLeft=4;spacingRight=4;overflow=hidden;points=[[0,0.5],[1,0.5]];portConstraint=eastwest;rotatable=0;whiteSpace=wrap;html=1;" vertex="1" parent="1">
          <mxGeometry x="-20" y="2180" width="80" height="80" as="geometry" />
        </mxCell>
        <mxCell id="BsEajPikyEnA2SoNJ8G7-32" value="" style="whiteSpace=wrap;html=1;aspect=fixed;" vertex="1" parent="1">
          <mxGeometry x="-497.5" y="3880" width="217.5" height="217.5" as="geometry" />
        </mxCell>
        <mxCell id="BsEajPikyEnA2SoNJ8G7-34" value="thread" style="ellipse;whiteSpace=wrap;html=1;aspect=fixed;" vertex="1" parent="1">
          <mxGeometry x="-457" y="3956.25" width="65" height="65" as="geometry" />
        </mxCell>
        <mxCell id="BsEajPikyEnA2SoNJ8G7-35" value="main process" style="text;html=1;align=center;verticalAlign=middle;whiteSpace=wrap;rounded=0;" vertex="1" parent="1">
          <mxGeometry x="-478.75" y="3890" width="180" height="30" as="geometry" />
        </mxCell>
        <mxCell id="BsEajPikyEnA2SoNJ8G7-36" value="thread" style="ellipse;whiteSpace=wrap;html=1;aspect=fixed;" vertex="1" parent="1">
          <mxGeometry x="-370" y="3930" width="65" height="65" as="geometry" />
        </mxCell>
        <mxCell id="BsEajPikyEnA2SoNJ8G7-37" value="thread" style="ellipse;whiteSpace=wrap;html=1;aspect=fixed;" vertex="1" parent="1">
          <mxGeometry x="-380" y="4021.25" width="65" height="65" as="geometry" />
        </mxCell>
        <mxCell id="BsEajPikyEnA2SoNJ8G7-42" style="edgeStyle=orthogonalEdgeStyle;rounded=0;orthogonalLoop=1;jettySize=auto;html=1;entryX=0.5;entryY=1;entryDx=0;entryDy=0;" edge="1" parent="1" source="BsEajPikyEnA2SoNJ8G7-38" target="BsEajPikyEnA2SoNJ8G7-40">
          <mxGeometry relative="1" as="geometry" />
        </mxCell>
        <mxCell id="BsEajPikyEnA2SoNJ8G7-38" value="main process" style="rounded=0;whiteSpace=wrap;html=1;" vertex="1" parent="1">
          <mxGeometry x="-140" y="4037.5" width="280" height="60" as="geometry" />
        </mxCell>
        <mxCell id="BsEajPikyEnA2SoNJ8G7-39" value="thread" style="ellipse;whiteSpace=wrap;html=1;aspect=fixed;" vertex="1" parent="1">
          <mxGeometry x="-90" y="3950" width="45" height="45" as="geometry" />
        </mxCell>
        <mxCell id="BsEajPikyEnA2SoNJ8G7-40" value="thread" style="ellipse;whiteSpace=wrap;html=1;aspect=fixed;" vertex="1" parent="1">
          <mxGeometry x="-32.5" y="3880" width="65" height="65" as="geometry" />
        </mxCell>
        <mxCell id="BsEajPikyEnA2SoNJ8G7-41" value="thread" style="ellipse;whiteSpace=wrap;html=1;aspect=fixed;" vertex="1" parent="1">
          <mxGeometry x="40" y="3960" width="35" height="35" as="geometry" />
        </mxCell>
        <mxCell id="BsEajPikyEnA2SoNJ8G7-44" style="edgeStyle=orthogonalEdgeStyle;rounded=0;orthogonalLoop=1;jettySize=auto;html=1;" edge="1" parent="1" source="BsEajPikyEnA2SoNJ8G7-43">
          <mxGeometry relative="1" as="geometry">
            <mxPoint y="4100" as="targetPoint" />
          </mxGeometry>
        </mxCell>
        <mxCell id="BsEajPikyEnA2SoNJ8G7-43" value="RAM&amp;nbsp;" style="rounded=0;whiteSpace=wrap;html=1;" vertex="1" parent="1">
          <mxGeometry x="-140" y="4130" width="280" height="50" as="geometry" />
        </mxCell>
        <mxCell id="BsEajPikyEnA2SoNJ8G7-47" style="edgeStyle=orthogonalEdgeStyle;rounded=0;orthogonalLoop=1;jettySize=auto;html=1;entryX=0.5;entryY=1;entryDx=0;entryDy=0;" edge="1" parent="1" source="BsEajPikyEnA2SoNJ8G7-45" target="BsEajPikyEnA2SoNJ8G7-46">
          <mxGeometry relative="1" as="geometry" />
        </mxCell>
        <mxCell id="BsEajPikyEnA2SoNJ8G7-45" value="registration process" style="rounded=0;whiteSpace=wrap;html=1;" vertex="1" parent="1">
          <mxGeometry x="-478.75" y="4380" width="220" height="60" as="geometry" />
        </mxCell>
        <mxCell id="BsEajPikyEnA2SoNJ8G7-46" value="sentMailThread" style="ellipse;whiteSpace=wrap;html=1;aspect=fixed;" vertex="1" parent="1">
          <mxGeometry x="-402.75" y="4270" width="68" height="68" as="geometry" />
        </mxCell>
        <mxCell id="BsEajPikyEnA2SoNJ8G7-51" style="edgeStyle=orthogonalEdgeStyle;rounded=0;orthogonalLoop=1;jettySize=auto;html=1;" edge="1" parent="1" source="BsEajPikyEnA2SoNJ8G7-48" target="BsEajPikyEnA2SoNJ8G7-49">
          <mxGeometry relative="1" as="geometry" />
        </mxCell>
        <mxCell id="BsEajPikyEnA2SoNJ8G7-48" value="input" style="rounded=0;whiteSpace=wrap;html=1;" vertex="1" parent="1">
          <mxGeometry x="-334.75" y="4580" width="120" height="60" as="geometry" />
        </mxCell>
        <mxCell id="BsEajPikyEnA2SoNJ8G7-52" style="edgeStyle=orthogonalEdgeStyle;rounded=0;orthogonalLoop=1;jettySize=auto;html=1;entryX=0;entryY=0.5;entryDx=0;entryDy=0;" edge="1" parent="1" source="BsEajPikyEnA2SoNJ8G7-49" target="BsEajPikyEnA2SoNJ8G7-50">
          <mxGeometry relative="1" as="geometry" />
        </mxCell>
        <mxCell id="BsEajPikyEnA2SoNJ8G7-56" style="edgeStyle=orthogonalEdgeStyle;rounded=0;orthogonalLoop=1;jettySize=auto;html=1;dashed=1;" edge="1" parent="1" source="BsEajPikyEnA2SoNJ8G7-49" target="BsEajPikyEnA2SoNJ8G7-53">
          <mxGeometry relative="1" as="geometry" />
        </mxCell>
        <mxCell id="BsEajPikyEnA2SoNJ8G7-57" style="edgeStyle=orthogonalEdgeStyle;rounded=0;orthogonalLoop=1;jettySize=auto;html=1;dashed=1;" edge="1" parent="1" source="BsEajPikyEnA2SoNJ8G7-49" target="BsEajPikyEnA2SoNJ8G7-54">
          <mxGeometry relative="1" as="geometry" />
        </mxCell>
        <mxCell id="BsEajPikyEnA2SoNJ8G7-58" style="edgeStyle=orthogonalEdgeStyle;rounded=0;orthogonalLoop=1;jettySize=auto;html=1;dashed=1;" edge="1" parent="1" source="BsEajPikyEnA2SoNJ8G7-49" target="BsEajPikyEnA2SoNJ8G7-55">
          <mxGeometry relative="1" as="geometry">
            <Array as="points">
              <mxPoint x="-67" y="4730" />
              <mxPoint x="-7" y="4730" />
              <mxPoint x="-7" y="4750" />
            </Array>
          </mxGeometry>
        </mxCell>
        <mxCell id="BsEajPikyEnA2SoNJ8G7-49" value="process" style="rounded=0;whiteSpace=wrap;html=1;" vertex="1" parent="1">
          <mxGeometry x="-127.5" y="4640" width="120" height="60" as="geometry" />
        </mxCell>
        <mxCell id="BsEajPikyEnA2SoNJ8G7-50" value="output" style="rounded=0;whiteSpace=wrap;html=1;" vertex="1" parent="1">
          <mxGeometry x="75" y="4570" width="120" height="60" as="geometry" />
        </mxCell>
        <mxCell id="BsEajPikyEnA2SoNJ8G7-53" value="job1" style="ellipse;whiteSpace=wrap;html=1;aspect=fixed;" vertex="1" parent="1">
          <mxGeometry x="-150" y="4760" width="50" height="50" as="geometry" />
        </mxCell>
        <mxCell id="BsEajPikyEnA2SoNJ8G7-54" value="job2" style="ellipse;whiteSpace=wrap;html=1;aspect=fixed;" vertex="1" parent="1">
          <mxGeometry x="-92.5" y="4760" width="50" height="50" as="geometry" />
        </mxCell>
        <mxCell id="BsEajPikyEnA2SoNJ8G7-55" value="job3" style="ellipse;whiteSpace=wrap;html=1;aspect=fixed;" vertex="1" parent="1">
          <mxGeometry x="-32.5" y="4760" width="50" height="50" as="geometry" />
        </mxCell>
        <mxCell id="BsEajPikyEnA2SoNJ8G7-138" value="" style="group" vertex="1" connectable="0" parent="1">
          <mxGeometry x="-522" y="5110" width="260" height="140" as="geometry" />
        </mxCell>
        <mxCell id="BsEajPikyEnA2SoNJ8G7-59" value="" style="shape=table;startSize=0;container=1;collapsible=0;childLayout=tableLayout;fontSize=16;" vertex="1" parent="BsEajPikyEnA2SoNJ8G7-138">
          <mxGeometry x="2" width="130" height="70" as="geometry" />
        </mxCell>
        <mxCell id="BsEajPikyEnA2SoNJ8G7-60" value="" style="shape=tableRow;horizontal=0;startSize=0;swimlaneHead=0;swimlaneBody=0;strokeColor=inherit;top=0;left=0;bottom=0;right=0;collapsible=0;dropTarget=0;fillColor=none;points=[[0,0.5],[1,0.5]];portConstraint=eastwest;fontSize=16;" vertex="1" parent="BsEajPikyEnA2SoNJ8G7-59">
          <mxGeometry width="130" height="23" as="geometry" />
        </mxCell>
        <mxCell id="BsEajPikyEnA2SoNJ8G7-61" value="line" style="shape=partialRectangle;html=1;whiteSpace=wrap;connectable=0;strokeColor=inherit;overflow=hidden;fillColor=none;top=0;left=0;bottom=0;right=0;pointerEvents=1;fontSize=16;" vertex="1" parent="BsEajPikyEnA2SoNJ8G7-60">
          <mxGeometry width="44" height="23" as="geometry">
            <mxRectangle width="44" height="23" as="alternateBounds" />
          </mxGeometry>
        </mxCell>
        <mxCell id="BsEajPikyEnA2SoNJ8G7-62" value="" style="shape=partialRectangle;html=1;whiteSpace=wrap;connectable=0;strokeColor=inherit;overflow=hidden;fillColor=none;top=0;left=0;bottom=0;right=0;pointerEvents=1;fontSize=16;" vertex="1" parent="BsEajPikyEnA2SoNJ8G7-60">
          <mxGeometry x="44" width="42" height="23" as="geometry">
            <mxRectangle width="42" height="23" as="alternateBounds" />
          </mxGeometry>
        </mxCell>
        <mxCell id="BsEajPikyEnA2SoNJ8G7-63" value="" style="shape=partialRectangle;html=1;whiteSpace=wrap;connectable=0;strokeColor=inherit;overflow=hidden;fillColor=none;top=0;left=0;bottom=0;right=0;pointerEvents=1;fontSize=16;" vertex="1" parent="BsEajPikyEnA2SoNJ8G7-60">
          <mxGeometry x="86" width="44" height="23" as="geometry">
            <mxRectangle width="44" height="23" as="alternateBounds" />
          </mxGeometry>
        </mxCell>
        <mxCell id="BsEajPikyEnA2SoNJ8G7-64" value="" style="shape=tableRow;horizontal=0;startSize=0;swimlaneHead=0;swimlaneBody=0;strokeColor=inherit;top=0;left=0;bottom=0;right=0;collapsible=0;dropTarget=0;fillColor=none;points=[[0,0.5],[1,0.5]];portConstraint=eastwest;fontSize=16;" vertex="1" parent="BsEajPikyEnA2SoNJ8G7-59">
          <mxGeometry y="23" width="130" height="24" as="geometry" />
        </mxCell>
        <mxCell id="BsEajPikyEnA2SoNJ8G7-65" value="" style="shape=partialRectangle;html=1;whiteSpace=wrap;connectable=0;strokeColor=inherit;overflow=hidden;fillColor=none;top=0;left=0;bottom=0;right=0;pointerEvents=1;fontSize=16;" vertex="1" parent="BsEajPikyEnA2SoNJ8G7-64">
          <mxGeometry width="44" height="24" as="geometry">
            <mxRectangle width="44" height="24" as="alternateBounds" />
          </mxGeometry>
        </mxCell>
        <mxCell id="BsEajPikyEnA2SoNJ8G7-66" value="" style="shape=partialRectangle;html=1;whiteSpace=wrap;connectable=0;strokeColor=inherit;overflow=hidden;fillColor=none;top=0;left=0;bottom=0;right=0;pointerEvents=1;fontSize=16;" vertex="1" parent="BsEajPikyEnA2SoNJ8G7-64">
          <mxGeometry x="44" width="42" height="24" as="geometry">
            <mxRectangle width="42" height="24" as="alternateBounds" />
          </mxGeometry>
        </mxCell>
        <mxCell id="BsEajPikyEnA2SoNJ8G7-67" value="" style="shape=partialRectangle;html=1;whiteSpace=wrap;connectable=0;strokeColor=inherit;overflow=hidden;fillColor=none;top=0;left=0;bottom=0;right=0;pointerEvents=1;fontSize=16;" vertex="1" parent="BsEajPikyEnA2SoNJ8G7-64">
          <mxGeometry x="86" width="44" height="24" as="geometry">
            <mxRectangle width="44" height="24" as="alternateBounds" />
          </mxGeometry>
        </mxCell>
        <mxCell id="BsEajPikyEnA2SoNJ8G7-68" value="" style="shape=tableRow;horizontal=0;startSize=0;swimlaneHead=0;swimlaneBody=0;strokeColor=inherit;top=0;left=0;bottom=0;right=0;collapsible=0;dropTarget=0;fillColor=none;points=[[0,0.5],[1,0.5]];portConstraint=eastwest;fontSize=16;" vertex="1" parent="BsEajPikyEnA2SoNJ8G7-59">
          <mxGeometry y="47" width="130" height="23" as="geometry" />
        </mxCell>
        <mxCell id="BsEajPikyEnA2SoNJ8G7-69" value="" style="shape=partialRectangle;html=1;whiteSpace=wrap;connectable=0;strokeColor=inherit;overflow=hidden;fillColor=none;top=0;left=0;bottom=0;right=0;pointerEvents=1;fontSize=16;" vertex="1" parent="BsEajPikyEnA2SoNJ8G7-68">
          <mxGeometry width="44" height="23" as="geometry">
            <mxRectangle width="44" height="23" as="alternateBounds" />
          </mxGeometry>
        </mxCell>
        <mxCell id="BsEajPikyEnA2SoNJ8G7-70" value="" style="shape=partialRectangle;html=1;whiteSpace=wrap;connectable=0;strokeColor=inherit;overflow=hidden;fillColor=none;top=0;left=0;bottom=0;right=0;pointerEvents=1;fontSize=16;" vertex="1" parent="BsEajPikyEnA2SoNJ8G7-68">
          <mxGeometry x="44" width="42" height="23" as="geometry">
            <mxRectangle width="42" height="23" as="alternateBounds" />
          </mxGeometry>
        </mxCell>
        <mxCell id="BsEajPikyEnA2SoNJ8G7-71" value="" style="shape=partialRectangle;html=1;whiteSpace=wrap;connectable=0;strokeColor=inherit;overflow=hidden;fillColor=none;top=0;left=0;bottom=0;right=0;pointerEvents=1;fontSize=16;" vertex="1" parent="BsEajPikyEnA2SoNJ8G7-68">
          <mxGeometry x="86" width="44" height="23" as="geometry">
            <mxRectangle width="44" height="23" as="alternateBounds" />
          </mxGeometry>
        </mxCell>
        <mxCell id="BsEajPikyEnA2SoNJ8G7-72" value="" style="shape=table;startSize=0;container=1;collapsible=0;childLayout=tableLayout;fontSize=16;" vertex="1" parent="BsEajPikyEnA2SoNJ8G7-138">
          <mxGeometry x="130" width="130" height="70" as="geometry" />
        </mxCell>
        <mxCell id="BsEajPikyEnA2SoNJ8G7-73" value="" style="shape=tableRow;horizontal=0;startSize=0;swimlaneHead=0;swimlaneBody=0;strokeColor=inherit;top=0;left=0;bottom=0;right=0;collapsible=0;dropTarget=0;fillColor=none;points=[[0,0.5],[1,0.5]];portConstraint=eastwest;fontSize=16;" vertex="1" parent="BsEajPikyEnA2SoNJ8G7-72">
          <mxGeometry width="130" height="23" as="geometry" />
        </mxCell>
        <mxCell id="BsEajPikyEnA2SoNJ8G7-74" value="" style="shape=partialRectangle;html=1;whiteSpace=wrap;connectable=0;strokeColor=inherit;overflow=hidden;fillColor=none;top=0;left=0;bottom=0;right=0;pointerEvents=1;fontSize=16;" vertex="1" parent="BsEajPikyEnA2SoNJ8G7-73">
          <mxGeometry width="44" height="23" as="geometry">
            <mxRectangle width="44" height="23" as="alternateBounds" />
          </mxGeometry>
        </mxCell>
        <mxCell id="BsEajPikyEnA2SoNJ8G7-75" value="" style="shape=partialRectangle;html=1;whiteSpace=wrap;connectable=0;strokeColor=inherit;overflow=hidden;fillColor=none;top=0;left=0;bottom=0;right=0;pointerEvents=1;fontSize=16;" vertex="1" parent="BsEajPikyEnA2SoNJ8G7-73">
          <mxGeometry x="44" width="42" height="23" as="geometry">
            <mxRectangle width="42" height="23" as="alternateBounds" />
          </mxGeometry>
        </mxCell>
        <mxCell id="BsEajPikyEnA2SoNJ8G7-76" value="" style="shape=partialRectangle;html=1;whiteSpace=wrap;connectable=0;strokeColor=inherit;overflow=hidden;fillColor=none;top=0;left=0;bottom=0;right=0;pointerEvents=1;fontSize=16;" vertex="1" parent="BsEajPikyEnA2SoNJ8G7-73">
          <mxGeometry x="86" width="44" height="23" as="geometry">
            <mxRectangle width="44" height="23" as="alternateBounds" />
          </mxGeometry>
        </mxCell>
        <mxCell id="BsEajPikyEnA2SoNJ8G7-77" value="" style="shape=tableRow;horizontal=0;startSize=0;swimlaneHead=0;swimlaneBody=0;strokeColor=inherit;top=0;left=0;bottom=0;right=0;collapsible=0;dropTarget=0;fillColor=none;points=[[0,0.5],[1,0.5]];portConstraint=eastwest;fontSize=16;" vertex="1" parent="BsEajPikyEnA2SoNJ8G7-72">
          <mxGeometry y="23" width="130" height="24" as="geometry" />
        </mxCell>
        <mxCell id="BsEajPikyEnA2SoNJ8G7-78" value="" style="shape=partialRectangle;html=1;whiteSpace=wrap;connectable=0;strokeColor=inherit;overflow=hidden;fillColor=none;top=0;left=0;bottom=0;right=0;pointerEvents=1;fontSize=16;" vertex="1" parent="BsEajPikyEnA2SoNJ8G7-77">
          <mxGeometry width="44" height="24" as="geometry">
            <mxRectangle width="44" height="24" as="alternateBounds" />
          </mxGeometry>
        </mxCell>
        <mxCell id="BsEajPikyEnA2SoNJ8G7-79" value="" style="shape=partialRectangle;html=1;whiteSpace=wrap;connectable=0;strokeColor=inherit;overflow=hidden;fillColor=none;top=0;left=0;bottom=0;right=0;pointerEvents=1;fontSize=16;" vertex="1" parent="BsEajPikyEnA2SoNJ8G7-77">
          <mxGeometry x="44" width="42" height="24" as="geometry">
            <mxRectangle width="42" height="24" as="alternateBounds" />
          </mxGeometry>
        </mxCell>
        <mxCell id="BsEajPikyEnA2SoNJ8G7-80" value="" style="shape=partialRectangle;html=1;whiteSpace=wrap;connectable=0;strokeColor=inherit;overflow=hidden;fillColor=none;top=0;left=0;bottom=0;right=0;pointerEvents=1;fontSize=16;" vertex="1" parent="BsEajPikyEnA2SoNJ8G7-77">
          <mxGeometry x="86" width="44" height="24" as="geometry">
            <mxRectangle width="44" height="24" as="alternateBounds" />
          </mxGeometry>
        </mxCell>
        <mxCell id="BsEajPikyEnA2SoNJ8G7-81" value="" style="shape=tableRow;horizontal=0;startSize=0;swimlaneHead=0;swimlaneBody=0;strokeColor=inherit;top=0;left=0;bottom=0;right=0;collapsible=0;dropTarget=0;fillColor=none;points=[[0,0.5],[1,0.5]];portConstraint=eastwest;fontSize=16;" vertex="1" parent="BsEajPikyEnA2SoNJ8G7-72">
          <mxGeometry y="47" width="130" height="23" as="geometry" />
        </mxCell>
        <mxCell id="BsEajPikyEnA2SoNJ8G7-82" value="" style="shape=partialRectangle;html=1;whiteSpace=wrap;connectable=0;strokeColor=inherit;overflow=hidden;fillColor=none;top=0;left=0;bottom=0;right=0;pointerEvents=1;fontSize=16;" vertex="1" parent="BsEajPikyEnA2SoNJ8G7-81">
          <mxGeometry width="44" height="23" as="geometry">
            <mxRectangle width="44" height="23" as="alternateBounds" />
          </mxGeometry>
        </mxCell>
        <mxCell id="BsEajPikyEnA2SoNJ8G7-83" value="" style="shape=partialRectangle;html=1;whiteSpace=wrap;connectable=0;strokeColor=inherit;overflow=hidden;fillColor=none;top=0;left=0;bottom=0;right=0;pointerEvents=1;fontSize=16;" vertex="1" parent="BsEajPikyEnA2SoNJ8G7-81">
          <mxGeometry x="44" width="42" height="23" as="geometry">
            <mxRectangle width="42" height="23" as="alternateBounds" />
          </mxGeometry>
        </mxCell>
        <mxCell id="BsEajPikyEnA2SoNJ8G7-84" value="" style="shape=partialRectangle;html=1;whiteSpace=wrap;connectable=0;strokeColor=inherit;overflow=hidden;fillColor=none;top=0;left=0;bottom=0;right=0;pointerEvents=1;fontSize=16;" vertex="1" parent="BsEajPikyEnA2SoNJ8G7-81">
          <mxGeometry x="86" width="44" height="23" as="geometry">
            <mxRectangle width="44" height="23" as="alternateBounds" />
          </mxGeometry>
        </mxCell>
        <mxCell id="BsEajPikyEnA2SoNJ8G7-112" value="" style="shape=table;startSize=0;container=1;collapsible=0;childLayout=tableLayout;fontSize=16;" vertex="1" parent="BsEajPikyEnA2SoNJ8G7-138">
          <mxGeometry y="70" width="130" height="70" as="geometry" />
        </mxCell>
        <mxCell id="BsEajPikyEnA2SoNJ8G7-113" value="" style="shape=tableRow;horizontal=0;startSize=0;swimlaneHead=0;swimlaneBody=0;strokeColor=inherit;top=0;left=0;bottom=0;right=0;collapsible=0;dropTarget=0;fillColor=none;points=[[0,0.5],[1,0.5]];portConstraint=eastwest;fontSize=16;" vertex="1" parent="BsEajPikyEnA2SoNJ8G7-112">
          <mxGeometry width="130" height="23" as="geometry" />
        </mxCell>
        <mxCell id="BsEajPikyEnA2SoNJ8G7-114" value="" style="shape=partialRectangle;html=1;whiteSpace=wrap;connectable=0;strokeColor=inherit;overflow=hidden;fillColor=none;top=0;left=0;bottom=0;right=0;pointerEvents=1;fontSize=16;" vertex="1" parent="BsEajPikyEnA2SoNJ8G7-113">
          <mxGeometry width="44" height="23" as="geometry">
            <mxRectangle width="44" height="23" as="alternateBounds" />
          </mxGeometry>
        </mxCell>
        <mxCell id="BsEajPikyEnA2SoNJ8G7-115" value="" style="shape=partialRectangle;html=1;whiteSpace=wrap;connectable=0;strokeColor=inherit;overflow=hidden;fillColor=none;top=0;left=0;bottom=0;right=0;pointerEvents=1;fontSize=16;" vertex="1" parent="BsEajPikyEnA2SoNJ8G7-113">
          <mxGeometry x="44" width="42" height="23" as="geometry">
            <mxRectangle width="42" height="23" as="alternateBounds" />
          </mxGeometry>
        </mxCell>
        <mxCell id="BsEajPikyEnA2SoNJ8G7-116" value="" style="shape=partialRectangle;html=1;whiteSpace=wrap;connectable=0;strokeColor=inherit;overflow=hidden;fillColor=none;top=0;left=0;bottom=0;right=0;pointerEvents=1;fontSize=16;" vertex="1" parent="BsEajPikyEnA2SoNJ8G7-113">
          <mxGeometry x="86" width="44" height="23" as="geometry">
            <mxRectangle width="44" height="23" as="alternateBounds" />
          </mxGeometry>
        </mxCell>
        <mxCell id="BsEajPikyEnA2SoNJ8G7-117" value="" style="shape=tableRow;horizontal=0;startSize=0;swimlaneHead=0;swimlaneBody=0;strokeColor=inherit;top=0;left=0;bottom=0;right=0;collapsible=0;dropTarget=0;fillColor=none;points=[[0,0.5],[1,0.5]];portConstraint=eastwest;fontSize=16;" vertex="1" parent="BsEajPikyEnA2SoNJ8G7-112">
          <mxGeometry y="23" width="130" height="24" as="geometry" />
        </mxCell>
        <mxCell id="BsEajPikyEnA2SoNJ8G7-118" value="" style="shape=partialRectangle;html=1;whiteSpace=wrap;connectable=0;strokeColor=inherit;overflow=hidden;fillColor=none;top=0;left=0;bottom=0;right=0;pointerEvents=1;fontSize=16;" vertex="1" parent="BsEajPikyEnA2SoNJ8G7-117">
          <mxGeometry width="44" height="24" as="geometry">
            <mxRectangle width="44" height="24" as="alternateBounds" />
          </mxGeometry>
        </mxCell>
        <mxCell id="BsEajPikyEnA2SoNJ8G7-119" value="" style="shape=partialRectangle;html=1;whiteSpace=wrap;connectable=0;strokeColor=inherit;overflow=hidden;fillColor=none;top=0;left=0;bottom=0;right=0;pointerEvents=1;fontSize=16;" vertex="1" parent="BsEajPikyEnA2SoNJ8G7-117">
          <mxGeometry x="44" width="42" height="24" as="geometry">
            <mxRectangle width="42" height="24" as="alternateBounds" />
          </mxGeometry>
        </mxCell>
        <mxCell id="BsEajPikyEnA2SoNJ8G7-120" value="" style="shape=partialRectangle;html=1;whiteSpace=wrap;connectable=0;strokeColor=inherit;overflow=hidden;fillColor=none;top=0;left=0;bottom=0;right=0;pointerEvents=1;fontSize=16;" vertex="1" parent="BsEajPikyEnA2SoNJ8G7-117">
          <mxGeometry x="86" width="44" height="24" as="geometry">
            <mxRectangle width="44" height="24" as="alternateBounds" />
          </mxGeometry>
        </mxCell>
        <mxCell id="BsEajPikyEnA2SoNJ8G7-121" value="" style="shape=tableRow;horizontal=0;startSize=0;swimlaneHead=0;swimlaneBody=0;strokeColor=inherit;top=0;left=0;bottom=0;right=0;collapsible=0;dropTarget=0;fillColor=none;points=[[0,0.5],[1,0.5]];portConstraint=eastwest;fontSize=16;" vertex="1" parent="BsEajPikyEnA2SoNJ8G7-112">
          <mxGeometry y="47" width="130" height="23" as="geometry" />
        </mxCell>
        <mxCell id="BsEajPikyEnA2SoNJ8G7-122" value="" style="shape=partialRectangle;html=1;whiteSpace=wrap;connectable=0;strokeColor=inherit;overflow=hidden;fillColor=none;top=0;left=0;bottom=0;right=0;pointerEvents=1;fontSize=16;" vertex="1" parent="BsEajPikyEnA2SoNJ8G7-121">
          <mxGeometry width="44" height="23" as="geometry">
            <mxRectangle width="44" height="23" as="alternateBounds" />
          </mxGeometry>
        </mxCell>
        <mxCell id="BsEajPikyEnA2SoNJ8G7-123" value="" style="shape=partialRectangle;html=1;whiteSpace=wrap;connectable=0;strokeColor=inherit;overflow=hidden;fillColor=none;top=0;left=0;bottom=0;right=0;pointerEvents=1;fontSize=16;" vertex="1" parent="BsEajPikyEnA2SoNJ8G7-121">
          <mxGeometry x="44" width="42" height="23" as="geometry">
            <mxRectangle width="42" height="23" as="alternateBounds" />
          </mxGeometry>
        </mxCell>
        <mxCell id="BsEajPikyEnA2SoNJ8G7-124" value="" style="shape=partialRectangle;html=1;whiteSpace=wrap;connectable=0;strokeColor=inherit;overflow=hidden;fillColor=none;top=0;left=0;bottom=0;right=0;pointerEvents=1;fontSize=16;" vertex="1" parent="BsEajPikyEnA2SoNJ8G7-121">
          <mxGeometry x="86" width="44" height="23" as="geometry">
            <mxRectangle width="44" height="23" as="alternateBounds" />
          </mxGeometry>
        </mxCell>
        <mxCell id="BsEajPikyEnA2SoNJ8G7-125" value="" style="shape=table;startSize=0;container=1;collapsible=0;childLayout=tableLayout;fontSize=16;" vertex="1" parent="BsEajPikyEnA2SoNJ8G7-138">
          <mxGeometry x="130" y="70" width="130" height="70" as="geometry" />
        </mxCell>
        <mxCell id="BsEajPikyEnA2SoNJ8G7-126" value="" style="shape=tableRow;horizontal=0;startSize=0;swimlaneHead=0;swimlaneBody=0;strokeColor=inherit;top=0;left=0;bottom=0;right=0;collapsible=0;dropTarget=0;fillColor=none;points=[[0,0.5],[1,0.5]];portConstraint=eastwest;fontSize=16;" vertex="1" parent="BsEajPikyEnA2SoNJ8G7-125">
          <mxGeometry width="130" height="23" as="geometry" />
        </mxCell>
        <mxCell id="BsEajPikyEnA2SoNJ8G7-127" value="" style="shape=partialRectangle;html=1;whiteSpace=wrap;connectable=0;strokeColor=inherit;overflow=hidden;fillColor=none;top=0;left=0;bottom=0;right=0;pointerEvents=1;fontSize=16;" vertex="1" parent="BsEajPikyEnA2SoNJ8G7-126">
          <mxGeometry width="44" height="23" as="geometry">
            <mxRectangle width="44" height="23" as="alternateBounds" />
          </mxGeometry>
        </mxCell>
        <mxCell id="BsEajPikyEnA2SoNJ8G7-128" value="" style="shape=partialRectangle;html=1;whiteSpace=wrap;connectable=0;strokeColor=inherit;overflow=hidden;fillColor=none;top=0;left=0;bottom=0;right=0;pointerEvents=1;fontSize=16;" vertex="1" parent="BsEajPikyEnA2SoNJ8G7-126">
          <mxGeometry x="44" width="42" height="23" as="geometry">
            <mxRectangle width="42" height="23" as="alternateBounds" />
          </mxGeometry>
        </mxCell>
        <mxCell id="BsEajPikyEnA2SoNJ8G7-129" value="" style="shape=partialRectangle;html=1;whiteSpace=wrap;connectable=0;strokeColor=inherit;overflow=hidden;fillColor=none;top=0;left=0;bottom=0;right=0;pointerEvents=1;fontSize=16;" vertex="1" parent="BsEajPikyEnA2SoNJ8G7-126">
          <mxGeometry x="86" width="44" height="23" as="geometry">
            <mxRectangle width="44" height="23" as="alternateBounds" />
          </mxGeometry>
        </mxCell>
        <mxCell id="BsEajPikyEnA2SoNJ8G7-130" value="" style="shape=tableRow;horizontal=0;startSize=0;swimlaneHead=0;swimlaneBody=0;strokeColor=inherit;top=0;left=0;bottom=0;right=0;collapsible=0;dropTarget=0;fillColor=none;points=[[0,0.5],[1,0.5]];portConstraint=eastwest;fontSize=16;" vertex="1" parent="BsEajPikyEnA2SoNJ8G7-125">
          <mxGeometry y="23" width="130" height="24" as="geometry" />
        </mxCell>
        <mxCell id="BsEajPikyEnA2SoNJ8G7-131" value="" style="shape=partialRectangle;html=1;whiteSpace=wrap;connectable=0;strokeColor=inherit;overflow=hidden;fillColor=none;top=0;left=0;bottom=0;right=0;pointerEvents=1;fontSize=16;" vertex="1" parent="BsEajPikyEnA2SoNJ8G7-130">
          <mxGeometry width="44" height="24" as="geometry">
            <mxRectangle width="44" height="24" as="alternateBounds" />
          </mxGeometry>
        </mxCell>
        <mxCell id="BsEajPikyEnA2SoNJ8G7-132" value="" style="shape=partialRectangle;html=1;whiteSpace=wrap;connectable=0;strokeColor=inherit;overflow=hidden;fillColor=none;top=0;left=0;bottom=0;right=0;pointerEvents=1;fontSize=16;" vertex="1" parent="BsEajPikyEnA2SoNJ8G7-130">
          <mxGeometry x="44" width="42" height="24" as="geometry">
            <mxRectangle width="42" height="24" as="alternateBounds" />
          </mxGeometry>
        </mxCell>
        <mxCell id="BsEajPikyEnA2SoNJ8G7-133" value="" style="shape=partialRectangle;html=1;whiteSpace=wrap;connectable=0;strokeColor=inherit;overflow=hidden;fillColor=none;top=0;left=0;bottom=0;right=0;pointerEvents=1;fontSize=16;" vertex="1" parent="BsEajPikyEnA2SoNJ8G7-130">
          <mxGeometry x="86" width="44" height="24" as="geometry">
            <mxRectangle width="44" height="24" as="alternateBounds" />
          </mxGeometry>
        </mxCell>
        <mxCell id="BsEajPikyEnA2SoNJ8G7-134" value="" style="shape=tableRow;horizontal=0;startSize=0;swimlaneHead=0;swimlaneBody=0;strokeColor=inherit;top=0;left=0;bottom=0;right=0;collapsible=0;dropTarget=0;fillColor=none;points=[[0,0.5],[1,0.5]];portConstraint=eastwest;fontSize=16;" vertex="1" parent="BsEajPikyEnA2SoNJ8G7-125">
          <mxGeometry y="47" width="130" height="23" as="geometry" />
        </mxCell>
        <mxCell id="BsEajPikyEnA2SoNJ8G7-135" value="" style="shape=partialRectangle;html=1;whiteSpace=wrap;connectable=0;strokeColor=inherit;overflow=hidden;fillColor=none;top=0;left=0;bottom=0;right=0;pointerEvents=1;fontSize=16;" vertex="1" parent="BsEajPikyEnA2SoNJ8G7-134">
          <mxGeometry width="44" height="23" as="geometry">
            <mxRectangle width="44" height="23" as="alternateBounds" />
          </mxGeometry>
        </mxCell>
        <mxCell id="BsEajPikyEnA2SoNJ8G7-136" value="" style="shape=partialRectangle;html=1;whiteSpace=wrap;connectable=0;strokeColor=inherit;overflow=hidden;fillColor=none;top=0;left=0;bottom=0;right=0;pointerEvents=1;fontSize=16;" vertex="1" parent="BsEajPikyEnA2SoNJ8G7-134">
          <mxGeometry x="44" width="42" height="23" as="geometry">
            <mxRectangle width="42" height="23" as="alternateBounds" />
          </mxGeometry>
        </mxCell>
        <mxCell id="BsEajPikyEnA2SoNJ8G7-137" value="" style="shape=partialRectangle;html=1;whiteSpace=wrap;connectable=0;strokeColor=inherit;overflow=hidden;fillColor=none;top=0;left=0;bottom=0;right=0;pointerEvents=1;fontSize=16;" vertex="1" parent="BsEajPikyEnA2SoNJ8G7-134">
          <mxGeometry x="86" width="44" height="23" as="geometry">
            <mxRectangle width="44" height="23" as="alternateBounds" />
          </mxGeometry>
        </mxCell>
        <mxCell id="BsEajPikyEnA2SoNJ8G7-139" value="" style="group" vertex="1" connectable="0" parent="1">
          <mxGeometry x="-520" y="5350" width="260" height="140" as="geometry" />
        </mxCell>
        <mxCell id="BsEajPikyEnA2SoNJ8G7-140" value="" style="shape=table;startSize=0;container=1;collapsible=0;childLayout=tableLayout;fontSize=16;" vertex="1" parent="BsEajPikyEnA2SoNJ8G7-139">
          <mxGeometry x="2" width="130" height="70" as="geometry" />
        </mxCell>
        <mxCell id="BsEajPikyEnA2SoNJ8G7-141" value="" style="shape=tableRow;horizontal=0;startSize=0;swimlaneHead=0;swimlaneBody=0;strokeColor=inherit;top=0;left=0;bottom=0;right=0;collapsible=0;dropTarget=0;fillColor=none;points=[[0,0.5],[1,0.5]];portConstraint=eastwest;fontSize=16;" vertex="1" parent="BsEajPikyEnA2SoNJ8G7-140">
          <mxGeometry width="130" height="23" as="geometry" />
        </mxCell>
        <mxCell id="BsEajPikyEnA2SoNJ8G7-142" value="" style="shape=partialRectangle;html=1;whiteSpace=wrap;connectable=0;strokeColor=inherit;overflow=hidden;fillColor=none;top=0;left=0;bottom=0;right=0;pointerEvents=1;fontSize=16;" vertex="1" parent="BsEajPikyEnA2SoNJ8G7-141">
          <mxGeometry width="44" height="23" as="geometry">
            <mxRectangle width="44" height="23" as="alternateBounds" />
          </mxGeometry>
        </mxCell>
        <mxCell id="BsEajPikyEnA2SoNJ8G7-143" value="" style="shape=partialRectangle;html=1;whiteSpace=wrap;connectable=0;strokeColor=inherit;overflow=hidden;fillColor=none;top=0;left=0;bottom=0;right=0;pointerEvents=1;fontSize=16;" vertex="1" parent="BsEajPikyEnA2SoNJ8G7-141">
          <mxGeometry x="44" width="42" height="23" as="geometry">
            <mxRectangle width="42" height="23" as="alternateBounds" />
          </mxGeometry>
        </mxCell>
        <mxCell id="BsEajPikyEnA2SoNJ8G7-144" value="" style="shape=partialRectangle;html=1;whiteSpace=wrap;connectable=0;strokeColor=inherit;overflow=hidden;fillColor=none;top=0;left=0;bottom=0;right=0;pointerEvents=1;fontSize=16;" vertex="1" parent="BsEajPikyEnA2SoNJ8G7-141">
          <mxGeometry x="86" width="44" height="23" as="geometry">
            <mxRectangle width="44" height="23" as="alternateBounds" />
          </mxGeometry>
        </mxCell>
        <mxCell id="BsEajPikyEnA2SoNJ8G7-145" value="" style="shape=tableRow;horizontal=0;startSize=0;swimlaneHead=0;swimlaneBody=0;strokeColor=inherit;top=0;left=0;bottom=0;right=0;collapsible=0;dropTarget=0;fillColor=none;points=[[0,0.5],[1,0.5]];portConstraint=eastwest;fontSize=16;" vertex="1" parent="BsEajPikyEnA2SoNJ8G7-140">
          <mxGeometry y="23" width="130" height="24" as="geometry" />
        </mxCell>
        <mxCell id="BsEajPikyEnA2SoNJ8G7-146" value="" style="shape=partialRectangle;html=1;whiteSpace=wrap;connectable=0;strokeColor=inherit;overflow=hidden;fillColor=none;top=0;left=0;bottom=0;right=0;pointerEvents=1;fontSize=16;" vertex="1" parent="BsEajPikyEnA2SoNJ8G7-145">
          <mxGeometry width="44" height="24" as="geometry">
            <mxRectangle width="44" height="24" as="alternateBounds" />
          </mxGeometry>
        </mxCell>
        <mxCell id="BsEajPikyEnA2SoNJ8G7-147" value="" style="shape=partialRectangle;html=1;whiteSpace=wrap;connectable=0;strokeColor=inherit;overflow=hidden;fillColor=none;top=0;left=0;bottom=0;right=0;pointerEvents=1;fontSize=16;" vertex="1" parent="BsEajPikyEnA2SoNJ8G7-145">
          <mxGeometry x="44" width="42" height="24" as="geometry">
            <mxRectangle width="42" height="24" as="alternateBounds" />
          </mxGeometry>
        </mxCell>
        <mxCell id="BsEajPikyEnA2SoNJ8G7-148" value="" style="shape=partialRectangle;html=1;whiteSpace=wrap;connectable=0;strokeColor=inherit;overflow=hidden;fillColor=none;top=0;left=0;bottom=0;right=0;pointerEvents=1;fontSize=16;" vertex="1" parent="BsEajPikyEnA2SoNJ8G7-145">
          <mxGeometry x="86" width="44" height="24" as="geometry">
            <mxRectangle width="44" height="24" as="alternateBounds" />
          </mxGeometry>
        </mxCell>
        <mxCell id="BsEajPikyEnA2SoNJ8G7-149" value="" style="shape=tableRow;horizontal=0;startSize=0;swimlaneHead=0;swimlaneBody=0;strokeColor=inherit;top=0;left=0;bottom=0;right=0;collapsible=0;dropTarget=0;fillColor=none;points=[[0,0.5],[1,0.5]];portConstraint=eastwest;fontSize=16;" vertex="1" parent="BsEajPikyEnA2SoNJ8G7-140">
          <mxGeometry y="47" width="130" height="23" as="geometry" />
        </mxCell>
        <mxCell id="BsEajPikyEnA2SoNJ8G7-150" value="" style="shape=partialRectangle;html=1;whiteSpace=wrap;connectable=0;strokeColor=inherit;overflow=hidden;fillColor=none;top=0;left=0;bottom=0;right=0;pointerEvents=1;fontSize=16;" vertex="1" parent="BsEajPikyEnA2SoNJ8G7-149">
          <mxGeometry width="44" height="23" as="geometry">
            <mxRectangle width="44" height="23" as="alternateBounds" />
          </mxGeometry>
        </mxCell>
        <mxCell id="BsEajPikyEnA2SoNJ8G7-151" value="" style="shape=partialRectangle;html=1;whiteSpace=wrap;connectable=0;strokeColor=inherit;overflow=hidden;fillColor=none;top=0;left=0;bottom=0;right=0;pointerEvents=1;fontSize=16;" vertex="1" parent="BsEajPikyEnA2SoNJ8G7-149">
          <mxGeometry x="44" width="42" height="23" as="geometry">
            <mxRectangle width="42" height="23" as="alternateBounds" />
          </mxGeometry>
        </mxCell>
        <mxCell id="BsEajPikyEnA2SoNJ8G7-152" value="" style="shape=partialRectangle;html=1;whiteSpace=wrap;connectable=0;strokeColor=inherit;overflow=hidden;fillColor=none;top=0;left=0;bottom=0;right=0;pointerEvents=1;fontSize=16;" vertex="1" parent="BsEajPikyEnA2SoNJ8G7-149">
          <mxGeometry x="86" width="44" height="23" as="geometry">
            <mxRectangle width="44" height="23" as="alternateBounds" />
          </mxGeometry>
        </mxCell>
        <mxCell id="BsEajPikyEnA2SoNJ8G7-153" value="" style="shape=table;startSize=0;container=1;collapsible=0;childLayout=tableLayout;fontSize=16;" vertex="1" parent="BsEajPikyEnA2SoNJ8G7-139">
          <mxGeometry x="130" width="130" height="70" as="geometry" />
        </mxCell>
        <mxCell id="BsEajPikyEnA2SoNJ8G7-154" value="" style="shape=tableRow;horizontal=0;startSize=0;swimlaneHead=0;swimlaneBody=0;strokeColor=inherit;top=0;left=0;bottom=0;right=0;collapsible=0;dropTarget=0;fillColor=none;points=[[0,0.5],[1,0.5]];portConstraint=eastwest;fontSize=16;" vertex="1" parent="BsEajPikyEnA2SoNJ8G7-153">
          <mxGeometry width="130" height="23" as="geometry" />
        </mxCell>
        <mxCell id="BsEajPikyEnA2SoNJ8G7-155" value="" style="shape=partialRectangle;html=1;whiteSpace=wrap;connectable=0;strokeColor=inherit;overflow=hidden;fillColor=none;top=0;left=0;bottom=0;right=0;pointerEvents=1;fontSize=16;" vertex="1" parent="BsEajPikyEnA2SoNJ8G7-154">
          <mxGeometry width="44" height="23" as="geometry">
            <mxRectangle width="44" height="23" as="alternateBounds" />
          </mxGeometry>
        </mxCell>
        <mxCell id="BsEajPikyEnA2SoNJ8G7-156" value="" style="shape=partialRectangle;html=1;whiteSpace=wrap;connectable=0;strokeColor=inherit;overflow=hidden;fillColor=none;top=0;left=0;bottom=0;right=0;pointerEvents=1;fontSize=16;" vertex="1" parent="BsEajPikyEnA2SoNJ8G7-154">
          <mxGeometry x="44" width="42" height="23" as="geometry">
            <mxRectangle width="42" height="23" as="alternateBounds" />
          </mxGeometry>
        </mxCell>
        <mxCell id="BsEajPikyEnA2SoNJ8G7-157" value="" style="shape=partialRectangle;html=1;whiteSpace=wrap;connectable=0;strokeColor=inherit;overflow=hidden;fillColor=none;top=0;left=0;bottom=0;right=0;pointerEvents=1;fontSize=16;" vertex="1" parent="BsEajPikyEnA2SoNJ8G7-154">
          <mxGeometry x="86" width="44" height="23" as="geometry">
            <mxRectangle width="44" height="23" as="alternateBounds" />
          </mxGeometry>
        </mxCell>
        <mxCell id="BsEajPikyEnA2SoNJ8G7-158" value="" style="shape=tableRow;horizontal=0;startSize=0;swimlaneHead=0;swimlaneBody=0;strokeColor=inherit;top=0;left=0;bottom=0;right=0;collapsible=0;dropTarget=0;fillColor=none;points=[[0,0.5],[1,0.5]];portConstraint=eastwest;fontSize=16;" vertex="1" parent="BsEajPikyEnA2SoNJ8G7-153">
          <mxGeometry y="23" width="130" height="24" as="geometry" />
        </mxCell>
        <mxCell id="BsEajPikyEnA2SoNJ8G7-159" value="" style="shape=partialRectangle;html=1;whiteSpace=wrap;connectable=0;strokeColor=inherit;overflow=hidden;fillColor=none;top=0;left=0;bottom=0;right=0;pointerEvents=1;fontSize=16;" vertex="1" parent="BsEajPikyEnA2SoNJ8G7-158">
          <mxGeometry width="44" height="24" as="geometry">
            <mxRectangle width="44" height="24" as="alternateBounds" />
          </mxGeometry>
        </mxCell>
        <mxCell id="BsEajPikyEnA2SoNJ8G7-160" value="" style="shape=partialRectangle;html=1;whiteSpace=wrap;connectable=0;strokeColor=inherit;overflow=hidden;fillColor=none;top=0;left=0;bottom=0;right=0;pointerEvents=1;fontSize=16;" vertex="1" parent="BsEajPikyEnA2SoNJ8G7-158">
          <mxGeometry x="44" width="42" height="24" as="geometry">
            <mxRectangle width="42" height="24" as="alternateBounds" />
          </mxGeometry>
        </mxCell>
        <mxCell id="BsEajPikyEnA2SoNJ8G7-161" value="" style="shape=partialRectangle;html=1;whiteSpace=wrap;connectable=0;strokeColor=inherit;overflow=hidden;fillColor=none;top=0;left=0;bottom=0;right=0;pointerEvents=1;fontSize=16;" vertex="1" parent="BsEajPikyEnA2SoNJ8G7-158">
          <mxGeometry x="86" width="44" height="24" as="geometry">
            <mxRectangle width="44" height="24" as="alternateBounds" />
          </mxGeometry>
        </mxCell>
        <mxCell id="BsEajPikyEnA2SoNJ8G7-162" value="" style="shape=tableRow;horizontal=0;startSize=0;swimlaneHead=0;swimlaneBody=0;strokeColor=inherit;top=0;left=0;bottom=0;right=0;collapsible=0;dropTarget=0;fillColor=none;points=[[0,0.5],[1,0.5]];portConstraint=eastwest;fontSize=16;" vertex="1" parent="BsEajPikyEnA2SoNJ8G7-153">
          <mxGeometry y="47" width="130" height="23" as="geometry" />
        </mxCell>
        <mxCell id="BsEajPikyEnA2SoNJ8G7-163" value="" style="shape=partialRectangle;html=1;whiteSpace=wrap;connectable=0;strokeColor=inherit;overflow=hidden;fillColor=none;top=0;left=0;bottom=0;right=0;pointerEvents=1;fontSize=16;" vertex="1" parent="BsEajPikyEnA2SoNJ8G7-162">
          <mxGeometry width="44" height="23" as="geometry">
            <mxRectangle width="44" height="23" as="alternateBounds" />
          </mxGeometry>
        </mxCell>
        <mxCell id="BsEajPikyEnA2SoNJ8G7-164" value="" style="shape=partialRectangle;html=1;whiteSpace=wrap;connectable=0;strokeColor=inherit;overflow=hidden;fillColor=none;top=0;left=0;bottom=0;right=0;pointerEvents=1;fontSize=16;" vertex="1" parent="BsEajPikyEnA2SoNJ8G7-162">
          <mxGeometry x="44" width="42" height="23" as="geometry">
            <mxRectangle width="42" height="23" as="alternateBounds" />
          </mxGeometry>
        </mxCell>
        <mxCell id="BsEajPikyEnA2SoNJ8G7-165" value="" style="shape=partialRectangle;html=1;whiteSpace=wrap;connectable=0;strokeColor=inherit;overflow=hidden;fillColor=none;top=0;left=0;bottom=0;right=0;pointerEvents=1;fontSize=16;" vertex="1" parent="BsEajPikyEnA2SoNJ8G7-162">
          <mxGeometry x="86" width="44" height="23" as="geometry">
            <mxRectangle width="44" height="23" as="alternateBounds" />
          </mxGeometry>
        </mxCell>
        <mxCell id="BsEajPikyEnA2SoNJ8G7-166" value="" style="shape=table;startSize=0;container=1;collapsible=0;childLayout=tableLayout;fontSize=16;" vertex="1" parent="BsEajPikyEnA2SoNJ8G7-139">
          <mxGeometry y="70" width="130" height="70" as="geometry" />
        </mxCell>
        <mxCell id="BsEajPikyEnA2SoNJ8G7-167" value="" style="shape=tableRow;horizontal=0;startSize=0;swimlaneHead=0;swimlaneBody=0;strokeColor=inherit;top=0;left=0;bottom=0;right=0;collapsible=0;dropTarget=0;fillColor=none;points=[[0,0.5],[1,0.5]];portConstraint=eastwest;fontSize=16;" vertex="1" parent="BsEajPikyEnA2SoNJ8G7-166">
          <mxGeometry width="130" height="23" as="geometry" />
        </mxCell>
        <mxCell id="BsEajPikyEnA2SoNJ8G7-168" value="" style="shape=partialRectangle;html=1;whiteSpace=wrap;connectable=0;strokeColor=inherit;overflow=hidden;fillColor=none;top=0;left=0;bottom=0;right=0;pointerEvents=1;fontSize=16;" vertex="1" parent="BsEajPikyEnA2SoNJ8G7-167">
          <mxGeometry width="44" height="23" as="geometry">
            <mxRectangle width="44" height="23" as="alternateBounds" />
          </mxGeometry>
        </mxCell>
        <mxCell id="BsEajPikyEnA2SoNJ8G7-169" value="" style="shape=partialRectangle;html=1;whiteSpace=wrap;connectable=0;strokeColor=inherit;overflow=hidden;fillColor=none;top=0;left=0;bottom=0;right=0;pointerEvents=1;fontSize=16;" vertex="1" parent="BsEajPikyEnA2SoNJ8G7-167">
          <mxGeometry x="44" width="42" height="23" as="geometry">
            <mxRectangle width="42" height="23" as="alternateBounds" />
          </mxGeometry>
        </mxCell>
        <mxCell id="BsEajPikyEnA2SoNJ8G7-170" value="" style="shape=partialRectangle;html=1;whiteSpace=wrap;connectable=0;strokeColor=inherit;overflow=hidden;fillColor=none;top=0;left=0;bottom=0;right=0;pointerEvents=1;fontSize=16;" vertex="1" parent="BsEajPikyEnA2SoNJ8G7-167">
          <mxGeometry x="86" width="44" height="23" as="geometry">
            <mxRectangle width="44" height="23" as="alternateBounds" />
          </mxGeometry>
        </mxCell>
        <mxCell id="BsEajPikyEnA2SoNJ8G7-171" value="" style="shape=tableRow;horizontal=0;startSize=0;swimlaneHead=0;swimlaneBody=0;strokeColor=inherit;top=0;left=0;bottom=0;right=0;collapsible=0;dropTarget=0;fillColor=none;points=[[0,0.5],[1,0.5]];portConstraint=eastwest;fontSize=16;" vertex="1" parent="BsEajPikyEnA2SoNJ8G7-166">
          <mxGeometry y="23" width="130" height="24" as="geometry" />
        </mxCell>
        <mxCell id="BsEajPikyEnA2SoNJ8G7-172" value="" style="shape=partialRectangle;html=1;whiteSpace=wrap;connectable=0;strokeColor=inherit;overflow=hidden;fillColor=none;top=0;left=0;bottom=0;right=0;pointerEvents=1;fontSize=16;" vertex="1" parent="BsEajPikyEnA2SoNJ8G7-171">
          <mxGeometry width="44" height="24" as="geometry">
            <mxRectangle width="44" height="24" as="alternateBounds" />
          </mxGeometry>
        </mxCell>
        <mxCell id="BsEajPikyEnA2SoNJ8G7-173" value="" style="shape=partialRectangle;html=1;whiteSpace=wrap;connectable=0;strokeColor=inherit;overflow=hidden;fillColor=none;top=0;left=0;bottom=0;right=0;pointerEvents=1;fontSize=16;" vertex="1" parent="BsEajPikyEnA2SoNJ8G7-171">
          <mxGeometry x="44" width="42" height="24" as="geometry">
            <mxRectangle width="42" height="24" as="alternateBounds" />
          </mxGeometry>
        </mxCell>
        <mxCell id="BsEajPikyEnA2SoNJ8G7-174" value="" style="shape=partialRectangle;html=1;whiteSpace=wrap;connectable=0;strokeColor=inherit;overflow=hidden;fillColor=none;top=0;left=0;bottom=0;right=0;pointerEvents=1;fontSize=16;" vertex="1" parent="BsEajPikyEnA2SoNJ8G7-171">
          <mxGeometry x="86" width="44" height="24" as="geometry">
            <mxRectangle width="44" height="24" as="alternateBounds" />
          </mxGeometry>
        </mxCell>
        <mxCell id="BsEajPikyEnA2SoNJ8G7-175" value="" style="shape=tableRow;horizontal=0;startSize=0;swimlaneHead=0;swimlaneBody=0;strokeColor=inherit;top=0;left=0;bottom=0;right=0;collapsible=0;dropTarget=0;fillColor=none;points=[[0,0.5],[1,0.5]];portConstraint=eastwest;fontSize=16;" vertex="1" parent="BsEajPikyEnA2SoNJ8G7-166">
          <mxGeometry y="47" width="130" height="23" as="geometry" />
        </mxCell>
        <mxCell id="BsEajPikyEnA2SoNJ8G7-176" value="" style="shape=partialRectangle;html=1;whiteSpace=wrap;connectable=0;strokeColor=inherit;overflow=hidden;fillColor=none;top=0;left=0;bottom=0;right=0;pointerEvents=1;fontSize=16;" vertex="1" parent="BsEajPikyEnA2SoNJ8G7-175">
          <mxGeometry width="44" height="23" as="geometry">
            <mxRectangle width="44" height="23" as="alternateBounds" />
          </mxGeometry>
        </mxCell>
        <mxCell id="BsEajPikyEnA2SoNJ8G7-177" value="" style="shape=partialRectangle;html=1;whiteSpace=wrap;connectable=0;strokeColor=inherit;overflow=hidden;fillColor=none;top=0;left=0;bottom=0;right=0;pointerEvents=1;fontSize=16;" vertex="1" parent="BsEajPikyEnA2SoNJ8G7-175">
          <mxGeometry x="44" width="42" height="23" as="geometry">
            <mxRectangle width="42" height="23" as="alternateBounds" />
          </mxGeometry>
        </mxCell>
        <mxCell id="BsEajPikyEnA2SoNJ8G7-178" value="" style="shape=partialRectangle;html=1;whiteSpace=wrap;connectable=0;strokeColor=inherit;overflow=hidden;fillColor=none;top=0;left=0;bottom=0;right=0;pointerEvents=1;fontSize=16;" vertex="1" parent="BsEajPikyEnA2SoNJ8G7-175">
          <mxGeometry x="86" width="44" height="23" as="geometry">
            <mxRectangle width="44" height="23" as="alternateBounds" />
          </mxGeometry>
        </mxCell>
        <mxCell id="BsEajPikyEnA2SoNJ8G7-179" value="" style="shape=table;startSize=0;container=1;collapsible=0;childLayout=tableLayout;fontSize=16;" vertex="1" parent="BsEajPikyEnA2SoNJ8G7-139">
          <mxGeometry x="130" y="70" width="130" height="70" as="geometry" />
        </mxCell>
        <mxCell id="BsEajPikyEnA2SoNJ8G7-180" value="" style="shape=tableRow;horizontal=0;startSize=0;swimlaneHead=0;swimlaneBody=0;strokeColor=inherit;top=0;left=0;bottom=0;right=0;collapsible=0;dropTarget=0;fillColor=none;points=[[0,0.5],[1,0.5]];portConstraint=eastwest;fontSize=16;" vertex="1" parent="BsEajPikyEnA2SoNJ8G7-179">
          <mxGeometry width="130" height="23" as="geometry" />
        </mxCell>
        <mxCell id="BsEajPikyEnA2SoNJ8G7-181" value="" style="shape=partialRectangle;html=1;whiteSpace=wrap;connectable=0;strokeColor=inherit;overflow=hidden;fillColor=none;top=0;left=0;bottom=0;right=0;pointerEvents=1;fontSize=16;" vertex="1" parent="BsEajPikyEnA2SoNJ8G7-180">
          <mxGeometry width="44" height="23" as="geometry">
            <mxRectangle width="44" height="23" as="alternateBounds" />
          </mxGeometry>
        </mxCell>
        <mxCell id="BsEajPikyEnA2SoNJ8G7-182" value="" style="shape=partialRectangle;html=1;whiteSpace=wrap;connectable=0;strokeColor=inherit;overflow=hidden;fillColor=none;top=0;left=0;bottom=0;right=0;pointerEvents=1;fontSize=16;" vertex="1" parent="BsEajPikyEnA2SoNJ8G7-180">
          <mxGeometry x="44" width="42" height="23" as="geometry">
            <mxRectangle width="42" height="23" as="alternateBounds" />
          </mxGeometry>
        </mxCell>
        <mxCell id="BsEajPikyEnA2SoNJ8G7-183" value="" style="shape=partialRectangle;html=1;whiteSpace=wrap;connectable=0;strokeColor=inherit;overflow=hidden;fillColor=none;top=0;left=0;bottom=0;right=0;pointerEvents=1;fontSize=16;" vertex="1" parent="BsEajPikyEnA2SoNJ8G7-180">
          <mxGeometry x="86" width="44" height="23" as="geometry">
            <mxRectangle width="44" height="23" as="alternateBounds" />
          </mxGeometry>
        </mxCell>
        <mxCell id="BsEajPikyEnA2SoNJ8G7-184" value="" style="shape=tableRow;horizontal=0;startSize=0;swimlaneHead=0;swimlaneBody=0;strokeColor=inherit;top=0;left=0;bottom=0;right=0;collapsible=0;dropTarget=0;fillColor=none;points=[[0,0.5],[1,0.5]];portConstraint=eastwest;fontSize=16;" vertex="1" parent="BsEajPikyEnA2SoNJ8G7-179">
          <mxGeometry y="23" width="130" height="24" as="geometry" />
        </mxCell>
        <mxCell id="BsEajPikyEnA2SoNJ8G7-185" value="" style="shape=partialRectangle;html=1;whiteSpace=wrap;connectable=0;strokeColor=inherit;overflow=hidden;fillColor=none;top=0;left=0;bottom=0;right=0;pointerEvents=1;fontSize=16;" vertex="1" parent="BsEajPikyEnA2SoNJ8G7-184">
          <mxGeometry width="44" height="24" as="geometry">
            <mxRectangle width="44" height="24" as="alternateBounds" />
          </mxGeometry>
        </mxCell>
        <mxCell id="BsEajPikyEnA2SoNJ8G7-186" value="" style="shape=partialRectangle;html=1;whiteSpace=wrap;connectable=0;strokeColor=inherit;overflow=hidden;fillColor=none;top=0;left=0;bottom=0;right=0;pointerEvents=1;fontSize=16;" vertex="1" parent="BsEajPikyEnA2SoNJ8G7-184">
          <mxGeometry x="44" width="42" height="24" as="geometry">
            <mxRectangle width="42" height="24" as="alternateBounds" />
          </mxGeometry>
        </mxCell>
        <mxCell id="BsEajPikyEnA2SoNJ8G7-187" value="" style="shape=partialRectangle;html=1;whiteSpace=wrap;connectable=0;strokeColor=inherit;overflow=hidden;fillColor=none;top=0;left=0;bottom=0;right=0;pointerEvents=1;fontSize=16;" vertex="1" parent="BsEajPikyEnA2SoNJ8G7-184">
          <mxGeometry x="86" width="44" height="24" as="geometry">
            <mxRectangle width="44" height="24" as="alternateBounds" />
          </mxGeometry>
        </mxCell>
        <mxCell id="BsEajPikyEnA2SoNJ8G7-188" value="" style="shape=tableRow;horizontal=0;startSize=0;swimlaneHead=0;swimlaneBody=0;strokeColor=inherit;top=0;left=0;bottom=0;right=0;collapsible=0;dropTarget=0;fillColor=none;points=[[0,0.5],[1,0.5]];portConstraint=eastwest;fontSize=16;" vertex="1" parent="BsEajPikyEnA2SoNJ8G7-179">
          <mxGeometry y="47" width="130" height="23" as="geometry" />
        </mxCell>
        <mxCell id="BsEajPikyEnA2SoNJ8G7-189" value="" style="shape=partialRectangle;html=1;whiteSpace=wrap;connectable=0;strokeColor=inherit;overflow=hidden;fillColor=none;top=0;left=0;bottom=0;right=0;pointerEvents=1;fontSize=16;" vertex="1" parent="BsEajPikyEnA2SoNJ8G7-188">
          <mxGeometry width="44" height="23" as="geometry">
            <mxRectangle width="44" height="23" as="alternateBounds" />
          </mxGeometry>
        </mxCell>
        <mxCell id="BsEajPikyEnA2SoNJ8G7-190" value="" style="shape=partialRectangle;html=1;whiteSpace=wrap;connectable=0;strokeColor=inherit;overflow=hidden;fillColor=none;top=0;left=0;bottom=0;right=0;pointerEvents=1;fontSize=16;" vertex="1" parent="BsEajPikyEnA2SoNJ8G7-188">
          <mxGeometry x="44" width="42" height="23" as="geometry">
            <mxRectangle width="42" height="23" as="alternateBounds" />
          </mxGeometry>
        </mxCell>
        <mxCell id="BsEajPikyEnA2SoNJ8G7-191" value="" style="shape=partialRectangle;html=1;whiteSpace=wrap;connectable=0;strokeColor=inherit;overflow=hidden;fillColor=none;top=0;left=0;bottom=0;right=0;pointerEvents=1;fontSize=16;" vertex="1" parent="BsEajPikyEnA2SoNJ8G7-188">
          <mxGeometry x="86" width="44" height="23" as="geometry">
            <mxRectangle width="44" height="23" as="alternateBounds" />
          </mxGeometry>
        </mxCell>
        <mxCell id="BsEajPikyEnA2SoNJ8G7-192" value="" style="shape=image;verticalLabelPosition=bottom;labelBackgroundColor=default;verticalAlign=top;aspect=fixed;imageAspect=0;image=data:image/png,iVBORw0KGgoAAAANSUhEUgAAARkAAAEaCAYAAAAlhCO5AAABXWlDQ1BJQ0MgUHJvZmlsZQAAKJF1kL1LQmEUxn+aImT0ATX0MbgKfdolWyJMIoICU6OP7Xo1LdQu1xtRc2NDUwU1O7UFOUX9D0VBc0NzgQQVt3O1UoteODy/83DOy+EBZ7uq61kXkMubRnRmyre8surzPOGljU566VK1gh6KROZkhG9tfOU7HLbeDNh/+Ucyyv7uxFHxpPu5aej09e98w2tOpgqa6LvUmKYbJjgU4ci2qdu8J9xpyFHCxzanq3xmc6LK15WZeDQsfCvcrmXUpPCjcH+izk/XcS67pX3dYF/fksovxkR7pPqYJ8YsPmYIECTMAop009Lxz55S2Quzic4OBuukyWDKVkgcnSwp4VnyaAzSLxxgWEqx8/6dY83bOYDxSXC6a168Fc4voOOy5vmDEoEXrjZ01VB/0nWUXYW10UCVvSVwH1rWyxJ4/PBxb1lvJcv6KELTA1yXPwEWvGG+xsJfigAAAGJlWElmTU0AKgAAAAgAAgESAAMAAAABAAEAAIdpAAQAAAABAAAAJgAAAAAAA5KGAAcAAAASAAAAUKACAAQAAAABAAABGaADAAQAAAABAAABGgAAAABBU0NJSQAAAFNjcmVlbnNob3S9G4h7AAACPWlUWHRYTUw6Y29tLmFkb2JlLnhtcAAAAAAAPHg6eG1wbWV0YSB4bWxuczp4PSJhZG9iZTpuczptZXRhLyIgeDp4bXB0az0iWE1QIENvcmUgNi4wLjAiPgogICA8cmRmOlJERiB4bWxuczpyZGY9Imh0dHA6Ly93d3cudzMub3JnLzE5OTkvMDIvMjItcmRmLXN5bnRheC1ucyMiPgogICAgICA8cmRmOkRlc2NyaXB0aW9uIHJkZjphYm91dD0iIgogICAgICAgICAgICB4bWxuczpleGlmPSJodHRwOi8vbnMuYWRvYmUuY29tL2V4aWYvMS4wLyIKICAgICAgICAgICAgeG1sbnM6dGlmZj0iaHR0cDovL25zLmFkb2JlLmNvbS90aWZmLzEuMC8iPgogICAgICAgICA8ZXhpZjpQaXhlbFlEaW1lbnNpb24+MjgyPC9leGlmOlBpeGVsWURpbWVuc2lvbj4KICAgICAgICAgPGV4aWY6VXNlckNvbW1lbnQ+U2NyZWVuc2hvdDwvZXhpZjpVc2VyQ29tbWVudD4KICAgICAgICAgPGV4aWY6UGl4ZWxYRGltZW5zaW9uPjI4MTwvZXhpZjpQaXhlbFhEaW1lbnNpb24+CiAgICAgICAgIDx0aWZmOk9yaWVudGF0aW9uPjE8L3RpZmY6T3JpZW50YXRpb24+CiAgICAgIDwvcmRmOkRlc2NyaXB0aW9uPgogICA8L3JkZjpSREY+CjwveDp4bXBtZXRhPgrO+xJbAAA10klEQVR4Ae2dR5Ad1fX/z0gjaRRmRjmHUdYooCywJX4gkYSgEMEFfygvbGOz9cILl1eucnnjhTemXF64bKtcVAHGGBCiECCEZMnKGeU4yjnn/H+fQ93habI0r3t6+n1vVeu9ea9f33O/957vPalbBaWlpXdNTQgIASEQEQItIrquLisEhIAQcAREMloIQkAIRIqASCZSeHVxISAERDJaA0JACESKgEgmUnh1cSEgBEQyWgNCQAhEioBIJlJ4dXEhIAREMloDQkAIRIqASCZSeHVxISAERDJaA0JACESKgEgmUnh1cSEgBEQyWgNCQAhEioBIJlJ4dXEhIAREMloDQkAIRIqASCZSeHVxISAERDJaA0JACESKgEgmUnh1cSEgBEQyWgNCQAhEioBIJlJ4dXEhIAREMloDQkAIRIqASCZSeHVxISAECgWBEKgPge7du1vfvn2tpKTEWrZsadeuXbODBw/a6dOn7fLly/X9XN/nOQIimTxfAA0Z/ogRI+zll1+2wYMHW7t27ezEiRP2ySef2IoVK0QyDQEwz88RyeT5AmjI8MvKymzGjBlWXFxsLVq0MCybq1evOtlUVFQ05BI6J48REMnk8eTXN/RWrVpZp06drH///u4uQTC0oqIiGzdunC1YsKC+S+h7IWAK/GoR1IpA69atbeTIkTZgwAC3YO7evWscfE6MBgIiRlNQUFDrNfSFEBDJaA3UikDbtm1t4sSJHou5ffu2Xbx40a5fv+6kUlhYaD169HCyweJREwK1ISCSqQ0Zfe4Wy4jyEda7d2+7ceOG7du3z44dO+bvsV7KMrGaUaNGufskuIRAbQiIZGpDJs8/J/7Spk2bjKvU3zp36exZpE2bNtnu3bvdorlz544NHTrUpkyZIpLJ87VS3/AV+K0PoTz9vkOHDtanTx8r7lBirQpb2aVLlzxlHWIx5eXlnmWCaOQu5ekiaeCwRTINBCrfTuvZs6eNHTvWIBuCvRTd7dq1ywvwevXq5cFgivOIy5Dahmhu3ryZbzBpvA1AQO5SA0DKx1NIW0+dOtWrfCGPCxcu2PHjx2379u22fv16Jx2yTBAMRNO+fft8hEljbgACsmQaAFI+nkLBHZW+1MScP3/ejh496pbK2bNnjdgM7hMWTmlpqU2bNs34/Ny5c/kIlcZcDwKyZOoBKN++DgFfamCwUHCDIBhcJSwa7ls6c+aMEwrpbG4zIM1N/EZNCNSEgEimJlTy+DOK67BOIBlcIEjn0KFDtnnzZq+RwXqBbE6ePOkuFLU0FOxBSCrKy+OFU8fQRTJ1gJOPX0EakydPdlcpjB8rZu3atX6/Ep9BMsRmsHAoyoOQiM3wPtx6EH6rVyGgmIzWwD0IEIMZP368F9qFL4YMGeI3SEIu1MeQVRo2bJi/Yr0QAMZdojjvwIEDbvGE3+pVCIhktAbuQSDcr5QdY3nuuefs2WefrTwPYgkHH/KeehksINwoYjVqQiAgIHcpIKFXd3UgmS5dutyTkoZEcIPCkU0wATZS3tTVUCWsJgSyEZAlk41Gnr/v2LGjDRo0yGMskA2p65UrV9qRI0f8VoKq8AwfPtzGjBljXbt29erfgQMHqvq3Kkj620QyWgSVCOAiTZo0yYO4fMgT8ObMmeNB31OnTlWeF97MnDnT3nzzTf8NcRpqawgcY/EQu1ETAiAgd0nroBKBQDKkrnm0A7cS7N+/3wvtII2qB6ltsk5XrlzxuAxEM3r0aE9nV15Ub/IeAZFM3i+B7wHo1q2bZ43IMEEwWC/cTsBjHqiPqXqQwt6wYUOlKwU5YQllB42/v7re5SsCIpl8nfmscRPIDUV43PxIlS+3CRw+fNhu3bqVdea9byGhbdu2VT76gZspRTL3YqS/5C5pDWQQgFT69evnbg4FdZAOrtCWLVvqTEdj2UBC3GbAvUwEi8sytTIU56kJgYCAAr8BiTx+hSyobVm9erW9/fbbjgRVvtwIyf9KUFvjd7hTH330kcdmcLNCNXBtv9Hn+YdAQeY+lbv5N2yNWAgIgbgQUEwmLqTVjxDIUwREMnk68Rq2EIgLAZFMXEirHyGQpwiIZPJ04jVsIRAXAiKZuJBWP0IgTxEQyeTpxGvYQiAuBEQycSGtfoRAniIgksnTidewhUBcCIhk4kJa/QiBPEVAJJOnE69hC4G4EBDJxIW0+hECeYqASCZPJ17DFgJxISCSiQtp9SME8hQBkUyeTryGLQTiQkAkExfS6kcI5CkCIpk8nXgNWwjEhYBIJi6k1Y8QyFMERDJ5OvEathCICwGRTFxIqx8hkKcIiGTydOI1bCEQFwIimbiQVj9CIE8REMnk6cRr2EIgLgREMnEhrX6EQJ4iIJLJ04nXsIVAXAiIZOJCWv0IgTxFQCSTpxOvYQuBuBAQycSFtPoRAnmKgEgmTydewxYCcSFQGFdH6idaBFq1amVdu3a1Hj16WJcuXbyzixcv2smTJ+3w4cN248aNaAXIXB0ZunXr5jJ07ty5Wn93796127dv27Vr1+zSpUt29uxZl+/mzZvVztUH6UFAJJOSuSwqKrJx48bZ9OnTbeLEiT6q3bt327Jly2zu3LmxkAwyjB079h4ZsuG9deuWy3Hq1Cnbt2+fbdmyxZYvX25nzpzxzyEhDrV0ISCSScl8tmvXzh5//HGbOnWq9e3b10eFZVNYWGhfffWVWw1RDxVLZtCgQTZixAgbMmRIjd3duXPHCQVCnDFjhr3yyiv22Wef2ddff22nT582WTU1wtasPxTJNOvp+074goICa9u2rQ0fPtzKysqsffv2/gXEM3DgQMN1QYGvX78e6WhbtmxpJSUlVlpa6ged4a5x0Pi+devWLl/Pnj1d1vLycmvRooVBPp9//rmdO3fOz9U/6UFAJJOCucRagViwXCAWGm4HlkVxcbH17t3bjh07FjnJVIUSGXbt2mWrVq3yrwLBIM/gwYOtX79+TjpYYMiJ63ThwgUnnKrX0t/NFwGRTPOdu0rJUdoJEyZYhw4d/DOCq8Q/sBCwLHChiINwxN1Wrlxpc+bM8W6xuII1M3PmTHvttdfcmoF8sH4IWiMjQWG19CAgkknBXPbp08cmTZrkJINLhJJyoLhYNgSCV69ebevWrYt1tFgykMb+/fur9Yu7NGbMGCcWAsbI2atXLz9XJFMNrmb9gepkmvX0fSd8IBlcJtyNgwcP2s6dOz0WggITq+nevbthSSSlEXuBfEKcCAuH2BGxJbV0ISBLJgXzicUC0eB2HD161C2WQ4cOOakMHTrULRrcJggHpSbI2lQNouMoywSop02b5u4cFg/Wy8aNG+348eNNJZr6jQgBkUxEwMZxWQK+EAwFcJAIyltRUWFLly51siFWw2eQD2ltMk179+71Yrg45KPvhx56yGbNmuXd8XfLwpbWpnUbr6UhzU1wmmLBb7/91oPTV69ejUM09REjAiKZGMHOdVdt2rTxehQIhCAvFsGevXuMYCvVtFOmTPEKW74bNmyY/42lQ8VtHA1SeeaZZ7xf+oMU2xS1sZLiEic+vqcuZuvWrbZkyRK7fPmyivHimJiY+1BMJmbAc9kd7g9EAoFAMNw6cO7sucqaGJQWssE9Il1MoBViirMRJyLIy4HF1bG0YyXBIC9WDAFpAtNxkV+c41dfmc1FIDRfBCCMUaNGeR0MFgFFbwRUQzAVgjlw4IBnbrifacCAAe6exDliLCfiQzSCu8hMTQxBXjJKuHJUCXM7AvIyDlLwaulBQCTTTOcSFwgFhTgowoNYyNagqKGdOHHCtm3b5ueg1FgSZG9wW6ijibphXW3atMlva6AvCIbYEbEiKn2xwLBwuLWAWxEgRGIySmFHPTPxXl8kEy/eOesNK4DiNZSW4CkWDG7HkSNHKvsglb1ixQrP4mDJcC5Fe1euXKm0LipPjugN8Zb58+f71SHGUIwH0YwfP97eeustD0qTYp89e7ZbMWvWrIlIGl22KRAQyTQF6jnoE6UkxoLrgfJiJWDVcBc27getY8eOXr4fak+oCKZojzuggwuTA1FqvQSWzPnz52tMS5OqJgbz4osvOlkyDgiQoLVIplZIm+UXIplmOW1mZZk6E24XQDlpEMrzzz/vB8odGhkcSIhGEJbqXx7/0NSNoDT3U3HjJi4SREiWjJS8WroQUHapmc5nt+7drHxk+T0VspBJIBXeh7/DELF2+vfv74QUPmvKV8gQgiHLhBsF0eD6qaULAVkyzWw+IRECt507dfYAKsFfArwU2RH/wELIbqS5IRZuLcCdwuIhANypUyfjyXlxBICz5cl+z1iQH2IhzR6O7HP0vvkjIJJpZnPIjo+LBElQ1EbjCXg8/e7DDz/0p8xlD4k4zMMPP2yvv/66lWVcLH5P0JXqXzJPcZMMxMIBsYRxYMFAMGSV4nhMaDY+eh89AiKZ6DHOaQ9YJgRIuScpNJ7ZQsAUKwZlzW5kkjZs2OBEg3uCgvPbyZMnW0XmFoQ4y/gDuZDpIjb01FNPOdlBOMheNQWfPQ69b74IiGSa2dwFksESgTQgFdLWEAa1MtlBX4aGpUJwlUcuQCj8ngDr6NGj3fqJcviQCtmsV1991bvJJhkevwnRYJHdvXvbCwkXLFhge/bsiVIkXbsJEBDJNAHojemS4C1Vvtx1DaGQBqYAL7sIL/v6nEMFLa4IREPxG+lvSIprofhViSn79415z7VfeuklT1NzHf4OjT45qPA9depMxnXbavPmzfOCvHCOXtOBgEimmc0jQd9w1zXxCwruqEWpr3HLwY4dOzzwS5yGeAgHgddwG0J912jI9zURVlVywfq6efNGhhjP2ebNm23hwoV+gyS1MzX9viH96pzkIiCSSe7c1CgZGSGCvNxQGO5XIqtUXyM4/MEHH3hVMIFWMlJYP1VjOPVdp67vccd4ni+kt3jx4hpPDRYMbhzWFXEYiIbsGLKIZGqErVl/WJApfvq+cqtZD0XCCwEhkEQEVIyXxFmRTEIgRQiIZFI0mRqKEEgiAiKZJM6KZBICKUJAJJOiydRQhEASERDJJHFWJJMQSBECIpkUTaaGIgSSiIBIJomzIpmEQIoQEMmkaDI1FCGQRAREMkmcFckkBFKEgEgmRZOpoQiBJCIgkknirEgmIZAiBEQyKZpMDUUIJBEBkUwSZ0UyCYEUISCSSdFkaihCIIkIiGSSOCuSSQikCAGRTIomU0MRAklEQCSTxFmRTEIgRQiIZFI0mRqKEEgiAiKZJM6KZBICKUJAJJOiydRQhEASERDJJHFWJJMQSBECIpkUTaaGIgSSiIBIJomzIpmEQIoQEMmkaDI1FCGQRAREMkmcFckkBFKEgEgmRZOpoQiBJCIgkknirEgmIZAiBEQyKZpMDUUIJBGBwiQKlS8ytW7d2kpLS23IkCHWrl07u3Pnjl27ds32799vR44ciQ0G+i4vL7eSkhJr0aL6vnP79m27efOmXblyxU6dOmWnT592OZE3ztaqVSvr1KmjdevW3bp27eqYgWHLli0NGa9evWoXLlywgwcP2tmzZ13eOOVTXzUjIJKpGZdYPu3QoYONGDHCfv7zn1vfvn3txo0bdubMGXvnnXfs2LFjTjpxCAK5/PjHP3ZZUNqqDeK7ePGiE9+qVats3bp1dvz4cVdiyCeOBsEg50MPPWSPPPIDmzJlivXr188/KyoqqiTAHTt22Lx582z16tVO1nHIpj7qRkAkUzc+kX47YMAAmz59uo0ePdp35rt37zrRLFu2zNq2bes7cxzWAsQyePBgJ5maLBnkgkxGjRplkyZNssOHD9v6Devtqy+/svXr10eKUbg4ZPzkk0/aY489ZuDWsWNHg1wKCwvd+oKEsMg6d+7s3//5z38WyQTwmvhVJNOEE9CnTx+bPHmyde/e3YqLiyslGTp0qLtQO3fudKKp/CKiNxALVgKKC6FcvnzZzp07Z5cuXfIeIaG27do6ESLzkKFDrG+/Pnb50mV3nbC6sMKiaBAJBAjBPP/88+7WQSjItmvXLneLrl+/lnE7O1qvXr0yrlS3jEvVyTGNQh5d8/4REMncP2Y5+UVBQYErAjs0ioRyc6DwkMwjjzzisQXiDHE2LBbiLlu2bLHdu3e7PO3bt3flHTZ8mCtyaUmpjRn9kB197JidPHnSvvjii0hIBowgv9mzZ9vMmTPdVcKyo09kW7JkSeZ1l8dhysrKbOLESTZu3DgnmahIL865SEtfIpkmmEmIpE2bNq5ABH4x+SGT6zeuW0lxiccacE3mzp0bu3TXr1+3PXv22Pz5823p0qXeP/JChN26d7PXXn3N3njjDf984MCBNmHCBFu8eLGdP38+57LSLxYefUAiECAB3Xfffdf+85//uLUFbgR9v/12s33zzSK3tsaMGWMbNmzIuTy64IMhIJJ5MNwa9SvcD5SGYC/vsWAOHDhgR48dtYkTJlqXLl2sf//+TkTs5nwfV8NSCEHeioqKym5ReLJeE8ZPcKsFl4X4B2OAJKNoPXv2dIIZNGiQkw0uHNYLx+bNmyutv+y+wZGgNFkmtWQgUD1fmQy5Ui0FQV2yI7hFEAg7NO7JosxOjHIQwCRFi5sSlQLfL8DIiZWD5UC2ib+RDZKECKNouJLPPfeckxnXJ/P26aefOlaQYU3ki4x79+51ly8KmXTN+0dAJHP/mDX6F7hKmPSkYCGYEydO2KZNm2zNmjWVwVbcBDI5BFqT0JAZUsSqgPwglqNHjxop46jiHwRw6Y++g6tELAaXSa35IBCNndt8xt8kkuJqlGXcJayVEAPZt2+f18YQ20ChUGRIBqWqyHJbohYYy6Rf/372wx/+0OMw9EexGzU9kMz48eM9GIyM27ZtM9LtUQWnQ8CZ/sEJbDh4r9Z8EBDJxDxXuBi4S6RasVawYogvUOGL8oRKVRSMgOd///vfWCUsalvk9TDEhH70ox953wR9ceGQCYWHYIiPUCOzYsWKyEgGwqNf+sRFI20dR91QrIDnQWcimZgnmWAm1gCpWVwOFGf58uUe+EUU4gkDBw20IYOHuKtE9inO1qIgk/lq3cZalra04g7f1e4Q9IUceaUhM+RHHIn3ZHeiaJALBEe/EDD1OzXFYaLoW9fMHQIimdxh2aArEWPBDcL9QDnJ5JC1wQ1AoYjN4JYMGzrMiYhCPdwqLIdbt241qI/GnIRMBJ/J0BBopSEX8pJNwvpC+ZFp2LBhHpeBGLE0ct0CuXFdxg7RyJLJNcrRX08kEz3G9/QAyUycONFdDwKmKHSIM2DZUN/B97znwG2BdCCfOEgGmbhtADcINw4ZsLqoph05cqRRG9O7d28v76dCmO/+/ve/R0IyAQNesWBEMPcspWbzh0gm5qlCMUMNDHEYrBhiHDQUnDuIydpgUbCTU1JPuptbDHAXom6BZLgRkiI7FBzLJdwbNGvWLHvttdc8M0bmh9si/v3vf7vVk2u3ieuBDbEZDmJCwWWLGgddP3cIiGRyh2WdV0JR2fUJ+BJnQVlIzUI4L7zwQqVrwkW4YRLlpmE1YEFwbhwNiyE80gGXqWqjUBBywXXiwDIjzkSpf64L4LDccMOIBzF+gsABl6py6e/kIiCSiWlu2Im5exi3A6uARryF49FHH70noAkBBWUi9gER8Xs+b2qXAUtr5cqVNnXqVK9MJlOGfFTa5ppksGIgPMiF8YdME9goABzTws1BNyrGywGIDblEdpVv1fNRGggkHIFgOA9CwgLCWsBdaOqG0vPQqhAfwsqAKKOQDSuGeBVuE/hRnMcrfao1HwQ0WzHNFeY+bhBVvigN8RXqTAjoVm0QCxbME0884YpFRoeHNeGSkI1qykamCXcP948GIWant3MpGzGrtWvXuouJmwbJUCkd7q3KZV+6VnQIiGSiw7byyigiJEMso3vmTmbcAIK77733nv3rX/+qPC+8wTUgo8S9OyGDQwXu7j27/Q7pcF5cr8jPAbHg7g0fPtwtCvqHMHGToqjCJTVO8JnHXhD/gWSeeeYZL1iEcLGmst0m5IPwOMCYILZa0yMgkolhDtj9URDcntaZQjdcAArZCKzWFGNBYSlyozYGl4Hf8wze7pln2zZFQ2mxXiA9lJwMU3jAFXJu3LjRb4nItWy4ZVu3bvVqaNxFanWmTZvm7hr9kmLPzrhxRzjPkyEbt3DhQvv6669zLZKu9wAIiGQeALT7/QkxC1wlSIa4CwqCG3Do0KF7duJwXXZnyOXQ4UNel4L10Kt3LycqXKmqO3j4XS5esaKohcFVw2Wj8Rkkg3UVnu3COKinoa4HtyaK+5fAAIsPwoBo6RuywaqD+CA9rCiImr+RG3cK1xIrSC0ZCIhkYpgHskrswMRWaIFkUKDaGqY+j5ek8pc0MQ+zwnpgN0excFOiaGRwsAY4IDvcpND4mwOSIwAMwSxatMhjJDVZZOF3jXkFKx7vgFxkscAAIuHAJYLceAUXyBB5wS5k8BrTt36bGwREMrnBsc6rUBvDrouioBCY+JTs17X7X7121datXWflI8p9B6cDCvNQfp7Ej/JF3bIJBhJBdgiOAkIeuUlV8Pbt251wopKFPrGUPvjgA49H/eQnP6n871sgEmSE+LBkeI+riYWFS6qWDAREMjHMQ0XmUQ2ffPKJWzIoBErDc3RDGrgmEW5cv+HPauERnJxPw7KBnHJtxUAc77//fmWFb1V5ggVDv1gw3DnOf4uCuxe1MkNu9MmjMMgqEdwlQ4dFQ8aJV1wpiJsYFgFhHmxOzEstGQgUZHzt+J7tmIwxS4pmjgAWC8RCtg4XiqA6xIeFFeJDUblvzRy6JhFfJNMksKvTxiJA4JnCPEoDcJVwq3CVOCAYrC+1ZCAgkknGPEgKIZBaBHRbQWqnVgMTAslAQCSTjHmQFEIgtQiIZFI7tRqYEEgGAiKZZMyDpBACqUVAJJPaqdXAhEAyEBDJJGMeJIUQSC0CIpnUTq0GJgSSgYBIJhnzICmEQGoREMmkdmo1MCGQDAREMsmYB0khBFKLgEgmtVOrgQmBZCAgkknGPEgKIZBaBEQyqZ1aDUwIJAMBkUwy5kFSCIHUIiCSSe3UamBCIBkIiGSSMQ+SQgikFgGRTGqnVgMTAslAQCSTjHmQFEIgtQiIZFI7tRqYEEgGAiKZZMyDpBACqUVAJJPaqdXAhEAyEBDJJGMeJIUQSC0CIpnUTq0GJgSSgYBIJhnzICmEQGoREMmkdmo1MCGQDAREMsmYB0khBFKLQGFqRxbhwLp37259+/a1kpISa9mypV27ds0OHjxop0+ftsuXL0fY8/eX7tGjh8tQXFzsMnz/zXfvbt++7XIhD3KdP38+NtmyZeH/qgan3r17W6dOnaxdu3b+/1dzDjLyf1efOnXKjh49aidPnvT/0zr797l4T7/g1a1bN2vdunXlJW/duuUYXblyxS5evGgXLlzwg8/VcoeASOYBsBwxYoS9/PLLNnjwYFeaEydO2CeffGIrVqyITZGzZeA/ns9u/IfzKC/kcuDAAVu3bp1t2bLFDh065ErF91G3goICKywstC5duhiyzpw500aOHOnE2KlzJyvICAA5nz17zlauXGnffPONLVq0yMkw1/KxITz11FM2depU69ixY+XQL1265BixQezdu9d2795tO3fudMK5ceOG3b1714/KH+jNAyEgknkA2MrKymzGjBmGFdGiRQvDsrl69apBNhUVFQ9wxfv/CX2OHz/eevXqdc/uHK6Eot68edPGjRtn//d//+cEA9m88847bjHkWpFDv+G1qKjIhg8f7sr95JNPupzgxeetWhc6yRQVtbX27TtYhw4dHEPw27p1a4Z4zobL5OQVC2bUqFE2bNgwt6rCRcEAMmHusGaw9o4dO2ZffPGFLV682C0sMFRrHAIimfvAr1WrVm7y9+/f33dkCIaG4qDMCxYsuI+rNe5U3A6Up7S01C2Gq9eu2rGjx1xpsCJwC9p3aO/K269fPxs0aJD17NnT3ZJly5ZFSobFxR1swIABNmvWLINgwIYGiezbt8+tB9xMZEcm3JmhQ4da586dayTMxiH13fxgUdEfrhsW1JEjRwycsALpF3cOywvCAdv27dvbkiVL7PDhw7FZp40dZ1J/L5K5j5lBcTH5USAIBnOaxueY5CgLysMOGb67j8s/8Kk3b92006dO29KlS+3cuXOuLCgJijOgbIBBilgL5eXl9rOf/cx37Sgtrh49erpr8vrr/8/69evvFhVWwoYNG9ylxCUBM8hv0qRJbvGg+FgNUePG9Ym/QLTME0TNgWUIEUE6Tz/9tLt4fL8o48JBjGoPjoBI5j6wYwFOnDjRYzEELQmqoixYMuyCIRhLEBMzPK52/dp1t0zee+89t1ToFxJEtoEDB9pvfvMbVxqCsLh67NxRNsjshRdmZ/rp5IpMLOgvf/mLrV+/3i0IrIUgH64JMqLgu3btitxqgGQIML///vsuC/MWcHrkkUfspZde8nkEo1deecXPFck0brWIZO4DPxbjiPIRbiFAIiw+THAsBlwpFBjfn5hCnCQD4RHEJICJQmc3dm0+79Onj5ML1hakGEVDYXFHcH3AoaionSvppk2b7H//+58HVyGYqg2lJ14TB26QDDKASbY1x8YAVriVEyZMcNIbM2aMW3+rVq1y2RSfqTpzDftbdTINw8l3XiyBAQP6W+cunX3HRXnISLA4Ma1RrilTpkSmxA0UtfI0Yg4oFSliSIi/w1F5Ug7fBIsAsiWLg+tI1obsEUpcE8HQPeRCFgwcm0qRwWjjxo0eh0HmEDNiTglgMza1B0NAJNNA3IhpYA0UdyixVoWtXGlJWa9evdp3RFLG+PUsSqyaJDRIEbOfVDtxBxQYZSKTEkVDEYlZEQMK7dtvv/WAeFR9hn5y8Yr7++WXXzrZhOthpUIyYKn2YAjIXWogbmRBxo4d6wFUrAMWJDEEalFIIxMMxlUgLoPpD9HEtSujACgDtSDHjx/3EbETIwdWBQfyEBRevnyZWw0NHPZ9nUYfBMBDzAeckAfXJE738b6EzjqZ+UJW0tjIjtWHewm2uIJqD4aAkGsgbuzOFHNBJCxGqkNRINKyEMv06dOta9eurtj8zUJFqeNoBKQpePvVr37lshFUJe6C9UU6FmXBVSFt+/nnn2fIcWckYkFsBHDpFyWlcpZ+a3OTIhGiERfF5SXLhVWK7BALWTqIBkzVHgwBkUwDccMVQpFRXtKxxBggG+IJxGaIeaBYBIKnTZvmn8dFMpAIrgokhww0lAIl4Tsa8lKMt2HDxkww9pR/lut/6JNYDMRGIyCN4ja3hszIDn6MhTkVyTz4LIpk6sGOxYUbwG6GhcJ7FBZXCZJh5ztz5oxbLeyALErS3Cg05BNHQyEImhKwRB6IBTLE6kJBOHCpcOsmT57scu/ZsyfnotEvVhUYQXbNnWQYA+TNmEQyD75cRDL1YBeyDJAMpjONNPHmzZvdrGYhQjakYXGhOI/gJ4SE0gXLop5uGvU18Q6I77PPPvPALjswxEKx25AhQzxwSeCXWyFILf/xj3+0/fv3OwnkUj7GC14cXBeXozlaMsgOQdLCmBo1QXn+Y5FMPQuAXYzdH1cpNKyYtWvXVsYaIJnt27d7URnKDNEQdEXZ49jNIRniQ9xkSBl8UAysF+R54okn/KD+g78ZC/fxBMsnjKuxrxAKFhXWFFYUVgCE09waMiM7ODKWUKLQ3MaRFHlFMvXMBG4HNyKWZTI0oWEdYBVALigWChVuvmNhskBJd/Mb6j9wo6JsyECKmCB0yC6F/rBwQnodN47xIBdp2XBXdji3sa/IQRwKWcABkm2OJBNcZPBgLMTgGJvagyEgkqkHNwgD9wfSCO25556zZ599NvzpCoVScdB4pV4GCwg3KmqSqRSkhjdkdrhnCOsLNwDZSMcjH/c65bJhtRGfCoV/kAzxGQ5cp1y6ZrmUO1wLbILMEA1/QzIE90UyAaX7f1Verg7MWGiQDGnZEI/hdBYf34WDvzmyGylv6mqSUsQVYiS8EpzGpUP+XDZIBmuKnZ8GJmUZq4l7mbCgkt6YK1xJZA7zyVgYEySp9mAIyJKpAzfSsdzLgkJCNiw4SuSpN8FPr9pwQbjfhVQyKe+BmRv/2MWbskEkyID8gVTYlXH1cm1ZEL+gwpdHO5DGR1FxI7nxENcs6fUykC9yh/gb+FRkng9ElrAprdGmXD+56FskUweKuEg8ioAgLo0dbc6cOR70pTy/auPpb2+++ab/hjgNRBPSn3Gb2yg4B7szFbjhXiJkxp2hUjlkUKqO40H/hmS4/+fhhx92pYTYIBkemrVw4UInZsgtNOQLJEjshgB2HIHyqv0jA24S88Xzb3CPmS/GQ0Afd1MkE1C7/1eRTB2YBZLBVWLxcysBqd/afHR2a7JOLFJIhmP06NGu1ARg42ooL0pDJgnrihgS1cqhIee2bdtyXurPzg+JhEd+4i6SSgeDn/70p/bRRx/ZmjVrghhuYREfevTRRz3V/vHHH/ud7ZQCxNGC2xjmGSsGS5TPmWtqncjAQTC5tvriGF9S+hDJ1DETKCk7MfEEFh3WCwrAjltTg0jY9V588UUPrkJOWELcDxMlyWCtEAOaPXu2B5qzSYZMGJYEdTsQAIHZ7du3ZZ5luyPnuzOKyMFDqebPn+9uI/d0QSSk0SG+sky8AzmQESsPBcedwtpavny5u6I1YZurz+iXeX3hhRfcsqJfihQhFw7mGkuPMcybN8927NihoG8jwRfJ1AAgCxETml2YBYhyQBLUoNQVAISEsBBCXQX38EAyPI8kewevocv7/ghlDi4YOy/Wwu9///vK6zAGWlD8QDC4Mxs2bMzEGvZXnpvrNzz+gv6wZJANgsOi4sCigajBFIUOgXF+Q+woyJ1LmbKxYl4h5N/97neVXQSMsFaJG1ENTeaN4kbuQVNrHAIimRrwY7Fz5y3KgTKw8HExeOJ/Xb45ixUSCmlcduqyzM5N4DiOVlVBISGsLqwwLCwUh+fW4gJE2VBWguN/+MMf/H8p4GlzWIQQDtjiRiIrcRheUWwwww0lDhJFY26qtkA+9In1wiayKPO4TTYFNgviVjX9rup19HfdCIhkasCHhQWZ8KyYt99+28+gzoQsQ10ZEn7HLk3sgdgMOzU7OsHDXDee6v+Pf/zDU+u1FbxBMpAeY4FYkINdOipFDmOkX+pLcDmQDUwgbVwTCJeSABrnQC4cFZksDm5lXSQern+/rzzBcO7cuR5jCZYT1wgkwxwFoiM7RtwNglHLDQIFGZegOsXn5tq6ihC4BwFIhhgMVg0KjiKj0BQsYm2ppRMBkUw65zWRo8JVwpLAjYRksLKwqrAkcLHU0omASCad86pRCYHEIJDbuvLEDEuCCAEhkBQERDJJmQnJIQRSioBIJqUTq2EJgaQgIJJJykxIDiGQUgREMimdWA1LCCQFAZFMUmZCcgiBlCIgkknpxGpYQiApCIhkkjITkkMIpBQBkUxKJ1bDEgJJQUAkk5SZkBxCIKUIiGRSOrEalhBICgIimaTMhOQQAilFQCST0onVsIRAUhAQySRlJiSHEEgpAiKZlE6shiUEkoKASCYpMyE5hEBKERDJpHRiNSwhkBQERDJJmQnJIQRSioBIJqUTq2EJgaQgIJJJykxIDiGQUgREMimdWA1LCCQFAZFMUmZCcgiBlCIgkknpxGpYQiApCIhkkjITkkMIpBQBkUxKJ1bDEgJJQUAkk5SZkBxCIKUIFKZ0XPcMi/+DuWvXrtajRw/r0qWLf3fx4kX/j94PHz5sN27cuOf8KP5Ahm7durkM/MfzVRv/NzT/HzT/N/SlS5fs7NmzLh//T3RTNGTs1auXderUydq3b29FRUXWsmVLl/H69et24cIFO3LkiB07dszxu3PnTs7FHDBggA0aNMhatPh+L6QfMLpy5YrjdP78eX9lDqOQoeqgkIW57NevnyHf/bSrV69aRUWFzy3v86XlBcmgIOPGjbPp06fbxIkTfW537dply5cvt7lz58ZCMsjw0EMP2YwZMyplyF5k/OfzKO/p06dt7969tnXrVpfvzJkzLh8kxBF1Q4mQtby83PEaO3as9e/f30m6devWLgsygd/8+fNt0aJFlUSTa9kmTZpkv/jFL6ywsNAKCgp8/JDuyZMnneD2799vO3bssD179hgyQT5RkzL4tGvXzh577DF744037mvIR48etX/+85+2ceNGE8ncF3TJP5lF8fjjj9vUqVOtb9++LjCWDTvSV1995TtL1KOgr8GDB9uIESNsyJAhNXbHTsyODCE+8cQT9sorr9hnn31mX3/9tZNP1AqEpdK9e3d77bXX7Ac/+IENGzbMiouLXalQdL5v06aNtW3b1jp27OhWDnj+9a9/dcWvcVCN+BBrCrwgmNAgWnDMtmawplatWmXffPONffvtt+HUSF6RBcuuZ8+etc5jbR2zDiFsSPH48eO1nZa6z1NvybAoUIrhw4dbWVmZLxBmkQkfOHCgsZCxHrAiomwoaElJiZWWlvpBX+zIHDS+x1IICxhZsSbYOSGfzz//3M6dO+fnRvUPyssO/fzzzzvBIAt9YuKfOnXKFRvSgYh69+7tyn7ixAmXOwqZIDTIjBbcyMuXL7tlA5YoOuSHVcD7Dh06+LFp0ybjvCga64kNA2yYSxp94T4iBy5vbQ0McdOxWvOppZ5kWIQQCpYLrzR2QxYKCoOysBNGTTJVFxUy4HKsXr3avwoEE5QXC4HPsMCQE9eOhRxF3AHFgeSw9H75y186ifD3+Qvnbdu2bbZmzRp33+gf+UaPHu2WDgSI8sfhxhF7gew4cOcgOoiFmBH44AYTI2Ez+e1vf+sKHwVWVeeRv9komEvcobrie5DMzp07jbHkU0s9yaAULEB2ORo7DTsJCsJuiGIx+Rxxt5UrV9qcOXO826DoEMvMmTPdZcGa4W92TILWyEhQONcNiwEzfujQoU7GEPC+ffts2bJl9t5779nBgwddacENeRYvXmzvvvuuB4YhoyhkqjpGNgLkwX2E7JCZTeOpp56yl156yd1gcMIaGz16lMsbl0sCwXz66ae2fv36OrEAPyxDiDmfWupJpk+fPkYAEZLBWkEhOFiQLFIICGti3bp1sc47uz+kQfCyamOHHjNmjBMLuzZykunh3CgUGncSssVCoT9kW79hvX388ce2YcOGan1CiMiCVdG+fbtYlIZsEhYDQXGCvIGUQ5zq9ddfdysLMp4x44kMtqdji3tAemQpIeYo5qfq+mhuf3+fG2xukjdQ3kAy+NAsBnZlTFYWLAo1bPgwN71ZtElppK9R4ODCYS0QO4IMomhg8/TTTzuxQTD0u3bNWlu4cGGNsQ3OYVcGw4qK/XW6CFHIyzWDDJAg1hauCjIRwyGmRMBYLRkIpJ5ksFggGsx8FiIWC/ENdmLiNR1LO7rbBOHgQjVlg+iQgYD0o48+6nKhTOyOpD2jMv8hMZQTiwmCgeCwFuibI8kN+Qi4YkVgGTKnuMHMp1oyEEitu8Rig2AogGPRocAoz9KlS51siNXwGeRDkBXFxhSPy1+mb+pmZs2a5SuBv1sWZlLErdt4fQppbmIjmOGkZYlJRFFb4f1mSAYrCSzIftAnwcmkEwzAISMuE4WBxDtwKxkHB+RJ8DfqcRBwxt0kuXD5Ss1ZrTu37zimWF5RZb6SQSnVpUgtyRAYRFEhEKwDFhokQrAVd2TKlCm+AFEyAp78jaUTJ8k888wz3i/TAim2KWpjJcUlriDIhfKQ3VmyZIkvzCiUBUVEIek/9Ikb1JxiCwTzsWJwh2nMN2NiDcSR/SKWNXjIYLcCa5ujG9dv+Gbx61//WiTjs5SCfzCXIQ4Kyph4UouQCzUxKC+7CS4BKVAyKwRaqWCNsxELQRFoKDjKEZQdedmd165d64HpqMgPKy+4k8iBwoJTVP3RR64b1gqWV7alx+0jBNCxykJsK9f9husFq6ld2+9KJMLn2a/IiKXD/OZbS+2IUd5Ro0Z5xgFSYXfGnA4LDkU6cOCAxyFYkJi8uCdxNiynQ4cOeZdYFMhMzQdBXuIjLF7u3aG0H3kZR13FXg8iO2RMPCaMHWWAgOuq93iQfqL8DTKTfQpzS1/gx7jAOOoGwbG+sKQIPtfUkJFUd3PCtaZxPMhnqSSZYC5DHOweKCeBXhQ1NCpVcUU4B6UmdkNcgp2mtoUSfpuLV6wrYi1ffvmlXw5lh2CwKqj0paiMnZhbC8iUQIjs1Ll2YwK5YUnRkAu8UIrm0mqSmXmEOFkLUTesJQoWuV2gNguQNcWay7d4DNinkmTYxaiXwBVgoWHBkFXC/QiNVPaKFSts2rRpfmc2506YMMF3xGBdhHOjet2yZUuli4YyhPgIQenx48fbW2+95TElqltnz57tVgyLOZcN0mK3DzssMuBCNqfsDDKH7FjAhjknGwdhRt1YL2QsWWO1bQLBZcfiyreWSpJBKYmxYBmgvLghWCzchY37QWNRUh0aak8o1qNoj1RoHCTDosPMriktzWfsiC+++KKTJeOAAAla55pkWPQETYMyBoUNuDQHhWCOQ3FlkBdsibnl2r0M189+xToBQ8i6NpLJPj/f3qeSZMoy5fikFFFOGoRCgRYHyh1aCLbyN0FYqn8pXW/qxqIlZU2QGhcJhSdLhiLluhHHIG0NyYANbkaUhX+5lp/rBWJkDmmMAwxDtsk/1D9NhkD0DmsTDK1b925WPrK80kpBBHa7QCq8D38H8bB2yDJBSEloKAoEgxuDEkE0ITiba/kyJXd281YmqHznlrtJpP7Dw71y3VcU1wMXLFTiauDW3GJKUWCSpGumypKBRHwn7tTZs0pkZwi2hYdAVQ26EXeAWAiy4k5BMCxUYhJNfUs+Y0F+FIggbDiiWDw3b9y0A/sPWP9+/X38xLNCTAvM4nA5HnRcuLlYeRzE1bDMiLcRk1FLBgKpIhl2fBYdZEFRG2337t3+9LsPP/zQffRs2Dn34YcfNm6uw8Xi9wRdeb99+/ZYskzZ8kAsHBALsoUALASDrx+Cs9m/ycV7FJPbFiBcyAW3A9LFOiDtikWVnW3CCkRG8OJz5Mr+Phcy1XYN8KF/+ubgMZg85Au5sUZxMQnAkvFRSwYCqSIZLBPiKhTghYaSEDBlR66qCAQ9KfOGaDCzWcCh+peUN8oVVwvkgpvCGHiEAbc6YM0ge9UUfC7lgsDmzZvnKXP6Rol5TChZur/97W9OuARSaXyHxUAQHSJCtpoIPJfyhWsFjLA2IZeRI0fa5MmTPWDPZ8wvlusHH3xgZO7UkoFA6kiGLAzKCWmw6EhbV2TuWWK35rPsRu0COx+ZAQgFksLspkycZ/9G2VAYslmvvvqqdxMUCJJhZ0bZsWTu3r3thV4LFizwOowoZCKGgYvB81CwAqjTAQdu0sTt4K71kKnBHaX2iO8IEJON4xkvUTdqhsCLOUQG6olwc8kQIitzzfN+eQQn9U/ZNVFRy4bFx+NSIb66UtTgHNz3OIoEox53Q6+fKpLBXKbKlwXIYiQNzGKrbcFxDvEGdnKIhoVM+huS4looflViaiiw9Z3HtXnYEmlqGn+HRp8cLMpTp85mLIltbmlQkBdFQ0E52P2xaHDVsFLAg1od3CFImleImCA08qIwcSkLc8IBZrSAEfPHBoGltSjzUPOPPvrI55vxxNWoaeKor0HYPPCLh4nHhVt9MsXxfapIhh0OsxlzHoVgdw5mfl1gUhLOLkgsBwUj9c2Bq4Jy5arVRFhVyQXluHmT+6zO2ebNm/2ZLtwgSe1MTb/PlWxcB5cMC446IdL9PGMGUgnxF4iXOAgyIwuKgjsKGcbZIBb6xFUj1c//7AC5MIfMZS7nrKZxBYKr6bv6PgO77Dmv7/w0fJ8qkiEjhJLwpDsWIQuOBVhfIziMH4+rwC7NDo31k8vdkN2WJ+pDeuxmNbWweHHjsK5QeoiG7BiyRE0yKC3EjKy8h0CIy+DC4RpBOFiHjAHLL2Tt6nIRahpnQz/DffvTn/5U7XSwACPIhHkCJ+acuphczlm1jjMfcH364ZEh95t1A7uKjOselUVak7xJ+KwgU+B1b6AiCVJJhkQgQJAXK4asE7EPigFRajI3KAtkFLVSJwIICdEoBEQyjYIv3T8Opj0WDAfuaLAg2JUhmKitq3QjnB+jE8nkxzxrlEKgyRBI5W0FTYamOhYCQqAaAiKZapDoAyEgBHKJgEgml2jqWkJACFRDQCRTDRJ9IASEQC4REMnkEk1dSwgIgWoIiGSqQaIPhIAQyCUCIplcoqlrCQEhUA0BkUw1SPSBEBACuURAJJNLNHUtISAEqiEgkqkGiT4QAkIglwiIZHKJpq4lBIRANQREMtUg0QdCQAjkEgGRTC7R1LWEgBCohoBIphok+kAICIFcIiCSySWaupYQEALVEBDJVINEHwgBIZBLBP4/X35TNtUpfpkAAAAASUVORK5CYII=;" vertex="1" parent="1">
          <mxGeometry x="-201.25" y="5108.25" width="141.25" height="141.75" as="geometry" />
        </mxCell>
        <mxCell id="BsEajPikyEnA2SoNJ8G7-193" value="" style="ellipse;shape=cloud;whiteSpace=wrap;html=1;" vertex="1" parent="1">
          <mxGeometry x="-270" y="5620" width="120" height="80" as="geometry" />
        </mxCell>
        <mxCell id="BsEajPikyEnA2SoNJ8G7-194" value="" style="whiteSpace=wrap;html=1;aspect=fixed;" vertex="1" parent="1">
          <mxGeometry x="-62.5" y="5620" width="80" height="80" as="geometry" />
        </mxCell>
        <mxCell id="BsEajPikyEnA2SoNJ8G7-195" value="Actor" style="shape=umlActor;verticalLabelPosition=bottom;verticalAlign=top;html=1;outlineConnect=0;" vertex="1" parent="1">
          <mxGeometry x="-508.75" y="5540" width="30" height="60" as="geometry" />
        </mxCell>
        <mxCell id="BsEajPikyEnA2SoNJ8G7-196" value="Actor" style="shape=umlActor;verticalLabelPosition=bottom;verticalAlign=top;html=1;outlineConnect=0;" vertex="1" parent="1">
          <mxGeometry x="-510" y="5640" width="30" height="60" as="geometry" />
        </mxCell>
        <mxCell id="BsEajPikyEnA2SoNJ8G7-197" value="Actor" style="shape=umlActor;verticalLabelPosition=bottom;verticalAlign=top;html=1;outlineConnect=0;" vertex="1" parent="1">
          <mxGeometry x="-510" y="5750" width="30" height="60" as="geometry" />
        </mxCell>
        <mxCell id="BsEajPikyEnA2SoNJ8G7-200" value="html&lt;div&gt;view&lt;/div&gt;" style="rounded=0;whiteSpace=wrap;html=1;" vertex="1" parent="1">
          <mxGeometry x="-434.5" y="5540" width="54.5" height="60" as="geometry" />
        </mxCell>
        <mxCell id="BsEajPikyEnA2SoNJ8G7-201" value="html&lt;div&gt;view&lt;/div&gt;" style="rounded=0;whiteSpace=wrap;html=1;" vertex="1" parent="1">
          <mxGeometry x="-434.5" y="5650" width="54.5" height="60" as="geometry" />
        </mxCell>
        <mxCell id="BsEajPikyEnA2SoNJ8G7-202" value="html&lt;div&gt;view&lt;/div&gt;" style="rounded=0;whiteSpace=wrap;html=1;" vertex="1" parent="1">
          <mxGeometry x="-434.5" y="5760" width="54.5" height="60" as="geometry" />
        </mxCell>
        <mxCell id="BsEajPikyEnA2SoNJ8G7-203" value="" style="endArrow=classic;html=1;rounded=0;exitX=0.16;exitY=0.55;exitDx=0;exitDy=0;exitPerimeter=0;entryX=1;entryY=0.5;entryDx=0;entryDy=0;" edge="1" parent="1" source="BsEajPikyEnA2SoNJ8G7-193" target="BsEajPikyEnA2SoNJ8G7-200">
          <mxGeometry width="50" height="50" relative="1" as="geometry">
            <mxPoint x="-290" y="5740" as="sourcePoint" />
            <mxPoint x="-240" y="5690" as="targetPoint" />
          </mxGeometry>
        </mxCell>
        <mxCell id="BsEajPikyEnA2SoNJ8G7-211" value="44568" style="edgeLabel;html=1;align=center;verticalAlign=middle;resizable=0;points=[];" vertex="1" connectable="0" parent="BsEajPikyEnA2SoNJ8G7-203">
          <mxGeometry x="0.4977" y="2" relative="1" as="geometry">
            <mxPoint as="offset" />
          </mxGeometry>
        </mxCell>
        <mxCell id="BsEajPikyEnA2SoNJ8G7-204" value="" style="endArrow=classic;html=1;rounded=0;exitX=0.16;exitY=0.55;exitDx=0;exitDy=0;exitPerimeter=0;entryX=1;entryY=0.5;entryDx=0;entryDy=0;" edge="1" parent="1" source="BsEajPikyEnA2SoNJ8G7-193" target="BsEajPikyEnA2SoNJ8G7-201">
          <mxGeometry width="50" height="50" relative="1" as="geometry">
            <mxPoint x="-241" y="5674" as="sourcePoint" />
            <mxPoint x="-370" y="5580" as="targetPoint" />
          </mxGeometry>
        </mxCell>
        <mxCell id="BsEajPikyEnA2SoNJ8G7-205" value="" style="endArrow=classic;html=1;rounded=0;exitX=0.16;exitY=0.55;exitDx=0;exitDy=0;exitPerimeter=0;entryX=1;entryY=0.5;entryDx=0;entryDy=0;" edge="1" parent="1" source="BsEajPikyEnA2SoNJ8G7-193" target="BsEajPikyEnA2SoNJ8G7-202">
          <mxGeometry width="50" height="50" relative="1" as="geometry">
            <mxPoint x="-241" y="5674" as="sourcePoint" />
            <mxPoint x="-370" y="5690" as="targetPoint" />
          </mxGeometry>
        </mxCell>
        <mxCell id="BsEajPikyEnA2SoNJ8G7-206" value="" style="endArrow=classic;html=1;rounded=0;entryX=0;entryY=0.25;entryDx=0;entryDy=0;exitX=0.88;exitY=0.25;exitDx=0;exitDy=0;exitPerimeter=0;" edge="1" parent="1" source="BsEajPikyEnA2SoNJ8G7-193" target="BsEajPikyEnA2SoNJ8G7-194">
          <mxGeometry width="50" height="50" relative="1" as="geometry">
            <mxPoint x="-290" y="5740" as="sourcePoint" />
            <mxPoint x="-240" y="5690" as="targetPoint" />
          </mxGeometry>
        </mxCell>
        <mxCell id="BsEajPikyEnA2SoNJ8G7-207" value="" style="endArrow=classic;html=1;rounded=0;entryX=0;entryY=0.5;entryDx=0;entryDy=0;exitX=0.875;exitY=0.5;exitDx=0;exitDy=0;exitPerimeter=0;" edge="1" parent="1" source="BsEajPikyEnA2SoNJ8G7-193" target="BsEajPikyEnA2SoNJ8G7-194">
          <mxGeometry width="50" height="50" relative="1" as="geometry">
            <mxPoint x="-154" y="5650" as="sourcePoint" />
            <mxPoint x="-52" y="5650" as="targetPoint" />
          </mxGeometry>
        </mxCell>
        <mxCell id="BsEajPikyEnA2SoNJ8G7-208" value="" style="endArrow=classic;html=1;rounded=0;entryX=0;entryY=0.75;entryDx=0;entryDy=0;exitX=0.96;exitY=0.7;exitDx=0;exitDy=0;exitPerimeter=0;" edge="1" parent="1" source="BsEajPikyEnA2SoNJ8G7-193" target="BsEajPikyEnA2SoNJ8G7-194">
          <mxGeometry width="50" height="50" relative="1" as="geometry">
            <mxPoint x="-144" y="5660" as="sourcePoint" />
            <mxPoint x="-42" y="5660" as="targetPoint" />
          </mxGeometry>
        </mxCell>
        <mxCell id="BsEajPikyEnA2SoNJ8G7-210" value="44567" style="rounded=0;whiteSpace=wrap;html=1;" vertex="1" parent="1">
          <mxGeometry x="-45" y="5630" width="45" height="20" as="geometry" />
        </mxCell>
        <mxCell id="BsEajPikyEnA2SoNJ8G7-212" value="Actor" style="shape=umlActor;verticalLabelPosition=bottom;verticalAlign=top;html=1;outlineConnect=0;" vertex="1" parent="1">
          <mxGeometry x="-485" y="6070" width="30" height="60" as="geometry" />
        </mxCell>
        <mxCell id="BsEajPikyEnA2SoNJ8G7-213" value="" style="rounded=0;whiteSpace=wrap;html=1;" vertex="1" parent="1">
          <mxGeometry x="-200" y="6080" width="120" height="60" as="geometry" />
        </mxCell>
        <mxCell id="BsEajPikyEnA2SoNJ8G7-215" value="service" style="ellipse;shape=cloud;whiteSpace=wrap;html=1;" vertex="1" parent="1">
          <mxGeometry x="-280" y="5950" width="120" height="80" as="geometry" />
        </mxCell>
        <mxCell id="BsEajPikyEnA2SoNJ8G7-217" value="" style="endArrow=classic;html=1;rounded=0;entryX=0;entryY=0.25;entryDx=0;entryDy=0;exitX=0.88;exitY=0.25;exitDx=0;exitDy=0;exitPerimeter=0;" edge="1" parent="1">
          <mxGeometry width="50" height="50" relative="1" as="geometry">
            <mxPoint x="-134" y="5670" as="sourcePoint" />
            <mxPoint x="-32" y="5670" as="targetPoint" />
          </mxGeometry>
        </mxCell>
        <mxCell id="BsEajPikyEnA2SoNJ8G7-218" value="service" style="ellipse;shape=cloud;whiteSpace=wrap;html=1;" vertex="1" parent="1">
          <mxGeometry x="-130" y="5950" width="120" height="80" as="geometry" />
        </mxCell>
        <mxCell id="BsEajPikyEnA2SoNJ8G7-227" style="edgeStyle=orthogonalEdgeStyle;rounded=0;orthogonalLoop=1;jettySize=auto;html=1;" edge="1" parent="1" source="BsEajPikyEnA2SoNJ8G7-221">
          <mxGeometry relative="1" as="geometry">
            <mxPoint x="-470" y="6150" as="targetPoint" />
          </mxGeometry>
        </mxCell>
        <mxCell id="BsEajPikyEnA2SoNJ8G7-228" value="mail otp" style="edgeLabel;html=1;align=center;verticalAlign=middle;resizable=0;points=[];" vertex="1" connectable="0" parent="BsEajPikyEnA2SoNJ8G7-227">
          <mxGeometry x="-0.3076" y="-1" relative="1" as="geometry">
            <mxPoint as="offset" />
          </mxGeometry>
        </mxCell>
        <mxCell id="BsEajPikyEnA2SoNJ8G7-221" value="google&amp;nbsp;&lt;div&gt;smtp&lt;/div&gt;&lt;div&gt;server&lt;/div&gt;" style="whiteSpace=wrap;html=1;aspect=fixed;" vertex="1" parent="1">
          <mxGeometry x="-190" y="6210" width="80" height="80" as="geometry" />
        </mxCell>
        <mxCell id="BsEajPikyEnA2SoNJ8G7-223" value="" style="endArrow=classic;html=1;rounded=0;entryX=1;entryY=0.3333333333333333;entryDx=0;entryDy=0;entryPerimeter=0;exitX=0;exitY=0.25;exitDx=0;exitDy=0;" edge="1" parent="1" source="BsEajPikyEnA2SoNJ8G7-213" target="BsEajPikyEnA2SoNJ8G7-212">
          <mxGeometry width="50" height="50" relative="1" as="geometry">
            <mxPoint x="-220" y="6130" as="sourcePoint" />
            <mxPoint x="-170" y="6080" as="targetPoint" />
          </mxGeometry>
        </mxCell>
        <mxCell id="BsEajPikyEnA2SoNJ8G7-224" value="Enter OTP code" style="edgeLabel;html=1;align=center;verticalAlign=middle;resizable=0;points=[];" vertex="1" connectable="0" parent="BsEajPikyEnA2SoNJ8G7-223">
          <mxGeometry x="-0.0287" relative="1" as="geometry">
            <mxPoint as="offset" />
          </mxGeometry>
        </mxCell>
        <mxCell id="BsEajPikyEnA2SoNJ8G7-226" style="edgeStyle=orthogonalEdgeStyle;rounded=0;orthogonalLoop=1;jettySize=auto;html=1;" edge="1" parent="1" source="BsEajPikyEnA2SoNJ8G7-225" target="BsEajPikyEnA2SoNJ8G7-221">
          <mxGeometry relative="1" as="geometry" />
        </mxCell>
        <mxCell id="BsEajPikyEnA2SoNJ8G7-230" value="otp 12445" style="edgeLabel;html=1;align=center;verticalAlign=middle;resizable=0;points=[];" vertex="1" connectable="0" parent="BsEajPikyEnA2SoNJ8G7-226">
          <mxGeometry x="-0.0961" y="2" relative="1" as="geometry">
            <mxPoint as="offset" />
          </mxGeometry>
        </mxCell>
        <mxCell id="BsEajPikyEnA2SoNJ8G7-225" value="sent otp" style="rounded=0;whiteSpace=wrap;html=1;" vertex="1" parent="1">
          <mxGeometry x="-185" y="6090" width="70" height="20" as="geometry" />
        </mxCell>
        <mxCell id="BsEajPikyEnA2SoNJ8G7-229" value="" style="endArrow=classic;html=1;rounded=0;exitX=1;exitY=1;exitDx=0;exitDy=0;exitPerimeter=0;entryX=0;entryY=0.75;entryDx=0;entryDy=0;" edge="1" parent="1" source="BsEajPikyEnA2SoNJ8G7-212" target="BsEajPikyEnA2SoNJ8G7-213">
          <mxGeometry width="50" height="50" relative="1" as="geometry">
            <mxPoint x="-220" y="6130" as="sourcePoint" />
            <mxPoint x="-170" y="6080" as="targetPoint" />
          </mxGeometry>
        </mxCell>
        <mxCell id="BsEajPikyEnA2SoNJ8G7-232" value="33455 code" style="edgeLabel;html=1;align=center;verticalAlign=middle;resizable=0;points=[];" vertex="1" connectable="0" parent="BsEajPikyEnA2SoNJ8G7-229">
          <mxGeometry x="-0.0056" relative="1" as="geometry">
            <mxPoint as="offset" />
          </mxGeometry>
        </mxCell>
        <mxCell id="BsEajPikyEnA2SoNJ8G7-231" value="" style="endArrow=classic;html=1;rounded=0;entryX=0.55;entryY=0.95;entryDx=0;entryDy=0;entryPerimeter=0;exitX=0.5;exitY=0;exitDx=0;exitDy=0;" edge="1" parent="1" source="BsEajPikyEnA2SoNJ8G7-225" target="BsEajPikyEnA2SoNJ8G7-215">
          <mxGeometry width="50" height="50" relative="1" as="geometry">
            <mxPoint x="-220" y="6130" as="sourcePoint" />
            <mxPoint x="-170" y="6080" as="targetPoint" />
          </mxGeometry>
        </mxCell>
        <mxCell id="BsEajPikyEnA2SoNJ8G7-234" value="" style="endArrow=classic;html=1;rounded=0;entryX=0.55;entryY=0.95;entryDx=0;entryDy=0;entryPerimeter=0;exitX=0.5;exitY=0;exitDx=0;exitDy=0;" edge="1" parent="1" source="BsEajPikyEnA2SoNJ8G7-225" target="BsEajPikyEnA2SoNJ8G7-218">
          <mxGeometry width="50" height="50" relative="1" as="geometry">
            <mxPoint x="-140" y="6100" as="sourcePoint" />
            <mxPoint x="-204" y="6036" as="targetPoint" />
          </mxGeometry>
        </mxCell>
        <mxCell id="BsEajPikyEnA2SoNJ8G7-235" value="66789" style="text;html=1;align=center;verticalAlign=middle;whiteSpace=wrap;rounded=0;" vertex="1" parent="1">
          <mxGeometry x="-497.5" y="6040" width="60" height="30" as="geometry" />
        </mxCell>
        <mxCell id="BsEajPikyEnA2SoNJ8G7-236" value="NOSQL" style="shape=cylinder3;whiteSpace=wrap;html=1;boundedLbl=1;backgroundOutline=1;size=15;" vertex="1" parent="1">
          <mxGeometry x="-220" y="5790" width="60" height="80" as="geometry" />
        </mxCell>
        <mxCell id="BsEajPikyEnA2SoNJ8G7-237" value="otp_66789: 12445" style="text;html=1;align=center;verticalAlign=middle;whiteSpace=wrap;rounded=0;" vertex="1" parent="1">
          <mxGeometry x="-150" y="5800" width="140" height="30" as="geometry" />
        </mxCell>
        <mxCell id="BsEajPikyEnA2SoNJ8G7-238" value="otp_66889: 12445" style="text;html=1;align=center;verticalAlign=middle;whiteSpace=wrap;rounded=0;" vertex="1" parent="1">
          <mxGeometry x="-150" y="5830" width="140" height="30" as="geometry" />
        </mxCell>
        <mxCell id="BsEajPikyEnA2SoNJ8G7-239" value="" style="rounded=0;whiteSpace=wrap;html=1;" vertex="1" parent="1">
          <mxGeometry x="-448.75" y="6340" width="438.75" height="270" as="geometry" />
        </mxCell>
        <mxCell id="BsEajPikyEnA2SoNJ8G7-240" value="" style="rounded=0;whiteSpace=wrap;html=1;" vertex="1" parent="1">
          <mxGeometry x="-448.75" y="6340" width="98.75" height="270" as="geometry" />
        </mxCell>
        <mxCell id="BsEajPikyEnA2SoNJ8G7-241" value="Log out" style="rounded=0;whiteSpace=wrap;html=1;" vertex="1" parent="1">
          <mxGeometry x="-444.38" y="6570" width="90" height="30" as="geometry" />
        </mxCell>
        <mxCell id="BsEajPikyEnA2SoNJ8G7-242" value="profile" style="rounded=0;whiteSpace=wrap;html=1;" vertex="1" parent="1">
          <mxGeometry x="-115" y="6350" width="90" height="30" as="geometry" />
        </mxCell>
        <mxCell id="BsEajPikyEnA2SoNJ8G7-243" value="Transfer" style="rounded=0;whiteSpace=wrap;html=1;" vertex="1" parent="1">
          <mxGeometry x="-444.38" y="6370" width="90" height="20" as="geometry" />
        </mxCell>
        <mxCell id="BsEajPikyEnA2SoNJ8G7-244" value="Transactions" style="rounded=0;whiteSpace=wrap;html=1;" vertex="1" parent="1">
          <mxGeometry x="-444.38" y="6400" width="90" height="20" as="geometry" />
        </mxCell>
        <mxCell id="BsEajPikyEnA2SoNJ8G7-245" value="Accounts" style="rounded=0;whiteSpace=wrap;html=1;" vertex="1" parent="1">
          <mxGeometry x="-444.37" y="6430" width="90" height="20" as="geometry" />
        </mxCell>
        <mxCell id="BsEajPikyEnA2SoNJ8G7-246" value="Cards" style="rounded=0;whiteSpace=wrap;html=1;" vertex="1" parent="1">
          <mxGeometry x="-444.37" y="6460" width="90" height="20" as="geometry" />
        </mxCell>
        <mxCell id="BsEajPikyEnA2SoNJ8G7-247" value="Loans" style="rounded=0;whiteSpace=wrap;html=1;" vertex="1" parent="1">
          <mxGeometry x="-444.38" y="6490" width="90" height="20" as="geometry" />
        </mxCell>
        <mxCell id="BsEajPikyEnA2SoNJ8G7-248" value="" style="whiteSpace=wrap;html=1;aspect=fixed;" vertex="1" parent="1">
          <mxGeometry x="-310" y="6395" width="160" height="160" as="geometry" />
        </mxCell>
        <mxCell id="BsEajPikyEnA2SoNJ8G7-249" value="" style="rounded=0;whiteSpace=wrap;html=1;" vertex="1" parent="1">
          <mxGeometry x="-448.75" y="6650" width="428.75" height="210" as="geometry" />
        </mxCell>
        <mxCell id="BsEajPikyEnA2SoNJ8G7-250" value="Submit" style="rounded=0;whiteSpace=wrap;html=1;" vertex="1" parent="1">
          <mxGeometry x="-294.37" y="6810" width="120" height="30" as="geometry" />
        </mxCell>
        <mxCell id="BsEajPikyEnA2SoNJ8G7-251" value="" style="rounded=0;whiteSpace=wrap;html=1;" vertex="1" parent="1">
          <mxGeometry x="-297.5" y="6690" width="135" height="30" as="geometry" />
        </mxCell>
        <mxCell id="BsEajPikyEnA2SoNJ8G7-252" value="Account Id :" style="text;html=1;align=center;verticalAlign=middle;whiteSpace=wrap;rounded=0;" vertex="1" parent="1">
          <mxGeometry x="-414.75" y="6690" width="80" height="30" as="geometry" />
        </mxCell>
        <mxCell id="BsEajPikyEnA2SoNJ8G7-253" value="" style="rounded=0;whiteSpace=wrap;html=1;" vertex="1" parent="1">
          <mxGeometry x="-297.5" y="6730" width="137.5" height="30" as="geometry" />
        </mxCell>
        <mxCell id="BsEajPikyEnA2SoNJ8G7-254" value="Transfer Amount :" style="text;html=1;align=center;verticalAlign=middle;whiteSpace=wrap;rounded=0;" vertex="1" parent="1">
          <mxGeometry x="-410" y="6730" width="100" height="30" as="geometry" />
        </mxCell>
        <mxCell id="BsEajPikyEnA2SoNJ8G7-255" value="" style="rounded=0;whiteSpace=wrap;html=1;" vertex="1" parent="1">
          <mxGeometry x="-297.5" y="6770" width="137.5" height="30" as="geometry" />
        </mxCell>
        <mxCell id="BsEajPikyEnA2SoNJ8G7-256" value="Description:" style="text;html=1;align=center;verticalAlign=middle;whiteSpace=wrap;rounded=0;" vertex="1" parent="1">
          <mxGeometry x="-409.75" y="6770" width="75" height="30" as="geometry" />
        </mxCell>
        <mxCell id="BsEajPikyEnA2SoNJ8G7-257" value="Transfer Money" style="text;html=1;align=center;verticalAlign=middle;whiteSpace=wrap;rounded=0;" vertex="1" parent="1">
          <mxGeometry x="-299.75" y="6650" width="114.75" height="30" as="geometry" />
        </mxCell>
        <mxCell id="BsEajPikyEnA2SoNJ8G7-258" value="&lt;div&gt;The **ACID** properties are a set of principles that ensure reliable processing of database transactions. They are crucial for maintaining the integrity and consistency of a database,&amp;nbsp;&lt;/div&gt;&lt;div&gt;even in the face of errors, power failures, or other disruptions. Here&#39;s a breakdown of the ACID properties:&lt;/div&gt;&lt;div&gt;&lt;br&gt;&lt;/div&gt;&lt;div&gt;---&lt;/div&gt;&lt;div&gt;&lt;br&gt;&lt;/div&gt;&lt;div&gt;### **1. Atomicity**&lt;/div&gt;&lt;div&gt;- **Definition**: A transaction is treated as a single, indivisible unit of work. It must either complete fully or not execute at all.&lt;/div&gt;&lt;div&gt;- **Key Idea**: &quot;All or nothing.&quot;&lt;/div&gt;&lt;div&gt;- **Example**:&lt;/div&gt;&lt;div&gt;&amp;nbsp; - In a bank transfer, if money is debited from one account but not credited to another due to an error, the entire transaction is rolled back to maintain consistency.&lt;/div&gt;&lt;div&gt;&lt;br&gt;&lt;/div&gt;&lt;div&gt;---&lt;/div&gt;&lt;div&gt;&lt;br&gt;&lt;/div&gt;&lt;div&gt;### **2. Consistency**&lt;/div&gt;&lt;div&gt;- **Definition**: A transaction must bring the database from one valid state to another, preserving the integrity and rules of the database.&lt;/div&gt;&lt;div&gt;- **Key Idea**: Ensures the database adheres to all predefined rules (e.g., constraints, triggers).&lt;/div&gt;&lt;div&gt;- **Example**:&lt;/div&gt;&lt;div&gt;&amp;nbsp; - After a transaction, the total balance of all accounts in a bank should remain constant if no money enters or leaves the system.&lt;/div&gt;&lt;div&gt;&lt;br&gt;&lt;/div&gt;&lt;div&gt;---&lt;/div&gt;&lt;div&gt;&lt;br&gt;&lt;/div&gt;&lt;div&gt;### **3. Isolation**&lt;/div&gt;&lt;div&gt;- **Definition**: Transactions should not interfere with each other, even when executed concurrently. Each transaction must appear as if it is the only one running in the system.&lt;/div&gt;&lt;div&gt;- **Key Idea**: Prevents &quot;dirty reads,&quot; &quot;non-repeatable reads,&quot; and &quot;phantom reads.&quot;&lt;/div&gt;&lt;div&gt;- **Example**:&lt;/div&gt;&lt;div&gt;&amp;nbsp; - Two users editing the same account balance simultaneously should not see each other&#39;s changes until their respective transactions are complete.&lt;/div&gt;&lt;div&gt;&lt;br&gt;&lt;/div&gt;&lt;div&gt;---&lt;/div&gt;&lt;div&gt;&lt;br&gt;&lt;/div&gt;&lt;div&gt;### **4. Durability**&lt;/div&gt;&lt;div&gt;- **Definition**: Once a transaction is committed, its changes must be permanently saved in the database, even in the event of a system crash.&lt;/div&gt;&lt;div&gt;- **Key Idea**: Changes are non-volatile after commit.&lt;/div&gt;&lt;div&gt;- **Example**:&lt;/div&gt;&lt;div&gt;&amp;nbsp; - After booking a ticket and receiving a confirmation, the transaction is stored, and a power failure won&#39;t erase the booking.&lt;/div&gt;&lt;div&gt;&lt;br&gt;&lt;/div&gt;&lt;div&gt;---&lt;/div&gt;&lt;div&gt;&lt;br&gt;&lt;/div&gt;&lt;div&gt;### **Why Are ACID Properties Important?**&lt;/div&gt;&lt;div&gt;- **Reliability**: Ensures that database operations are executed reliably.&lt;/div&gt;&lt;div&gt;- **Data Integrity**: Protects against corruption and maintains accurate information.&lt;/div&gt;&lt;div&gt;- **Fault Tolerance**: Handles crashes or failures gracefully, ensuring no partial changes persist.&lt;/div&gt;&lt;div&gt;&lt;br&gt;&lt;/div&gt;&lt;div&gt;---&lt;/div&gt;&lt;div&gt;&lt;br&gt;&lt;/div&gt;&lt;div&gt;### Example: Bank Transaction&lt;/div&gt;&lt;div&gt;Suppose you are transferring $100 from Account A to Account B:&lt;/div&gt;&lt;div&gt;1. **Atomicity**: If the debit from Account A succeeds but the credit to Account B fails, the transaction is rolled back.&lt;/div&gt;&lt;div&gt;2. **Consistency**: The total funds in both accounts before and after the transaction remain consistent.&lt;/div&gt;&lt;div&gt;3. **Isolation**: Another transaction reading the balances during this transfer will not see intermediate states.&lt;/div&gt;&lt;div&gt;4. **Durability**: Once the transfer is committed, the changes are permanent, even if the system crashes immediately after.&lt;/div&gt;&lt;div&gt;&lt;br&gt;&lt;/div&gt;&lt;div&gt;---&lt;/div&gt;&lt;div&gt;&lt;br&gt;&lt;/div&gt;&lt;div&gt;ACID properties are fundamental to relational databases (e.g., PostgreSQL, MySQL, Oracle) and are often contrasted with BASE properties in NoSQL databases.&lt;/div&gt;" style="text;html=1;align=left;verticalAlign=middle;whiteSpace=wrap;rounded=0;" vertex="1" parent="1">
          <mxGeometry x="-230" y="7250" width="1410" height="30" as="geometry" />
        </mxCell>
        <mxCell id="BsEajPikyEnA2SoNJ8G7-259" value="Actor" style="shape=umlActor;verticalLabelPosition=bottom;verticalAlign=top;html=1;outlineConnect=0;" vertex="1" parent="1">
          <mxGeometry x="-210" y="7780" width="30" height="60" as="geometry" />
        </mxCell>
        <mxCell id="BsEajPikyEnA2SoNJ8G7-260" value="" style="endArrow=none;html=1;rounded=0;" edge="1" parent="1" target="BsEajPikyEnA2SoNJ8G7-261">
          <mxGeometry width="50" height="50" relative="1" as="geometry">
            <mxPoint x="-170" y="7870" as="sourcePoint" />
            <mxPoint x="260" y="7870" as="targetPoint" />
          </mxGeometry>
        </mxCell>
        <mxCell id="BsEajPikyEnA2SoNJ8G7-265" style="edgeStyle=orthogonalEdgeStyle;rounded=0;orthogonalLoop=1;jettySize=auto;html=1;" edge="1" parent="1" source="BsEajPikyEnA2SoNJ8G7-261" target="BsEajPikyEnA2SoNJ8G7-262">
          <mxGeometry relative="1" as="geometry" />
        </mxCell>
        <mxCell id="BsEajPikyEnA2SoNJ8G7-261" value="" style="rounded=0;whiteSpace=wrap;html=1;fillColor=#d80073;fontColor=#ffffff;strokeColor=#A50040;" vertex="1" parent="1">
          <mxGeometry x="-60" y="7840" width="40" height="60" as="geometry" />
        </mxCell>
        <mxCell id="BsEajPikyEnA2SoNJ8G7-266" style="edgeStyle=orthogonalEdgeStyle;rounded=0;orthogonalLoop=1;jettySize=auto;html=1;entryX=0;entryY=0.5;entryDx=0;entryDy=0;" edge="1" parent="1" source="BsEajPikyEnA2SoNJ8G7-262" target="BsEajPikyEnA2SoNJ8G7-263">
          <mxGeometry relative="1" as="geometry" />
        </mxCell>
        <mxCell id="BsEajPikyEnA2SoNJ8G7-262" value="" style="rounded=0;whiteSpace=wrap;html=1;" vertex="1" parent="1">
          <mxGeometry x="75" y="7840" width="40" height="60" as="geometry" />
        </mxCell>
        <mxCell id="BsEajPikyEnA2SoNJ8G7-267" style="edgeStyle=orthogonalEdgeStyle;rounded=0;orthogonalLoop=1;jettySize=auto;html=1;entryX=0;entryY=0.5;entryDx=0;entryDy=0;" edge="1" parent="1" source="BsEajPikyEnA2SoNJ8G7-263" target="BsEajPikyEnA2SoNJ8G7-264">
          <mxGeometry relative="1" as="geometry" />
        </mxCell>
        <mxCell id="BsEajPikyEnA2SoNJ8G7-263" value="" style="rounded=0;whiteSpace=wrap;html=1;" vertex="1" parent="1">
          <mxGeometry x="230" y="7840" width="40" height="60" as="geometry" />
        </mxCell>
        <mxCell id="BsEajPikyEnA2SoNJ8G7-264" value="" style="ellipse;whiteSpace=wrap;html=1;aspect=fixed;" vertex="1" parent="1">
          <mxGeometry x="370" y="7830" width="80" height="80" as="geometry" />
        </mxCell>
      </root>
    </mxGraphModel>
  </diagram>
</mxfile>
